<svg width="16" height="16" viewBox="0 0 16 16" fill="none" xmlns="http://www.w3.org/2000/svg">
<path d="M8 0C3.588 0 0 3.588 0 8C0 12.412 3.588 16 8 16C12.412 16 16 12.412 16 8C16 3.588 12.412 0 8 0ZM12 9.33333H9.33333V12C9.33333 12.736 8.736 13.3333 8 13.3333C7.264 13.3333 6.66667 12.736 6.66667 12V9.33333H4C3.264 9.33333 2.66667 8.736 2.66667 8C2.66667 7.264 3.264 6.66667 4 6.66667H6.66667V4C6.66667 3.264 7.264 2.66667 8 2.66667C8.736 2.66667 9.33333 3.264 9.33333 4V6.66667H12C12.736 6.66667 13.3333 7.264 13.3333 8C13.3333 8.736 12.736 9.33333 12 9.33333Z" fill="#FB7A04"/>
</svg>
