<svg width="25" height="25" viewBox="0 0 25 25" fill="none" xmlns="http://www.w3.org/2000/svg">
<path d="M16.5 13.25H8.5C8.09 13.25 7.75 12.91 7.75 12.5C7.75 12.09 8.09 11.75 8.5 11.75H16.5C16.91 11.75 17.25 12.09 17.25 12.5C17.25 12.91 16.91 13.25 16.5 13.25Z" fill="white"/>
<path d="M12.5 17.25C12.09 17.25 11.75 16.91 11.75 16.5V8.5C11.75 8.09 12.09 7.75 12.5 7.75C12.91 7.75 13.25 8.09 13.25 8.5V16.5C13.25 16.91 12.91 17.25 12.5 17.25Z" fill="white"/>
<path d="M15.5 23.25H9.5C4.07 23.25 1.75 20.93 1.75 15.5V9.5C1.75 4.07 4.07 1.75 9.5 1.75H15.5C20.93 1.75 23.25 4.07 23.25 9.5V15.5C23.25 20.93 20.93 23.25 15.5 23.25ZM9.5 3.25C4.89 3.25 3.25 4.89 3.25 9.5V15.5C3.25 20.11 4.89 21.75 9.5 21.75H15.5C20.11 21.75 21.75 20.11 21.75 15.5V9.5C21.75 4.89 20.11 3.25 15.5 3.25H9.5Z" fill="white"/>
</svg>
