<svg width="48" height="38" viewBox="0 0 48 38" fill="none" xmlns="http://www.w3.org/2000/svg">
<path d="M30.8579 8.79107V6.22541C30.8579 5.95954 30.6406 5.74194 30.375 5.74194H20.5649C20.2993 5.74194 20.082 5.95954 20.082 6.22541V8.79107C20.082 9.05694 20.2993 9.27454 20.5649 9.27454C20.2993 9.27454 20.082 9.49213 20.082 9.75801V12.3238C20.082 12.5896 20.2993 12.8072 20.5649 12.8072C20.2993 12.8072 20.082 13.0248 20.082 13.2907V15.8564C20.082 16.1223 20.2993 16.3399 20.5649 16.3399C20.2993 16.3399 20.082 16.5574 20.082 16.8234V19.389C20.082 19.6549 20.2993 19.8725 20.5649 19.8725C20.2993 19.8725 20.082 20.0901 20.082 20.356V22.9217C20.082 23.1876 20.2993 23.4052 20.5649 23.4052H30.375C30.6406 23.4052 30.8579 23.1877 30.8579 22.9217V20.356C30.8579 20.0901 30.6406 19.8725 30.375 19.8725C30.6406 19.8725 30.8579 19.655 30.8579 19.389V16.8234C30.8579 16.5575 30.6406 16.3399 30.375 16.3399C30.6406 16.3399 30.8579 16.1223 30.8579 15.8564V13.2907C30.8579 13.0248 30.6406 12.8072 30.375 12.8072C30.6406 12.8072 30.8579 12.5896 30.8579 12.3238V9.75801C30.8579 9.49213 30.6406 9.27454 30.375 9.27454C30.6406 9.27435 30.8579 9.05694 30.8579 8.79107Z" fill="#F8B816"/>
<path d="M13.7076 15.9946H4.49951C4.23391 15.9946 4.0166 16.2121 4.0166 16.478V22.9213C4.0166 23.1871 4.23391 23.4047 4.49951 23.4047H13.7076V15.9946Z" fill="#4B7D32"/>
<path d="M20.7186 15.9946H13.707V23.4046H20.7186V15.9946Z" fill="#FED0A5"/>
<path d="M17.0549 15.9946H13.707V23.4046H17.0549V15.9946Z" fill="#EBB272"/>
<path d="M9.60204 20.1897H4.0166V21.5959H9.60204C9.99035 21.5959 10.3052 21.2811 10.3052 20.8928C10.3052 20.5044 9.99035 20.1897 9.60204 20.1897Z" fill="#60A041"/>
<path d="M7.78085 17.8035H4.0166V19.2097H7.78085C8.16916 19.2097 8.48398 18.8949 8.48398 18.5066C8.48398 18.1183 8.16916 17.8035 7.78085 17.8035Z" fill="#60A041"/>
<path d="M30.8579 22.9215C30.8579 23.1874 30.6406 23.405 30.375 23.405H20.5649C20.2993 23.405 20.082 23.1875 20.082 22.9215V20.3558C20.082 20.0899 20.2993 19.8723 20.5649 19.8723H30.375C30.6406 19.8723 30.8579 20.0899 30.8579 20.3558V22.9215Z" fill="#F8B816"/>
<path d="M30.8579 19.3887C30.8579 19.6546 30.6406 19.8722 30.375 19.8722H20.5649C20.2993 19.8722 20.082 19.6547 20.082 19.3887V16.8231C20.082 16.5572 20.2993 16.3396 20.5649 16.3396H30.375C30.6406 16.3396 30.8579 16.5571 30.8579 16.8231V19.3887Z" fill="#FECF05"/>
<path d="M30.8579 15.8563C30.8579 16.1222 30.6406 16.3398 30.375 16.3398H20.5649C20.2993 16.3398 20.082 16.1222 20.082 15.8563V13.2906C20.082 13.0247 20.2993 12.8071 20.5649 12.8071H30.375C30.6406 12.8071 30.8579 13.0247 30.8579 13.2906V15.8563Z" fill="#F8B816"/>
<path d="M30.8579 12.3236C30.8579 12.5895 30.6406 12.8071 30.375 12.8071H20.5649C20.2993 12.8071 20.082 12.5895 20.082 12.3236V9.75788C20.082 9.49201 20.2993 9.27441 20.5649 9.27441H30.375C30.6406 9.27441 30.8579 9.49201 30.8579 9.75788V12.3236Z" fill="#FECF05"/>
<path d="M30.8579 8.79107C30.8579 9.05694 30.6406 9.27454 30.375 9.27454H20.5649C20.2993 9.27454 20.082 9.05704 20.082 8.79107V6.22541C20.082 5.95954 20.2993 5.74194 20.5649 5.74194H30.375C30.6406 5.74194 30.8579 5.95954 30.8579 6.22541V8.79107Z" fill="#F8B816"/>
<path opacity="0.1" d="M21.2809 22.9215V20.3557C21.2809 20.0899 21.4982 19.8723 21.7638 19.8723C21.4982 19.8723 21.2809 19.6548 21.2809 19.3888V16.8231C21.2809 16.5573 21.4982 16.3397 21.7638 16.3397C21.4982 16.3397 21.2809 16.1221 21.2809 15.8562V13.2904C21.2809 13.0246 21.4982 12.807 21.7638 12.807C21.4982 12.807 21.2809 12.5894 21.2809 12.3235V9.75776C21.2809 9.49189 21.4982 9.27429 21.7638 9.27429C21.4982 9.27429 21.2809 9.05679 21.2809 8.79082V6.22517C21.2809 5.95929 21.4982 5.7417 21.7638 5.7417H20.5649C20.2993 5.7417 20.082 5.95929 20.082 6.22517V8.79082C20.082 9.0567 20.2993 9.27429 20.5649 9.27429C20.2993 9.27429 20.082 9.49189 20.082 9.75776V12.3235C20.082 12.5894 20.2993 12.807 20.5649 12.807C20.2993 12.807 20.082 13.0246 20.082 13.2904V15.8562C20.082 16.1221 20.2993 16.3397 20.5649 16.3397C20.2993 16.3397 20.082 16.5572 20.082 16.8231V19.3888C20.082 19.6547 20.2993 19.8723 20.5649 19.8723C20.2993 19.8723 20.082 20.0899 20.082 20.3557V22.9215C20.082 23.1874 20.2993 23.4049 20.5649 23.4049H21.7638C21.4982 23.4049 21.2809 23.1874 21.2809 22.9215Z" fill="black"/>
<path d="M40.2623 13.2545V10.6888C40.2623 10.4229 40.045 10.2053 39.7794 10.2053H29.9692C29.7036 10.2053 29.4863 10.4229 29.4863 10.6888V13.2545C29.4863 13.5204 29.7036 13.738 29.9692 13.738C29.7036 13.738 29.4863 13.9555 29.4863 14.2215V16.7871C29.4863 17.053 29.7036 17.2706 29.9692 17.2706C29.7036 17.2706 29.4863 17.4881 29.4863 17.754V20.3197C29.4863 20.5856 29.7036 20.8032 29.9692 20.8032C29.7036 20.8032 29.4863 21.0208 29.4863 21.2867V23.8524C29.4863 24.1183 29.7036 24.3359 29.9692 24.3359C29.7036 24.3359 29.4863 24.5534 29.4863 24.8194V27.3851C29.4863 27.651 29.7036 27.8686 29.9692 27.8686C29.7036 27.8686 29.4863 28.0861 29.4863 28.352V30.2701H40.2622V28.3519C40.2622 28.086 40.0449 27.8684 39.7793 27.8684C40.0449 27.8684 40.2622 27.6508 40.2622 27.3849V24.8192C40.2622 24.5533 40.0449 24.3357 39.7793 24.3357C40.0449 24.3357 40.2622 24.1182 40.2622 23.8522V21.2865C40.2622 21.0206 40.0449 20.803 39.7793 20.803C40.0449 20.803 40.2622 20.5855 40.2622 20.3195V17.7538C40.2622 17.4879 40.0449 17.2704 39.7793 17.2704C40.0449 17.2704 40.2622 17.0528 40.2622 16.7869V14.2213C40.2622 13.9554 40.0449 13.7378 39.7793 13.7378C40.045 13.7379 40.2623 13.5204 40.2623 13.2545Z" fill="#F8B816"/>
<path d="M40.2623 30.2699V28.3519C40.2623 28.086 40.045 27.8684 39.7794 27.8684H29.9692C29.7036 27.8684 29.4863 28.0859 29.4863 28.3519V30.2699H40.2623Z" fill="#FECF05"/>
<path d="M40.2623 27.3849C40.2623 27.6508 40.045 27.8684 39.7794 27.8684H29.9692C29.7036 27.8684 29.4863 27.6508 29.4863 27.3849V24.8192C29.4863 24.5533 29.7036 24.3357 29.9692 24.3357H39.7794C40.045 24.3357 40.2623 24.5532 40.2623 24.8192V27.3849Z" fill="#F8B816"/>
<path d="M40.2623 23.8522C40.2623 24.1181 40.045 24.3357 39.7794 24.3357H29.9692C29.7036 24.3357 29.4863 24.1182 29.4863 23.8522V21.2864C29.4863 21.0206 29.7036 20.803 29.9692 20.803H39.7794C40.045 20.803 40.2623 21.0206 40.2623 21.2864V23.8522Z" fill="#FECF05"/>
<path d="M40.2623 20.3196C40.2623 20.5855 40.045 20.8031 39.7794 20.8031H29.9692C29.7036 20.8031 29.4863 20.5856 29.4863 20.3196V17.7539C29.4863 17.488 29.7036 17.2705 29.9692 17.2705H39.7794C40.045 17.2705 40.2623 17.488 40.2623 17.7539V20.3196Z" fill="#F8B816"/>
<path d="M40.2623 16.7872C40.2623 17.053 40.045 17.2706 39.7794 17.2706H29.9692C29.7036 17.2706 29.4863 17.053 29.4863 16.7872V14.2215C29.4863 13.9556 29.7036 13.738 29.9692 13.738H39.7794C40.045 13.738 40.2623 13.9555 40.2623 14.2215V16.7872Z" fill="#FECF05"/>
<path d="M40.2623 13.2545C40.2623 13.5204 40.045 13.738 39.7794 13.738H29.9692C29.7036 13.738 29.4863 13.5204 29.4863 13.2545V10.6888C29.4863 10.4229 29.7036 10.2053 29.9692 10.2053H39.7794C40.045 10.2053 40.2623 10.4229 40.2623 10.6888V13.2545Z" fill="#F8B816"/>
<path opacity="0.1" d="M31.1388 27.8683C30.8732 27.8683 30.6559 27.6507 30.6559 27.3849V24.8191C30.6559 24.5532 30.8732 24.3356 31.1388 24.3356C30.8732 24.3356 30.6559 24.1181 30.6559 23.8522V21.2864C30.6559 21.0205 30.8732 20.803 31.1388 20.803C30.8732 20.803 30.6559 20.5855 30.6559 20.3195V17.7537C30.6559 17.4879 30.8732 17.2704 31.1388 17.2704C30.8732 17.2704 30.6559 17.0528 30.6559 16.7869V14.2212C30.6559 13.9554 30.8732 13.7378 31.1388 13.7378C30.8732 13.7378 30.6559 13.5202 30.6559 13.2543V10.6885C30.6559 10.4227 30.8732 10.2051 31.1388 10.2051H29.9692C29.7036 10.2051 29.4863 10.4227 29.4863 10.6885V13.2543C29.4863 13.5202 29.7036 13.7378 29.9692 13.7378C29.7036 13.7378 29.4863 13.9553 29.4863 14.2212V16.7869C29.4863 17.0528 29.7036 17.2704 29.9692 17.2704C29.7036 17.2704 29.4863 17.4879 29.4863 17.7537V20.3195C29.4863 20.5854 29.7036 20.803 29.9692 20.803C29.7036 20.803 29.4863 21.0205 29.4863 21.2864V23.8522C29.4863 24.118 29.7036 24.3356 29.9692 24.3356C29.7036 24.3356 29.4863 24.5531 29.4863 24.8191V27.3849C29.4863 27.6507 29.7036 27.8683 29.9692 27.8683C29.7036 27.8683 29.4863 28.0858 29.4863 28.3518V30.2698H30.6559V28.3519C30.6559 28.086 30.8732 27.8683 31.1388 27.8683Z" fill="black"/>
<path d="M34.3084 4.16475C34.2261 4.16475 34.1518 4.11506 34.1202 4.03894C33.6951 3.01069 33.3817 2.69672 32.3552 2.27072C32.2792 2.23912 32.2295 2.16478 32.2295 2.08237C32.2295 1.99987 32.2792 1.92553 32.3552 1.89394C33.3817 1.46794 33.695 1.15397 34.1202 0.125812C34.1518 0.0495936 34.2261 0 34.3084 0C34.3907 0 34.465 0.0496874 34.4965 0.125812C34.9216 1.15406 35.2351 1.46794 36.2616 1.89394C36.3375 1.92544 36.3872 1.99987 36.3872 2.08237C36.3872 2.16478 36.3376 2.23912 36.2616 2.27072C35.235 2.69672 34.9216 3.01059 34.4965 4.03894C34.465 4.11506 34.3907 4.16475 34.3084 4.16475Z" fill="#F8B816"/>
<path d="M44.5737 24.4562C44.4999 24.4562 44.4334 24.4116 44.4052 24.3434C44.0244 23.4226 43.7438 23.1414 42.8245 22.7599C42.7564 22.7316 42.7119 22.665 42.7119 22.5912C42.7119 22.5174 42.7564 22.4508 42.8245 22.4224C43.7438 22.041 44.0244 21.7599 44.4052 20.839C44.4334 20.7708 44.4999 20.7263 44.5737 20.7263C44.6474 20.7263 44.7139 20.7708 44.7421 20.839C45.1229 21.7599 45.4035 22.041 46.3229 22.4224C46.391 22.4508 46.4354 22.5174 46.4354 22.5912C46.4354 22.665 46.3909 22.7316 46.3229 22.7599C45.4035 23.1414 45.1229 23.4226 44.7421 24.3434C44.7139 24.4116 44.6473 24.4562 44.5737 24.4562Z" fill="#F8B816"/>
<path d="M13.0586 13.1113C12.9682 13.1113 12.8867 13.0566 12.852 12.973C12.385 11.8438 12.0409 11.499 10.9135 11.031C10.83 10.9965 10.7754 10.9147 10.7754 10.8241C10.7754 10.7336 10.8299 10.6519 10.9135 10.6172C12.0409 10.1493 12.3851 9.80461 12.852 8.6753C12.8867 8.59158 12.9682 8.53711 13.0586 8.53711C13.149 8.53711 13.2305 8.59158 13.2651 8.6753C13.7321 9.80461 14.0763 10.1493 15.2037 10.6172C15.2872 10.6519 15.3418 10.7336 15.3418 10.8241C15.3418 10.9147 15.2872 10.9965 15.2037 11.031C14.0763 11.499 13.7321 11.8438 13.2651 12.973C13.2305 13.0567 13.149 13.1113 13.0586 13.1113Z" fill="#FECF05"/>
<path d="M47.5168 30.0747H38.3087V30.2698H38.1025V37.4848H47.5168C47.7824 37.4848 47.9997 37.2673 47.9997 37.0013V30.5581C47.9997 30.2923 47.7824 30.0747 47.5168 30.0747Z" fill="#60A041"/>
<path d="M34.9604 30.075H29.4863V37.485H34.9604V30.075Z" fill="#EBB272"/>
<path d="M38.3088 30.075H34.9609V37.485H38.3088V30.075Z" fill="#FED0A5"/>
<path d="M47.9996 31.8838H42.4141C42.0257 31.8838 41.7109 32.1986 41.7109 32.5869C41.7109 32.9752 42.0257 33.29 42.4141 33.29H47.9996V31.8838Z" fill="#4B7D32"/>
<path d="M47.9997 34.2698H44.2354C43.847 34.2698 43.5322 34.5846 43.5322 34.9729C43.5322 35.3612 43.847 35.676 44.2354 35.676H47.9997V34.2698Z" fill="#4B7D32"/>
<path d="M32.5473 37.0014C32.5473 37.2673 32.33 37.4849 32.0644 37.4849H0.482906C0.217313 37.4849 0 37.2674 0 37.0014V23.6712C0 23.4053 0.217313 23.1877 0.482906 23.1877H32.0644C32.33 23.1877 32.5473 23.4052 32.5473 23.6712V37.0014Z" fill="#89C947"/>
<path opacity="0.1" d="M1.78678 37.0014V23.6712C1.78678 23.4053 2.00409 23.1877 2.26969 23.1877H0.482906C0.217313 23.1877 0 23.4052 0 23.6712V37.0014C0 37.2673 0.217313 37.4849 0.482906 37.4849H2.26969C2.004 37.4848 1.78678 37.2673 1.78678 37.0014Z" fill="black"/>
<path d="M6.14314 25.9585C5.87755 25.9585 5.48455 26.0865 5.26977 26.2429L3.15805 27.7815C2.94327 27.9379 2.76758 28.2834 2.76758 28.5494V32.1233C2.76758 32.3892 2.94327 32.7348 3.15805 32.8912L5.26977 34.4298C5.48455 34.5861 5.87755 34.7142 6.14314 34.7142H26.0556C26.3212 34.7142 26.7142 34.5861 26.929 34.4297L29.3892 32.6372C29.604 32.4808 29.7797 32.1352 29.7797 31.8693V28.8034C29.7797 28.5376 29.604 28.192 29.3892 28.0355L26.929 26.2431C26.7142 26.0867 26.3212 25.9587 26.0556 25.9587H6.14314V25.9585Z" fill="#4B7D32"/>
<path d="M16.2739 34.4373C18.5361 34.4373 20.37 32.6013 20.37 30.3366C20.37 28.0718 18.5361 26.2358 16.2739 26.2358C14.0116 26.2358 12.1777 28.0718 12.1777 30.3366C12.1777 32.6013 14.0116 34.4373 16.2739 34.4373Z" fill="#89C947"/>
<path opacity="0.1" d="M13.3892 30.3363C13.3892 28.2798 14.9013 26.5771 16.8731 26.2813C16.6775 26.2518 16.4776 26.2356 16.2738 26.2356C14.0116 26.2356 12.1777 28.0716 12.1777 30.3363C12.1777 32.6011 14.0116 34.437 16.2738 34.437C16.4777 34.437 16.6775 34.4208 16.8732 34.3913C14.9014 34.0955 13.3892 32.3928 13.3892 30.3363Z" fill="black"/>
<path d="M7.19538 31.8882C8.05136 31.8882 8.74526 31.1935 8.74526 30.3366C8.74526 29.4796 8.05136 28.7849 7.19538 28.7849C6.33941 28.7849 5.64551 29.4796 5.64551 30.3366C5.64551 31.1935 6.33941 31.8882 7.19538 31.8882Z" fill="#60A041"/>
<path d="M25.3516 31.8882C26.2076 31.8882 26.9015 31.1935 26.9015 30.3366C26.9015 29.4796 26.2076 28.7849 25.3516 28.7849C24.4957 28.7849 23.8018 29.4796 23.8018 30.3366C23.8018 31.1935 24.4957 31.8882 25.3516 31.8882Z" fill="#60A041"/>
</svg>
