<svg width="41" height="40" viewBox="0 0 41 40" fill="none" xmlns="http://www.w3.org/2000/svg">
<circle cx="20.5" cy="20" r="20" fill="#FFF8E7"/>
<path d="M29.8421 28.813H11.1492C10.6328 28.813 10.2144 29.3011 10.2144 29.9042C10.2144 30.5062 10.6328 30.9944 11.1492 30.9944H29.8417C30.3582 30.9944 30.7766 30.5062 30.7766 29.9042C30.7762 29.3011 30.3577 28.813 29.8421 28.813Z" fill="#F9A804"/>
<path d="M12.3172 25.9774C11.8007 25.9774 11.3823 26.4656 11.3823 27.0681C11.3823 27.6707 11.8007 28.1593 12.3172 28.1593H28.6733C29.1898 28.1593 29.6082 27.6707 29.6082 27.0681C29.6082 26.4656 29.1898 25.9774 28.6733 25.9774H28.4401V16.1632H28.6733C28.932 16.1632 29.1403 15.9191 29.1403 15.6183C29.1403 15.3176 28.9311 15.0735 28.6733 15.0735H12.3172C12.059 15.0735 11.8502 15.3176 11.8502 15.6183C11.8502 15.9191 12.0594 16.1632 12.3172 16.1632H12.5509V25.9769H12.3172V25.9774ZM26.5703 16.1632V25.9769H23.7665V16.1632H26.5703ZM21.8967 16.1632V25.9769H19.0929V16.1632H21.8967ZM14.4198 16.1632H17.2236V25.9769H14.4198V16.1632Z" fill="#F9A804"/>
<path d="M11.1493 14.0931H29.8417C29.8448 14.0931 29.8483 14.0931 29.8509 14.0931C30.3678 14.0931 30.7858 13.605 30.7858 13.0024C30.7858 12.5234 30.5214 12.1175 30.1542 11.9704L20.8798 7.1016C20.636 6.97395 20.3572 6.97395 20.113 7.1016L10.7659 12.0082C10.3636 12.2196 10.1426 12.7292 10.2354 13.2317C10.3277 13.7341 10.7085 14.0931 11.1493 14.0931Z" fill="#F9A804"/>
</svg>
