<svg width="25" height="24" viewBox="0 0 25 24" fill="none" xmlns="http://www.w3.org/2000/svg">
<g clip-path="url(#clip0_5577_18944)">
<path d="M12.5 9.99999C11.327 9.99999 7.5 9.85599 7.5 8C7.5 6.144 11.327 6 12.5 6C13.673 6 17.5 6.144 17.5 8C17.5 9.85599 13.673 9.99999 12.5 9.99999Z" fill="#BF0C26"/>
<path d="M12.5 11.4999C10.096 11.4999 8.567 11.1019 7.597 10.5459C7.54 10.6859 7.5 10.8339 7.5 10.9999C7.5 12.8559 11.327 12.9999 12.5 12.9999C13.673 12.9999 17.5 12.8559 17.5 10.9999C17.5 10.8339 17.46 10.6859 17.403 10.5459C16.433 11.1019 14.904 11.4999 12.5 11.4999Z" fill="#BF0C26"/>
<path d="M12.5 14.4999C10.096 14.4999 8.567 14.1019 7.597 13.5459C7.54 13.6859 7.5 13.8339 7.5 13.9999C7.5 15.8559 11.327 15.9999 12.5 15.9999C13.673 15.9999 17.5 15.8559 17.5 13.9999C17.5 13.8339 17.46 13.6859 17.403 13.5459C16.433 14.1019 14.904 14.4999 12.5 14.4999Z" fill="#BF0C26"/>
<path d="M22.7725 10.272C22.3585 10.272 22.0225 10.608 22.0225 11.022C22.0225 15.507 18.9005 19.268 14.7185 20.272V19.337C14.7185 18.671 13.9115 18.334 13.4385 18.807L11.4815 20.763C11.1885 21.056 11.1885 21.531 11.4815 21.824L13.4385 23.78C13.9075 24.249 14.7185 23.921 14.7185 23.25V21.819C19.7365 20.79 23.5225 16.34 23.5225 11.022C23.5225 10.608 23.1865 10.272 22.7725 10.272V10.272Z" fill="#BF0C26"/>
<path d="M9.32432 19.9889C5.52832 18.6589 2.97832 15.0559 2.97832 11.0219C2.97832 9.87994 3.18432 8.77094 3.57132 7.72894L4.47032 8.24694C5.04532 8.57994 5.74232 8.05094 5.57032 7.40294L4.81032 4.56894C4.70232 4.17094 4.30032 3.93494 3.89032 4.03894L1.05532 4.79794C0.410321 4.97094 0.299321 5.83994 0.875322 6.17194L2.25432 6.96794C1.74632 8.24394 1.47932 9.61194 1.47932 11.0219C1.47932 15.6909 4.43232 19.8639 8.82932 21.4049C9.22632 21.5419 9.64932 21.3319 9.78532 20.9449C9.92132 20.5539 9.71533 20.1259 9.32432 19.9889V19.9889Z" fill="#BF0C26"/>
<path d="M23.5563 4.917L21.9433 5.349C19.9803 2.106 16.4023 0 12.5003 0C9.9883 0 7.63431 0.825999 5.69131 2.386C5.36831 2.646 5.31731 3.118 5.57631 3.441C5.83731 3.765 6.30831 3.815 6.63131 3.556C8.30531 2.211 10.3343 1.5 12.5003 1.5C15.7223 1.5 18.6853 3.164 20.4213 5.756L19.5473 5.99C18.9033 6.163 18.7893 7.03 19.3663 7.364L21.9073 8.83199C22.0803 8.93199 22.2833 8.95799 22.4763 8.90699C22.6673 8.85499 22.8313 8.72999 22.9313 8.55699L24.4003 6.016C24.7313 5.441 24.2063 4.745 23.5563 4.917V4.917Z" fill="#BF0C26"/>
</g>
<defs>
<clipPath id="clip0_5577_18944">
<rect width="24" height="24" fill="white" transform="translate(0.5)"/>
</clipPath>
</defs>
</svg>
