<svg width="24" height="24" viewBox="0 0 24 24" fill="none" xmlns="http://www.w3.org/2000/svg">
<path d="M18.3141 3.29839H17.5468V2.52196C17.5468 2.07835 17.1872 1.71875 16.7436 1.71875C16.3 1.71875 15.9404 2.07835 15.9404 2.52196V3.29839H8.05974V2.52196C8.05974 2.07835 7.70014 1.71875 7.25653 1.71875C6.81291 1.71875 6.45332 2.07835 6.45332 2.52196V3.29839H5.68605C3.49604 3.29839 1.71436 5.08008 1.71436 7.27004V18.3093C1.71436 20.4993 3.49604 22.281 5.68605 22.281H18.3141C20.5041 22.281 22.2858 20.4993 22.2858 18.3093V7.27004C22.2858 5.08008 20.5041 3.29839 18.3141 3.29839ZM5.68605 4.90481H6.45332V6.47108C6.45332 6.91469 6.81291 7.27429 7.25653 7.27429C7.70014 7.27429 8.05974 6.91469 8.05974 6.47108V4.90481H15.9404V6.47108C15.9404 6.91469 16.3 7.27429 16.7436 7.27429C17.1872 7.27429 17.5468 6.91469 17.5468 6.47108V4.90481H18.3141C19.6183 4.90481 20.6794 5.96586 20.6794 7.27004V8.03735H3.32078V7.27004C3.32078 5.96586 4.38183 4.90481 5.68605 4.90481ZM18.3141 20.6746H5.68605C4.38183 20.6746 3.32078 19.6135 3.32078 18.3093V9.64377H20.6794V18.3093C20.6794 19.6135 19.6183 20.6746 18.3141 20.6746ZM8.84958 12.8031C8.84958 13.2467 8.48998 13.6063 8.04637 13.6063H6.46673C6.02311 13.6063 5.66352 13.2467 5.66352 12.8031C5.66352 12.3595 6.02311 11.9999 6.46673 11.9999H8.04637C8.48994 11.9999 8.84958 12.3595 8.84958 12.8031ZM18.3367 12.8031C18.3367 13.2467 17.9771 13.6063 17.5334 13.6063H15.9538C15.5102 13.6063 15.1506 13.2467 15.1506 12.8031C15.1506 12.3595 15.5102 11.9999 15.9538 11.9999H17.5334C17.977 11.9999 18.3367 12.3595 18.3367 12.8031ZM13.5885 12.8031C13.5885 13.2467 13.2289 13.6063 12.7853 13.6063H11.2057C10.7621 13.6063 10.4025 13.2467 10.4025 12.8031C10.4025 12.3595 10.7621 11.9999 11.2057 11.9999H12.7853C13.2289 11.9999 13.5885 12.3595 13.5885 12.8031ZM8.84958 17.542C8.84958 17.9857 8.48998 18.3453 8.04637 18.3453H6.46673C6.02311 18.3453 5.66352 17.9857 5.66352 17.542C5.66352 17.0984 6.02311 16.7388 6.46673 16.7388H8.04637C8.48994 16.7388 8.84958 17.0984 8.84958 17.542ZM18.3367 17.542C18.3367 17.9857 17.9771 18.3453 17.5334 18.3453H15.9538C15.5102 18.3453 15.1506 17.9857 15.1506 17.542C15.1506 17.0984 15.5102 16.7388 15.9538 16.7388H17.5334C17.977 16.7388 18.3367 17.0984 18.3367 17.542ZM13.5885 17.542C13.5885 17.9857 13.2289 18.3453 12.7853 18.3453H11.2057C10.7621 18.3453 10.4025 17.9857 10.4025 17.542C10.4025 17.0984 10.7621 16.7388 11.2057 16.7388H12.7853C13.2289 16.7388 13.5885 17.0984 13.5885 17.542Z" fill="#929292"/>
</svg>
