<svg width="24" height="24" viewBox="0 0 24 24" fill="none" xmlns="http://www.w3.org/2000/svg">
<path d="M17.9997 6C17.3897 6 16.8297 5.65 16.5497 5.11L15.8297 3.66C15.3697 2.75 14.1697 2 13.1497 2H10.8597C9.82968 2 8.62968 2.75 8.16968 3.66L7.44968 5.11C7.16968 5.65 6.60968 6 5.99968 6C3.82968 6 2.10968 7.83 2.24968 9.99L2.76968 18.25C2.88968 20.31 3.99968 22 6.75968 22H17.2397C19.9997 22 21.0997 20.31 21.2297 18.25L21.7497 9.99C21.8897 7.83 20.1697 6 17.9997 6ZM10.4997 7.25H13.4997C13.9097 7.25 14.2497 7.59 14.2497 8C14.2497 8.41 13.9097 8.75 13.4997 8.75H10.4997C10.0897 8.75 9.74968 8.41 9.74968 8C9.74968 7.59 10.0897 7.25 10.4997 7.25ZM11.9997 18.12C10.1397 18.12 8.61968 16.61 8.61968 14.74C8.61968 12.87 10.1297 11.36 11.9997 11.36C13.8697 11.36 15.3797 12.87 15.3797 14.74C15.3797 16.61 13.8597 18.12 11.9997 18.12Z" fill="#595959"/>
</svg>
