<svg width="50" height="50" viewBox="0 0 50 50" fill="none" xmlns="http://www.w3.org/2000/svg">
<circle cx="25" cy="25" r="25" fill="#5A4099"/>
<path d="M17.8008 37.6462H31.4466C35.0403 37.6462 36.4726 35.4456 36.6419 32.7633L37.319 22.0081C37.5013 19.1956 35.2617 16.8128 32.4362 16.8128C31.6419 16.8128 30.9127 16.3571 30.5481 15.654L29.6107 13.766C29.0117 12.5811 27.4492 11.6045 26.1211 11.6045H23.1393C21.7982 11.6045 20.2357 12.5811 19.6367 13.766L18.6992 15.654C18.3346 16.3571 17.6054 16.8128 16.8112 16.8128C13.9857 16.8128 11.7461 19.1956 11.9284 22.0081L12.6054 32.7633C12.7617 35.4456 14.207 37.6462 17.8008 37.6462Z" stroke="white" stroke-width="1.5" stroke-linecap="round" stroke-linejoin="round"/>
<path d="M22.6719 19.417H26.5781" stroke="white" stroke-width="1.5" stroke-linecap="round" stroke-linejoin="round"/>
<path d="M24.6263 32.4372C26.957 32.4372 28.8581 30.5361 28.8581 28.2054C28.8581 25.8747 26.957 23.9736 24.6263 23.9736C22.2956 23.9736 20.3945 25.8747 20.3945 28.2054C20.3945 30.5361 22.2956 32.4372 24.6263 32.4372Z" stroke="white" stroke-width="1.5" stroke-linecap="round" stroke-linejoin="round"/>
</svg>
