<svg width="40" height="40" viewBox="0 0 40 40" fill="none" xmlns="http://www.w3.org/2000/svg">
<circle cx="20" cy="20" r="20" fill="#FFF8E7"/>
<path d="M25.5385 16.5387H32V13.5387C32 11.63 30.4472 10.0771 28.5385 10.0771H11.4615C9.55283 10.0771 8 11.63 8 13.5387V26.4618C8 28.3705 9.55283 29.9233 11.4615 29.9233H28.5385C30.4472 29.9233 32 28.3705 32 26.4618V23.4618H25.5385C23.6298 23.4618 22.0769 21.9089 22.0769 20.0002C22.0769 18.0915 23.6298 16.5387 25.5385 16.5387Z" fill="#F9A804"/>
<path d="M25.5389 17.9229C24.3936 17.9229 23.4619 18.8545 23.4619 19.9998C23.4619 21.145 24.3936 22.0767 25.5389 22.0767H32.0004V17.9229H25.5389V17.9229ZM26.4619 20.6921H25.5389C25.1565 20.6921 24.8466 20.3821 24.8466 19.9998C24.8466 19.6175 25.1565 19.3075 25.5389 19.3075H26.4619C26.8443 19.3075 27.1542 19.6175 27.1542 19.9998C27.1542 20.3821 26.8443 20.6921 26.4619 20.6921Z" fill="#F9A804"/>
</svg>
