<svg width="40" height="40" viewBox="0 0 40 40" fill="none" xmlns="http://www.w3.org/2000/svg">
<circle cx="20" cy="20" r="20" fill="#E6FFE6"/>
<path d="M21.6324 22.639C21.5428 22.5484 21.4294 22.4807 21.3122 22.4242C21.0571 22.3014 20.778 22.2269 20.501 22.1597V24.1414C20.9507 24.0945 21.467 23.9438 21.7031 23.5563C21.8158 23.3712 21.8382 23.1438 21.7923 22.9377C21.7674 22.826 21.716 22.7235 21.6324 22.639Z" fill="#03BF4E"/>
<path d="M21.7012 23.5603C21.7021 23.5587 21.7026 23.5578 21.7035 23.5562C21.7028 23.5575 21.702 23.5589 21.7012 23.5603Z" fill="#03BF4E"/>
<path d="M18.3921 19.4713C18.3148 19.5756 18.2663 19.6939 18.2529 19.8198C18.2395 19.9459 18.247 20.0862 18.2989 20.2049C18.3483 20.318 18.4518 20.4015 18.5587 20.4687C18.6786 20.544 18.8104 20.6028 18.9447 20.6526C19.0574 20.6945 19.1841 20.7345 19.3207 20.7732V18.98C18.9756 19.048 18.5986 19.1931 18.3921 19.4713Z" fill="#03BF4E"/>
<path d="M21.712 23.5415C21.7092 23.5461 21.7061 23.551 21.7031 23.5561C21.7066 23.5502 21.7094 23.5458 21.712 23.5415Z" fill="#03BF4E"/>
<path d="M21.7236 23.5231C21.7244 23.5217 21.7245 23.5216 21.7236 23.5231V23.5231Z" fill="#03BF4E"/>
<path d="M21.2576 12.7432C23.0834 11.3275 24.3033 8.13803 23.5525 7.99853C22.555 7.81311 20.3888 8.62617 19.3418 8.76942C17.8568 8.93493 16.2394 7.28296 15.3315 8.20377C14.5934 8.95245 15.8607 11.6752 17.8436 12.8613C11.9279 15.5451 3.61299 29.0181 18.1187 29.9957C38.1899 31.3484 28.1396 15.3585 21.2576 12.7432ZM22.9814 23.3686C22.9196 23.8939 22.6181 24.3689 22.1673 24.6914C21.6914 25.0319 21.0944 25.1902 20.5012 25.2346V25.8149C20.5012 25.9702 20.4278 26.1204 20.3018 26.2232C20.1287 26.3646 19.8744 26.3995 19.6643 26.3101C19.4569 26.222 19.3206 26.0257 19.3206 25.8149V25.1806C19.2189 25.1628 19.1179 25.1416 19.0181 25.1163C18.4638 24.9757 17.9496 24.7017 17.574 24.2962C17.3869 24.0941 17.2344 23.8648 17.1289 23.6172C17.1013 23.5525 17.0768 23.4866 17.0552 23.42C17.0358 23.3597 17.0157 23.2984 17.0087 23.2355C16.997 23.1301 17.0197 23.0225 17.0729 22.9285C17.1824 22.7353 17.413 22.6186 17.6485 22.638C17.8803 22.657 18.0834 22.8054 18.1564 23.0094C18.1788 23.0722 18.1941 23.1365 18.2193 23.1987C18.2443 23.2604 18.2746 23.3204 18.3101 23.3775C18.3802 23.49 18.4681 23.5938 18.5693 23.6838C18.7779 23.8693 19.0436 23.9899 19.3206 24.0616V21.9055C18.779 21.776 18.2199 21.6088 17.7726 21.2878C17.5553 21.1318 17.3708 20.9378 17.25 20.7083C17.1226 20.4661 17.0698 20.1962 17.0676 19.9281C17.0654 19.656 17.1214 19.3862 17.2444 19.1382C17.3596 18.9061 17.5255 18.6976 17.7289 18.5248C18.1637 18.1553 18.7413 17.9493 19.3207 17.8736V17.8261V17.2711C19.3207 17.1159 19.3941 16.9656 19.5201 16.8628C19.6932 16.7215 19.9475 16.6866 20.1576 16.7759C20.365 16.8641 20.5013 17.0604 20.5013 17.2711V17.8261V17.8703C20.5785 17.8793 20.6555 17.89 20.732 17.9028C21.301 17.9979 21.8574 18.2147 22.2734 18.5933C22.4705 18.7727 22.6319 18.9863 22.7453 19.2193C22.777 19.2844 22.8047 19.3509 22.8287 19.4187C22.8511 19.4819 22.8736 19.547 22.8842 19.613C22.9013 19.7184 22.8839 19.8272 22.8351 19.9236C22.735 20.1211 22.5106 20.2468 22.2744 20.2375C22.0424 20.2282 21.8323 20.0887 21.7492 19.8885C21.7245 19.829 21.7121 19.766 21.6868 19.7066C21.6614 19.6465 21.6284 19.5892 21.5904 19.535C21.5165 19.4297 21.4208 19.3394 21.3115 19.265C21.0749 19.1037 20.7879 19.0197 20.5011 18.9727V21.0361C20.8419 21.1114 21.183 21.1936 21.5096 21.3124C22.0031 21.4921 22.4707 21.7675 22.7401 22.2019C22.6983 22.1342 22.6577 22.0683 22.7415 22.2041C22.8239 22.3376 22.7846 22.274 22.7432 22.2071C22.9575 22.5557 23.028 22.9726 22.9814 23.3686Z" fill="#03BF4E"/>
<path d="M21.6944 23.5703C21.6909 23.576 21.6879 23.581 21.6855 23.5848C21.6876 23.5815 21.6906 23.5766 21.6944 23.5703Z" fill="#03BF4E"/>
</svg>
