<svg width="81" height="80" viewBox="0 0 81 80" fill="none" xmlns="http://www.w3.org/2000/svg">
<g clip-path="url(#clip0_6925_2281)">
<path d="M40.6265 80C62.7179 80 80.6265 62.0914 80.6265 40C80.6265 17.9086 62.7179 0 40.6265 0C18.5351 0 0.626465 17.9086 0.626465 40C0.626465 62.0914 18.5351 80 40.6265 80Z" fill="#03BF4E"/>
<path d="M29.9597 58.0694L50.5275 78.6372C67.5622 74.0946 80.1805 58.5741 80.1805 40.0252C80.1805 39.6467 80.1805 39.2681 80.1805 38.8896L64.0291 24L29.9597 58.0694Z" fill="#209E36"/>
<path d="M41.5309 48.9588C43.2975 50.7253 43.2975 53.7537 41.5309 55.5203L37.8716 59.1796C36.1051 60.9461 33.0767 60.9461 31.3101 59.1796L15.2849 43.0282C13.5183 41.2616 13.5183 38.2332 15.2849 36.4666L18.9442 32.8073C20.7108 31.0408 23.7391 31.0408 25.5057 32.8073L41.5309 48.9588Z" fill="white"/>
<path d="M55.5373 21.0725C57.3039 19.3059 60.3323 19.3059 62.0988 21.0725L65.7582 24.7318C67.5247 26.4983 67.5247 29.5267 65.7582 31.2933L37.9979 58.9274C36.2313 60.6939 33.2029 60.6939 31.4364 58.9274L27.7771 55.2681C26.0105 53.5015 26.0105 50.4731 27.7771 48.7065L55.5373 21.0725Z" fill="white"/>
</g>
<defs>
<clipPath id="clip0_6925_2281">
<rect width="80" height="80" fill="white" transform="translate(0.626465)"/>
</clipPath>
</defs>
</svg>
