<svg width="20" height="20" viewBox="0 0 20 20" fill="none" xmlns="http://www.w3.org/2000/svg">
<path d="M10 20C11.9778 20 13.9112 19.4135 15.5557 18.3147C17.2002 17.2159 18.4819 15.654 19.2388 13.8268C19.9957 11.9995 20.1937 9.98889 19.8079 8.04908C19.422 6.10927 18.4696 4.32748 17.0711 2.92896C15.6726 1.53043 13.8907 0.577995 11.9509 0.192143C10.0111 -0.193709 8.00042 0.00435829 6.17316 0.761235C4.3459 1.51811 2.78412 2.79985 1.6853 4.44434C0.586489 6.08883 0 8.02219 0 10C0 12.6522 1.05356 15.1957 2.92892 17.071C4.80429 18.9464 7.34784 20 10 20Z" fill="#FFECEC"/>
<path d="M13 7L7 13" stroke="#BF0C26" stroke-linecap="round" stroke-linejoin="round"/>
<path d="M7 7L13 13" stroke="#BF0C26" stroke-linecap="round" stroke-linejoin="round"/>
</svg>
