<svg width="105" height="114" viewBox="0 0 105 114" fill="none" xmlns="http://www.w3.org/2000/svg">
<rect width="105" height="100" rx="10" fill="#E2E2E2"/>
<path d="M56.384 88.333H49.6173C48.824 88.333 47.704 88.7997 47.144 89.3597L42.3607 94.143C41.8007 94.703 41.334 95.823 41.334 96.6163V103.383C41.334 104.176 41.8007 105.296 42.3607 105.856L47.144 110.64C47.704 111.2 48.824 111.666 49.6173 111.666H56.384C57.1773 111.666 58.2973 111.2 58.8573 110.64L63.6406 105.856C64.2006 105.296 64.6673 104.176 64.6673 103.383V96.6163C64.6673 95.823 64.2006 94.703 63.6406 94.143L58.8573 89.3597C58.2973 88.7997 57.1773 88.333 56.384 88.333Z" fill="#F13C23" stroke="white" stroke-width="2" stroke-linecap="round" stroke-linejoin="round"/>
<path d="M48.916 104.084L57.0827 95.917" stroke="white" stroke-linecap="round" stroke-linejoin="round"/>
<path d="M57.0827 104.084L48.916 95.917" stroke="white" stroke-linecap="round" stroke-linejoin="round"/>
<path d="M13 34.7333C13 31.5669 15.5584 29 18.7143 29H87.2857C90.4416 29 93 31.5669 93 34.7333V66.2667C93 69.4331 90.4416 72 87.2857 72H18.7143C15.5584 72 13 69.4331 13 66.2667V34.7333Z" fill="white"/>
<path d="M16 40.6364C16 37.5235 18.5235 35 21.6364 35H41.3636C44.4765 35 47 37.5235 47 40.6364V60.3636C47 63.4765 44.4765 66 41.3636 66H21.6364C18.5235 66 16 63.4765 16 60.3636V40.6364Z" fill="#5A4099"/>
<path d="M53 37.6471C53 36.1851 54.2617 35 55.8182 35H81.1818C82.7383 35 84 36.1851 84 37.6471V41.3529C84 42.8149 82.7383 44 81.1818 44H55.8182C54.2617 44 53 42.8149 53 41.3529V37.6471Z" fill="#5A4099"/>
<path d="M53 50.9167C53 49.3058 54.2628 48 55.8205 48H72.1795C73.7372 48 75 49.3058 75 50.9167V52.0833C75 53.6942 73.7372 55 72.1795 55H55.8205C54.2628 55 53 53.6942 53 52.0833V50.9167Z" fill="#5A4099"/>
<path d="M53 61.6923C53 60.2054 54.2851 59 55.8704 59H81.1296C82.7149 59 84 60.2054 84 61.6923V63.3077C84 64.7946 82.7149 66 81.1296 66H55.8704C54.2851 66 53 64.7946 53 63.3077V61.6923Z" fill="#5A4099"/>
<path opacity="0.6" d="M13 34.7333C13 31.5669 15.5584 29 18.7143 29H87.2857C90.4416 29 93 31.5669 93 34.7333V66.2667C93 69.4331 90.4416 72 87.2857 72H18.7143C15.5584 72 13 69.4331 13 66.2667V34.7333Z" fill="white"/>
</svg>
