<svg width="105" height="114" viewBox="0 0 105 114" fill="none" xmlns="http://www.w3.org/2000/svg">
<rect width="105" height="100" rx="10" fill="#E2E2E2"/>
<path d="M56.384 88.333H49.6173C48.824 88.333 47.704 88.7997 47.144 89.3597L42.3607 94.143C41.8007 94.703 41.334 95.823 41.334 96.6163V103.383C41.334 104.176 41.8007 105.296 42.3607 105.856L47.144 110.64C47.704 111.2 48.824 111.666 49.6173 111.666H56.384C57.1773 111.666 58.2973 111.2 58.8573 110.64L63.6406 105.856C64.2006 105.296 64.6673 104.176 64.6673 103.383V96.6163C64.6673 95.823 64.2006 94.703 63.6406 94.143L58.8573 89.3597C58.2973 88.7997 57.1773 88.333 56.384 88.333Z" fill="#F13C23" stroke="white" stroke-width="2" stroke-linecap="round" stroke-linejoin="round"/>
<path d="M48.916 104.084L57.0827 95.917" stroke="white" stroke-linecap="round" stroke-linejoin="round"/>
<path d="M57.0827 104.084L48.916 95.917" stroke="white" stroke-linecap="round" stroke-linejoin="round"/>
<g clip-path="url(#clip0_646_20419)">
<path d="M24.5086 18.709C25.7875 16.4939 28.6139 15.7315 30.8216 17.0062L78.7906 44.7011C80.9983 45.9757 81.7513 48.8046 80.4724 51.0197L67.7366 73.0788C66.4577 75.2938 63.6313 76.0562 61.4236 74.7816L13.4546 47.0867C11.2469 45.8121 10.4939 42.9831 11.7728 40.768L24.5086 18.709Z" fill="white"/>
<path d="M24.2216 24.0474C25.4789 21.8698 28.2633 21.1237 30.441 22.3809L44.2411 30.3485C46.4187 31.6057 47.1648 34.3902 45.9076 36.5678L37.9401 50.368C36.6828 52.5456 33.8983 53.2917 31.7207 52.0344L17.9205 44.0669C15.7429 42.8097 14.9968 40.0252 16.2541 37.8476L24.2216 24.0474Z" fill="#5A4099"/>
<path d="M51.3118 36.8996C51.9022 35.8769 53.2635 35.5574 54.3523 36.1861L72.0954 46.43C73.1842 47.0587 73.5882 48.3973 72.9977 49.42L71.501 52.0124C70.9105 53.0351 69.5492 53.3546 68.4604 52.726L50.7174 42.482C49.6286 41.8534 49.2246 40.5147 49.815 39.492L51.3118 36.8996Z" fill="#5A4099"/>
<path d="M45.9529 46.1819C46.6035 45.0551 48.0142 44.6516 49.1039 45.2808L60.5478 51.8879C61.6375 52.517 61.9935 53.9405 61.3429 55.0674L60.8717 55.8835C60.2211 57.0104 58.8103 57.4139 57.7206 56.7847L46.2768 50.1776C45.1871 49.5485 44.8311 48.1249 45.4817 46.9981L45.9529 46.1819Z" fill="#5A4099"/>
<path d="M41.6001 53.7213C42.2007 52.6811 43.5865 52.3569 44.6955 52.9972L62.3655 63.199C63.4745 63.8393 63.8866 65.2015 63.2861 66.2417L62.6337 67.3717C62.0331 68.4119 60.6473 68.7361 59.5383 68.0958L41.8683 57.894C40.7593 57.2538 40.3471 55.8915 40.9477 54.8513L41.6001 53.7213Z" fill="#5A4099"/>
</g>
<defs>
<clipPath id="clip0_646_20419">
<rect width="61" height="77" fill="white" transform="translate(22 11)"/>
</clipPath>
</defs>
</svg>
