<svg width="343" height="176" viewBox="0 0 343 176" fill="none" xmlns="http://www.w3.org/2000/svg">
<path d="M18.0443 171.126C17.0456 171.126 16.1916 170.921 15.4823 170.51C14.7729 170.099 14.2269 169.516 13.8443 168.76C13.4709 167.995 13.2843 167.094 13.2843 166.058C13.2843 165.022 13.4709 164.126 13.8443 163.37C14.2269 162.614 14.7729 162.031 15.4823 161.62C16.1916 161.209 17.0456 161.004 18.0443 161.004C18.5949 161.004 19.1223 161.079 19.6263 161.228C20.1396 161.377 20.5829 161.592 20.9563 161.872C21.1616 162.003 21.2783 162.161 21.3063 162.348C21.3436 162.525 21.3156 162.689 21.2223 162.838C21.1383 162.978 21.0123 163.071 20.8443 163.118C20.6763 163.165 20.4896 163.118 20.2843 162.978C19.9669 162.745 19.6216 162.572 19.2483 162.46C18.8843 162.348 18.4969 162.292 18.0863 162.292C17.0223 162.292 16.2103 162.619 15.6503 163.272C15.0903 163.925 14.8103 164.854 14.8103 166.058C14.8103 167.262 15.0903 168.195 15.6503 168.858C16.2103 169.511 17.0223 169.838 18.0863 169.838C18.4969 169.838 18.8889 169.782 19.2623 169.67C19.6449 169.558 20.0043 169.381 20.3403 169.138C20.5456 169.007 20.7276 168.965 20.8863 169.012C21.0449 169.049 21.1663 169.138 21.2503 169.278C21.3343 169.418 21.3623 169.577 21.3343 169.754C21.3063 169.922 21.2083 170.067 21.0403 170.188C20.6483 170.496 20.1909 170.729 19.6683 170.888C19.1549 171.047 18.6136 171.126 18.0443 171.126ZM23.7812 171.098C23.3332 171.098 23.1092 170.869 23.1092 170.412V161.718C23.1092 161.261 23.3332 161.032 23.7812 161.032C23.9772 161.032 24.1265 161.069 24.2292 161.144C24.3412 161.219 24.4439 161.34 24.5372 161.508L27.9812 167.948L31.4252 161.508C31.5185 161.34 31.6165 161.219 31.7192 161.144C31.8312 161.069 31.9805 161.032 32.1672 161.032C32.5965 161.032 32.8112 161.261 32.8112 161.718V170.412C32.8112 170.869 32.5965 171.098 32.1672 171.098C31.7285 171.098 31.5092 170.869 31.5092 170.412V163.776L28.5692 169.194C28.4945 169.334 28.4152 169.437 28.3312 169.502C28.2472 169.567 28.1305 169.6 27.9812 169.6C27.8225 169.6 27.6965 169.567 27.6032 169.502C27.5192 169.427 27.4399 169.325 27.3652 169.194L24.4252 163.79V170.412C24.4252 170.869 24.2105 171.098 23.7812 171.098ZM35.8258 171.098C35.3685 171.098 35.1398 170.865 35.1398 170.398V161.76C35.1398 161.527 35.1958 161.349 35.3078 161.228C35.4291 161.097 35.5878 161.032 35.7838 161.032C35.9518 161.032 36.0825 161.065 36.1758 161.13C36.2691 161.186 36.3718 161.293 36.4838 161.452L41.9018 168.592V161.718C41.9018 161.261 42.1258 161.032 42.5738 161.032C43.0218 161.032 43.2458 161.261 43.2458 161.718V170.412C43.2458 170.627 43.1898 170.795 43.0778 170.916C42.9751 171.037 42.8351 171.098 42.6578 171.098C42.4805 171.098 42.3405 171.065 42.2378 171C42.1351 170.935 42.0231 170.823 41.9018 170.664L36.4838 163.51V170.398C36.4838 170.865 36.2645 171.098 35.8258 171.098ZM46.3281 171C45.8054 171 45.5441 170.739 45.5441 170.216V161.914C45.5441 161.391 45.8054 161.13 46.3281 161.13H49.0301C50.6541 161.13 51.9048 161.555 52.7821 162.404C53.6688 163.253 54.1121 164.471 54.1121 166.058C54.1121 167.645 53.6688 168.867 52.7821 169.726C51.9048 170.575 50.6541 171 49.0301 171H46.3281ZM47.0001 169.782H48.9461C51.3821 169.782 52.6001 168.541 52.6001 166.058C52.6001 163.585 51.3821 162.348 48.9461 162.348H47.0001V169.782ZM63.2632 171.126C62.7498 171.126 62.2925 171.014 61.8912 170.79C61.4898 170.557 61.1865 170.244 60.9812 169.852V170.384C60.9812 170.86 60.7525 171.098 60.2952 171.098C59.8285 171.098 59.5952 170.86 59.5952 170.384V161.746C59.5952 161.27 59.8285 161.032 60.2952 161.032C60.7712 161.032 61.0092 161.27 61.0092 161.746V165.274C61.2145 164.901 61.5132 164.602 61.9052 164.378C62.3065 164.154 62.7592 164.042 63.2632 164.042C63.8698 164.042 64.3972 164.187 64.8452 164.476C65.3025 164.765 65.6525 165.176 65.8952 165.708C66.1472 166.231 66.2732 166.856 66.2732 167.584C66.2732 168.312 66.1472 168.942 65.8952 169.474C65.6525 170.006 65.3025 170.417 64.8452 170.706C64.3972 170.986 63.8698 171.126 63.2632 171.126ZM62.9132 170.034C63.5012 170.034 63.9678 169.824 64.3132 169.404C64.6678 168.984 64.8452 168.377 64.8452 167.584C64.8452 166.791 64.6678 166.189 64.3132 165.778C63.9678 165.358 63.5012 165.148 62.9132 165.148C62.3252 165.148 61.8538 165.358 61.4992 165.778C61.1538 166.189 60.9812 166.791 60.9812 167.584C60.9812 168.377 61.1538 168.984 61.4992 169.404C61.8538 169.824 62.3252 170.034 62.9132 170.034ZM68.5667 162.642C68.2867 162.642 68.0673 162.572 67.9087 162.432C67.7593 162.292 67.6847 162.096 67.6847 161.844C67.6847 161.312 67.9787 161.046 68.5667 161.046C69.1547 161.046 69.4487 161.312 69.4487 161.844C69.4487 162.376 69.1547 162.642 68.5667 162.642ZM68.5667 171.084C68.1 171.084 67.8667 170.827 67.8667 170.314V164.854C67.8667 164.35 68.1 164.098 68.5667 164.098C69.0427 164.098 69.2807 164.35 69.2807 164.854V170.314C69.2807 170.827 69.0427 171.084 68.5667 171.084ZM68.5667 173.786C68.044 173.786 67.7827 173.529 67.7827 173.016C67.7827 172.512 68.044 172.26 68.5667 172.26C69.0987 172.26 69.3647 172.512 69.3647 173.016C69.3647 173.529 69.0987 173.786 68.5667 173.786ZM75.6904 171.098C75.2237 171.098 74.9904 170.86 74.9904 170.384V164.784C74.9904 164.308 75.219 164.07 75.6764 164.07C76.1337 164.07 76.3624 164.308 76.3624 164.784V165.274C76.5677 164.882 76.8524 164.579 77.2164 164.364C77.5804 164.149 78.005 164.042 78.4904 164.042C79.5357 164.042 80.2124 164.499 80.5204 165.414C80.735 164.985 81.043 164.649 81.4444 164.406C81.8457 164.163 82.303 164.042 82.8164 164.042C84.347 164.042 85.1124 164.957 85.1124 166.786V170.384C85.1124 170.86 84.8744 171.098 84.3984 171.098C83.9317 171.098 83.6984 170.86 83.6984 170.384V166.856C83.6984 166.277 83.5957 165.853 83.3904 165.582C83.1944 165.311 82.8677 165.176 82.4104 165.176C81.897 165.176 81.491 165.358 81.1924 165.722C80.8937 166.077 80.7444 166.562 80.7444 167.178V170.384C80.7444 170.86 80.511 171.098 80.0444 171.098C79.5684 171.098 79.3304 170.86 79.3304 170.384V166.856C79.3304 166.277 79.2324 165.853 79.0364 165.582C78.8404 165.311 78.5137 165.176 78.0564 165.176C77.543 165.176 77.137 165.358 76.8384 165.722C76.549 166.077 76.4044 166.562 76.4044 167.178V170.384C76.4044 170.86 76.1664 171.098 75.6904 171.098ZM90.0573 171.126C89.3666 171.126 88.7693 170.981 88.2653 170.692C87.7613 170.403 87.3693 169.997 87.0893 169.474C86.8186 168.942 86.6833 168.312 86.6833 167.584C86.6833 166.856 86.8186 166.231 87.0893 165.708C87.3693 165.176 87.7613 164.765 88.2653 164.476C88.7693 164.187 89.3666 164.042 90.0573 164.042C90.7293 164.042 91.3173 164.187 91.8213 164.476C92.3253 164.765 92.7173 165.176 92.9973 165.708C93.2773 166.231 93.4173 166.856 93.4173 167.584C93.4173 168.312 93.2773 168.942 92.9973 169.474C92.7173 169.997 92.3253 170.403 91.8213 170.692C91.3173 170.981 90.7293 171.126 90.0573 171.126ZM90.0573 170.034C90.636 170.034 91.1026 169.824 91.4573 169.404C91.812 168.984 91.9893 168.377 91.9893 167.584C91.9893 166.791 91.812 166.189 91.4573 165.778C91.1026 165.358 90.636 165.148 90.0573 165.148C89.4693 165.148 88.998 165.358 88.6433 165.778C88.2886 166.189 88.1113 166.791 88.1113 167.584C88.1113 168.377 88.2886 168.984 88.6433 169.404C88.998 169.824 89.4693 170.034 90.0573 170.034ZM91.5973 164.966L90.8273 164.462V164.168C91.3873 164.168 91.7653 164.056 91.9613 163.832C92.1666 163.599 92.2693 163.263 92.2693 162.824C92.2693 162.488 92.4793 162.32 92.8993 162.32C93.31 162.32 93.5153 162.488 93.5153 162.824C93.5153 163.449 93.3426 163.953 92.9973 164.336C92.6613 164.709 92.1946 164.919 91.5973 164.966ZM89.5113 163.188L88.1113 161.102C88.0086 160.943 87.9806 160.794 88.0273 160.654C88.0833 160.505 88.1813 160.393 88.3213 160.318C88.4706 160.234 88.6246 160.206 88.7833 160.234C88.942 160.262 89.068 160.369 89.1613 160.556L90.2813 162.754C90.3653 162.922 90.3606 163.067 90.2673 163.188C90.174 163.309 90.048 163.379 89.8893 163.398C89.7306 163.407 89.6046 163.337 89.5113 163.188Z" fill="#181717"/>
<path d="M131.587 171.126C130.588 171.126 129.734 170.921 129.025 170.51C128.315 170.099 127.769 169.516 127.387 168.76C127.013 167.995 126.827 167.094 126.827 166.058C126.827 165.022 127.013 164.126 127.387 163.37C127.769 162.614 128.315 162.031 129.025 161.62C129.734 161.209 130.588 161.004 131.587 161.004C132.137 161.004 132.665 161.079 133.169 161.228C133.682 161.377 134.125 161.592 134.499 161.872C134.704 162.003 134.821 162.161 134.849 162.348C134.886 162.525 134.858 162.689 134.765 162.838C134.681 162.978 134.555 163.071 134.387 163.118C134.219 163.165 134.032 163.118 133.827 162.978C133.509 162.745 133.164 162.572 132.791 162.46C132.427 162.348 132.039 162.292 131.629 162.292C130.565 162.292 129.753 162.619 129.193 163.272C128.633 163.925 128.353 164.854 128.353 166.058C128.353 167.262 128.633 168.195 129.193 168.858C129.753 169.511 130.565 169.838 131.629 169.838C132.039 169.838 132.431 169.782 132.805 169.67C133.187 169.558 133.547 169.381 133.883 169.138C134.088 169.007 134.27 168.965 134.429 169.012C134.587 169.049 134.709 169.138 134.793 169.278C134.877 169.418 134.905 169.577 134.877 169.754C134.849 169.922 134.751 170.067 134.583 170.188C134.191 170.496 133.733 170.729 133.211 170.888C132.697 171.047 132.156 171.126 131.587 171.126ZM137.324 171.098C136.876 171.098 136.652 170.869 136.652 170.412V161.718C136.652 161.261 136.876 161.032 137.324 161.032C137.52 161.032 137.669 161.069 137.772 161.144C137.884 161.219 137.986 161.34 138.08 161.508L141.524 167.948L144.968 161.508C145.061 161.34 145.159 161.219 145.262 161.144C145.374 161.069 145.523 161.032 145.71 161.032C146.139 161.032 146.354 161.261 146.354 161.718V170.412C146.354 170.869 146.139 171.098 145.71 171.098C145.271 171.098 145.052 170.869 145.052 170.412V163.776L142.112 169.194C142.037 169.334 141.958 169.437 141.874 169.502C141.79 169.567 141.673 169.6 141.524 169.6C141.365 169.6 141.239 169.567 141.146 169.502C141.062 169.427 140.982 169.325 140.908 169.194L137.968 163.79V170.412C137.968 170.869 137.753 171.098 137.324 171.098ZM149.368 171.098C148.911 171.098 148.682 170.865 148.682 170.398V161.76C148.682 161.527 148.738 161.349 148.85 161.228C148.971 161.097 149.13 161.032 149.326 161.032C149.494 161.032 149.625 161.065 149.718 161.13C149.811 161.186 149.914 161.293 150.026 161.452L155.444 168.592V161.718C155.444 161.261 155.668 161.032 156.116 161.032C156.564 161.032 156.788 161.261 156.788 161.718V170.412C156.788 170.627 156.732 170.795 156.62 170.916C156.517 171.037 156.377 171.098 156.2 171.098C156.023 171.098 155.883 171.065 155.78 171C155.677 170.935 155.565 170.823 155.444 170.664L150.026 163.51V170.398C150.026 170.865 149.807 171.098 149.368 171.098ZM159.87 171C159.348 171 159.086 170.739 159.086 170.216V161.914C159.086 161.391 159.348 161.13 159.87 161.13H162.572C164.196 161.13 165.447 161.555 166.324 162.404C167.211 163.253 167.654 164.471 167.654 166.058C167.654 167.645 167.211 168.867 166.324 169.726C165.447 170.575 164.196 171 162.572 171H159.87ZM160.542 169.782H162.488C164.924 169.782 166.142 168.541 166.142 166.058C166.142 163.585 164.924 162.348 162.488 162.348H160.542V169.782ZM178.709 173.618C178.243 173.618 178.009 173.38 178.009 172.904V169.88C177.813 170.263 177.515 170.566 177.113 170.79C176.712 171.014 176.255 171.126 175.741 171.126C175.135 171.126 174.607 170.986 174.159 170.706C173.711 170.417 173.361 170.006 173.109 169.474C172.857 168.942 172.731 168.312 172.731 167.584C172.731 166.856 172.857 166.231 173.109 165.708C173.361 165.176 173.711 164.765 174.159 164.476C174.617 164.187 175.144 164.042 175.741 164.042C176.255 164.042 176.712 164.159 177.113 164.392C177.515 164.616 177.818 164.924 178.023 165.316V164.784C178.023 164.308 178.257 164.07 178.723 164.07C179.19 164.07 179.423 164.308 179.423 164.784V172.904C179.423 173.38 179.185 173.618 178.709 173.618ZM176.105 170.034C176.684 170.034 177.151 169.824 177.505 169.404C177.86 168.984 178.037 168.377 178.037 167.584C178.037 166.791 177.86 166.189 177.505 165.778C177.151 165.358 176.684 165.148 176.105 165.148C175.517 165.148 175.046 165.358 174.691 165.778C174.337 166.189 174.159 166.791 174.159 167.584C174.159 168.377 174.337 168.984 174.691 169.404C175.046 169.824 175.517 170.034 176.105 170.034ZM183.845 171.126C182.193 171.126 181.367 170.207 181.367 168.368V164.784C181.367 164.308 181.6 164.07 182.067 164.07C182.543 164.07 182.781 164.308 182.781 164.784V168.382C182.781 168.933 182.893 169.339 183.117 169.6C183.341 169.861 183.696 169.992 184.181 169.992C184.713 169.992 185.142 169.815 185.469 169.46C185.805 169.105 185.973 168.629 185.973 168.032V164.784C185.973 164.308 186.211 164.07 186.687 164.07C187.154 164.07 187.387 164.308 187.387 164.784V170.384C187.387 170.86 187.158 171.098 186.701 171.098C186.244 171.098 186.015 170.86 186.015 170.384V169.908C185.791 170.309 185.492 170.613 185.119 170.818C184.746 171.023 184.321 171.126 183.845 171.126ZM191.564 171.126C191.088 171.126 190.663 171.033 190.29 170.846C189.916 170.659 189.618 170.407 189.394 170.09C189.179 169.773 189.072 169.413 189.072 169.012C189.072 168.508 189.198 168.111 189.45 167.822C189.711 167.533 190.136 167.323 190.724 167.192C191.321 167.061 192.124 166.996 193.132 166.996H193.608V166.632C193.608 166.1 193.496 165.717 193.272 165.484C193.048 165.251 192.679 165.134 192.166 165.134C191.867 165.134 191.554 165.171 191.228 165.246C190.91 165.321 190.579 165.447 190.234 165.624C190.038 165.717 189.874 165.731 189.744 165.666C189.622 165.601 189.538 165.498 189.492 165.358C189.445 165.218 189.45 165.073 189.506 164.924C189.562 164.775 189.678 164.663 189.856 164.588C190.266 164.401 190.672 164.266 191.074 164.182C191.475 164.089 191.853 164.042 192.208 164.042C193.141 164.042 193.832 164.266 194.28 164.714C194.728 165.153 194.952 165.843 194.952 166.786V170.384C194.952 170.86 194.732 171.098 194.294 171.098C193.846 171.098 193.622 170.86 193.622 170.384V169.866C193.454 170.258 193.192 170.566 192.838 170.79C192.483 171.014 192.058 171.126 191.564 171.126ZM191.844 170.118C192.348 170.118 192.768 169.941 193.104 169.586C193.44 169.231 193.608 168.783 193.608 168.242V167.864H193.146C192.464 167.864 191.928 167.897 191.536 167.962C191.153 168.027 190.878 168.139 190.71 168.298C190.551 168.447 190.472 168.657 190.472 168.928C190.472 169.283 190.593 169.572 190.836 169.796C191.078 170.011 191.414 170.118 191.844 170.118ZM192.782 163.188C192.688 163.337 192.562 163.407 192.404 163.398C192.245 163.379 192.114 163.309 192.012 163.188C191.918 163.067 191.914 162.922 191.998 162.754L193.132 160.556C193.225 160.369 193.346 160.262 193.496 160.234C193.654 160.206 193.804 160.234 193.944 160.318C194.093 160.393 194.196 160.505 194.252 160.654C194.308 160.794 194.28 160.943 194.168 161.102L192.782 163.188ZM203.503 171.126C202.644 171.126 202.005 170.907 201.585 170.468C201.165 170.029 200.955 169.395 200.955 168.564V165.26H200.115C199.723 165.26 199.527 165.078 199.527 164.714C199.527 164.35 199.723 164.168 200.115 164.168H200.955V162.726C200.955 162.25 201.193 162.012 201.669 162.012C202.135 162.012 202.369 162.25 202.369 162.726V164.168H204.007C204.399 164.168 204.595 164.35 204.595 164.714C204.595 165.078 204.399 165.26 204.007 165.26H202.369V168.452C202.369 168.947 202.471 169.32 202.677 169.572C202.891 169.824 203.237 169.95 203.713 169.95C203.881 169.95 204.025 169.936 204.147 169.908C204.268 169.871 204.375 169.847 204.469 169.838C204.571 169.838 204.655 169.875 204.721 169.95C204.786 170.015 204.819 170.146 204.819 170.342C204.819 170.491 204.791 170.627 204.735 170.748C204.688 170.86 204.599 170.935 204.469 170.972C204.357 171.019 204.203 171.056 204.007 171.084C203.82 171.112 203.652 171.126 203.503 171.126ZM208.604 171.126C207.913 171.126 207.316 170.981 206.812 170.692C206.308 170.403 205.916 169.997 205.636 169.474C205.365 168.942 205.23 168.312 205.23 167.584C205.23 166.856 205.365 166.231 205.636 165.708C205.916 165.176 206.308 164.765 206.812 164.476C207.316 164.187 207.913 164.042 208.604 164.042C209.276 164.042 209.864 164.187 210.368 164.476C210.872 164.765 211.264 165.176 211.544 165.708C211.824 166.231 211.964 166.856 211.964 167.584C211.964 168.312 211.824 168.942 211.544 169.474C211.264 169.997 210.872 170.403 210.368 170.692C209.864 170.981 209.276 171.126 208.604 171.126ZM208.604 170.034C209.182 170.034 209.649 169.824 210.004 169.404C210.358 168.984 210.536 168.377 210.536 167.584C210.536 166.791 210.358 166.189 210.004 165.778C209.649 165.358 209.182 165.148 208.604 165.148C208.016 165.148 207.544 165.358 207.19 165.778C206.835 166.189 206.658 166.791 206.658 167.584C206.658 168.377 206.835 168.984 207.19 169.404C207.544 169.824 208.016 170.034 208.604 170.034ZM210.802 161.872C210.708 161.993 210.596 162.049 210.466 162.04C210.344 162.021 210.251 161.956 210.186 161.844C210.12 161.732 210.13 161.597 210.214 161.438L211.138 159.828C211.231 159.669 211.343 159.581 211.474 159.562C211.614 159.534 211.74 159.557 211.852 159.632C211.973 159.697 212.052 159.795 212.09 159.926C212.127 160.057 212.09 160.192 211.978 160.332L210.802 161.872ZM207.414 163.216C207.283 163.356 207.148 163.417 207.008 163.398C206.868 163.379 206.765 163.314 206.7 163.202C206.634 163.081 206.653 162.941 206.756 162.782L207.764 161.284C207.876 161.116 208.002 160.999 208.142 160.934C208.282 160.859 208.436 160.822 208.604 160.822C208.772 160.822 208.926 160.859 209.066 160.934C209.206 160.999 209.332 161.116 209.444 161.284L210.452 162.782C210.554 162.941 210.573 163.081 210.508 163.202C210.452 163.314 210.354 163.379 210.214 163.398C210.074 163.417 209.938 163.356 209.808 163.216L208.604 161.816L207.414 163.216ZM214.252 162.642C213.972 162.642 213.752 162.572 213.594 162.432C213.444 162.292 213.37 162.096 213.37 161.844C213.37 161.312 213.664 161.046 214.252 161.046C214.84 161.046 215.134 161.312 215.134 161.844C215.134 162.376 214.84 162.642 214.252 162.642ZM214.252 171.084C213.785 171.084 213.552 170.827 213.552 170.314V164.854C213.552 164.35 213.785 164.098 214.252 164.098C214.728 164.098 214.966 164.35 214.966 164.854V170.314C214.966 170.827 214.728 171.084 214.252 171.084Z" fill="#181717"/>
<path d="M249.454 171.126C248.456 171.126 247.602 170.921 246.892 170.51C246.183 170.099 245.637 169.516 245.254 168.76C244.881 167.995 244.694 167.094 244.694 166.058C244.694 165.022 244.881 164.126 245.254 163.37C245.637 162.614 246.183 162.031 246.892 161.62C247.602 161.209 248.456 161.004 249.454 161.004C250.005 161.004 250.532 161.079 251.036 161.228C251.55 161.377 251.993 161.592 252.366 161.872C252.572 162.003 252.688 162.161 252.716 162.348C252.754 162.525 252.726 162.689 252.632 162.838C252.548 162.978 252.422 163.071 252.254 163.118C252.086 163.165 251.9 163.118 251.694 162.978C251.377 162.745 251.032 162.572 250.658 162.46C250.294 162.348 249.907 162.292 249.496 162.292C248.432 162.292 247.62 162.619 247.06 163.272C246.5 163.925 246.22 164.854 246.22 166.058C246.22 167.262 246.5 168.195 247.06 168.858C247.62 169.511 248.432 169.838 249.496 169.838C249.907 169.838 250.299 169.782 250.672 169.67C251.055 169.558 251.414 169.381 251.75 169.138C251.956 169.007 252.138 168.965 252.296 169.012C252.455 169.049 252.576 169.138 252.66 169.278C252.744 169.418 252.772 169.577 252.744 169.754C252.716 169.922 252.618 170.067 252.45 170.188C252.058 170.496 251.601 170.729 251.078 170.888C250.565 171.047 250.024 171.126 249.454 171.126ZM255.191 171.098C254.743 171.098 254.519 170.869 254.519 170.412V161.718C254.519 161.261 254.743 161.032 255.191 161.032C255.387 161.032 255.536 161.069 255.639 161.144C255.751 161.219 255.854 161.34 255.947 161.508L259.391 167.948L262.835 161.508C262.928 161.34 263.026 161.219 263.129 161.144C263.241 161.069 263.39 161.032 263.577 161.032C264.006 161.032 264.221 161.261 264.221 161.718V170.412C264.221 170.869 264.006 171.098 263.577 171.098C263.138 171.098 262.919 170.869 262.919 170.412V163.776L259.979 169.194C259.904 169.334 259.825 169.437 259.741 169.502C259.657 169.567 259.54 169.6 259.391 169.6C259.232 169.6 259.106 169.567 259.013 169.502C258.929 169.427 258.85 169.325 258.775 169.194L255.835 163.79V170.412C255.835 170.869 255.62 171.098 255.191 171.098ZM267.236 171.098C266.778 171.098 266.55 170.865 266.55 170.398V161.76C266.55 161.527 266.606 161.349 266.718 161.228C266.839 161.097 266.998 161.032 267.194 161.032C267.362 161.032 267.492 161.065 267.586 161.13C267.679 161.186 267.782 161.293 267.894 161.452L273.312 168.592V161.718C273.312 161.261 273.536 161.032 273.984 161.032C274.432 161.032 274.656 161.261 274.656 161.718V170.412C274.656 170.627 274.6 170.795 274.488 170.916C274.385 171.037 274.245 171.098 274.068 171.098C273.89 171.098 273.75 171.065 273.648 171C273.545 170.935 273.433 170.823 273.312 170.664L267.894 163.51V170.398C267.894 170.865 267.674 171.098 267.236 171.098ZM277.738 171C277.215 171 276.954 170.739 276.954 170.216V161.914C276.954 161.391 277.215 161.13 277.738 161.13H280.44C282.064 161.13 283.315 161.555 284.192 162.404C285.079 163.253 285.522 164.471 285.522 166.058C285.522 167.645 285.079 168.867 284.192 169.726C283.315 170.575 282.064 171 280.44 171H277.738ZM278.41 169.782H280.356C282.792 169.782 284.01 168.541 284.01 166.058C284.01 163.585 282.792 162.348 280.356 162.348H278.41V169.782ZM294.015 171.126C293.315 171.126 292.708 170.981 292.195 170.692C291.691 170.393 291.299 169.978 291.019 169.446C290.739 168.905 290.599 168.27 290.599 167.542C290.599 166.459 290.907 165.605 291.523 164.98C292.139 164.355 292.97 164.042 294.015 164.042C294.342 164.042 294.682 164.093 295.037 164.196C295.401 164.289 295.737 164.448 296.045 164.672C296.194 164.765 296.278 164.887 296.297 165.036C296.325 165.176 296.302 165.311 296.227 165.442C296.162 165.563 296.064 165.647 295.933 165.694C295.802 165.731 295.653 165.703 295.485 165.61C295.261 165.451 295.032 165.339 294.799 165.274C294.566 165.199 294.342 165.162 294.127 165.162C293.464 165.162 292.951 165.372 292.587 165.792C292.232 166.203 292.055 166.791 292.055 167.556C292.055 168.321 292.232 168.923 292.587 169.362C292.951 169.791 293.464 170.006 294.127 170.006C294.342 170.006 294.561 169.973 294.785 169.908C295.018 169.843 295.252 169.731 295.485 169.572C295.653 169.479 295.798 169.455 295.919 169.502C296.05 169.549 296.143 169.637 296.199 169.768C296.264 169.889 296.283 170.025 296.255 170.174C296.236 170.314 296.152 170.431 296.003 170.524C295.704 170.739 295.378 170.893 295.023 170.986C294.678 171.079 294.342 171.126 294.015 171.126ZM299.724 171.126C299.248 171.126 298.824 171.033 298.45 170.846C298.077 170.659 297.778 170.407 297.554 170.09C297.34 169.773 297.232 169.413 297.232 169.012C297.232 168.508 297.358 168.111 297.61 167.822C297.872 167.533 298.296 167.323 298.884 167.192C299.482 167.061 300.284 166.996 301.292 166.996H301.768V166.632C301.768 166.1 301.656 165.717 301.432 165.484C301.208 165.251 300.84 165.134 300.326 165.134C300.028 165.134 299.715 165.171 299.388 165.246C299.071 165.321 298.74 165.447 298.394 165.624C298.198 165.717 298.035 165.731 297.904 165.666C297.783 165.601 297.699 165.498 297.652 165.358C297.606 165.218 297.61 165.073 297.666 164.924C297.722 164.775 297.839 164.663 298.016 164.588C298.427 164.401 298.833 164.266 299.234 164.182C299.636 164.089 300.014 164.042 300.368 164.042C301.302 164.042 301.992 164.266 302.44 164.714C302.888 165.153 303.112 165.843 303.112 166.786V170.384C303.112 170.86 302.893 171.098 302.454 171.098C302.006 171.098 301.782 170.86 301.782 170.384V169.866C301.614 170.258 301.353 170.566 300.998 170.79C300.644 171.014 300.219 171.126 299.724 171.126ZM300.004 170.118C300.508 170.118 300.928 169.941 301.264 169.586C301.6 169.231 301.768 168.783 301.768 168.242V167.864H301.306C300.625 167.864 300.088 167.897 299.696 167.962C299.314 168.027 299.038 168.139 298.87 168.298C298.712 168.447 298.632 168.657 298.632 168.928C298.632 169.283 298.754 169.572 298.996 169.796C299.239 170.011 299.575 170.118 300.004 170.118ZM300.76 161.634C300.648 161.765 300.522 161.821 300.382 161.802C300.242 161.783 300.135 161.718 300.06 161.606C299.986 161.485 299.995 161.349 300.088 161.2L300.928 159.772C301.031 159.604 301.157 159.511 301.306 159.492C301.456 159.464 301.596 159.492 301.726 159.576C301.857 159.651 301.941 159.758 301.978 159.898C302.016 160.038 301.969 160.187 301.838 160.346L300.76 161.634ZM300.396 163.3C299.808 163.3 299.318 163.146 298.926 162.838C298.534 162.521 298.287 162.101 298.184 161.578C298.147 161.419 298.156 161.298 298.212 161.214C298.268 161.121 298.352 161.065 298.464 161.046C298.586 161.037 298.679 161.055 298.744 161.102C298.819 161.149 298.88 161.242 298.926 161.382C299.001 161.709 299.164 161.97 299.416 162.166C299.668 162.362 299.995 162.46 300.396 162.46C300.798 162.46 301.124 162.362 301.376 162.166C301.628 161.97 301.792 161.709 301.866 161.382C301.913 161.242 301.974 161.149 302.048 161.102C302.123 161.055 302.216 161.037 302.328 161.046C302.44 161.065 302.524 161.121 302.58 161.214C302.636 161.307 302.646 161.429 302.608 161.578C302.506 162.101 302.258 162.521 301.866 162.838C301.474 163.146 300.984 163.3 300.396 163.3ZM307.972 171.126C307.113 171.126 306.474 170.907 306.054 170.468C305.634 170.029 305.424 169.395 305.424 168.564V165.26H304.584C304.192 165.26 303.996 165.078 303.996 164.714C303.996 164.35 304.192 164.168 304.584 164.168H305.424V162.726C305.424 162.25 305.662 162.012 306.138 162.012C306.604 162.012 306.838 162.25 306.838 162.726V164.168H308.476C308.868 164.168 309.064 164.35 309.064 164.714C309.064 165.078 308.868 165.26 308.476 165.26H306.838V168.452C306.838 168.947 306.94 169.32 307.146 169.572C307.36 169.824 307.706 169.95 308.182 169.95C308.35 169.95 308.494 169.936 308.616 169.908C308.737 169.871 308.844 169.847 308.938 169.838C309.04 169.838 309.124 169.875 309.19 169.95C309.255 170.015 309.288 170.146 309.288 170.342C309.288 170.491 309.26 170.627 309.204 170.748C309.157 170.86 309.068 170.935 308.938 170.972C308.826 171.019 308.672 171.056 308.476 171.084C308.289 171.112 308.121 171.126 307.972 171.126ZM316.958 173.646C316.454 173.646 315.964 173.595 315.488 173.492C315.022 173.389 314.597 173.221 314.214 172.988C314.046 172.895 313.944 172.778 313.906 172.638C313.869 172.498 313.883 172.363 313.948 172.232C314.023 172.101 314.121 172.003 314.242 171.938C314.373 171.882 314.513 171.896 314.662 171.98C315.073 172.204 315.46 172.353 315.824 172.428C316.198 172.512 316.543 172.554 316.86 172.554C318.167 172.554 318.82 171.901 318.82 170.594V169.516C318.624 169.927 318.316 170.249 317.896 170.482C317.486 170.715 317.024 170.832 316.51 170.832C315.894 170.832 315.358 170.692 314.9 170.412C314.443 170.123 314.088 169.726 313.836 169.222C313.584 168.709 313.458 168.111 313.458 167.43C313.458 166.758 313.584 166.17 313.836 165.666C314.088 165.153 314.443 164.756 314.9 164.476C315.358 164.187 315.894 164.042 316.51 164.042C317.024 164.042 317.481 164.159 317.882 164.392C318.293 164.616 318.596 164.924 318.792 165.316V164.784C318.792 164.308 319.026 164.07 319.492 164.07C319.959 164.07 320.192 164.308 320.192 164.784V170.426C320.192 171.499 319.917 172.302 319.366 172.834C318.816 173.375 318.013 173.646 316.958 173.646ZM316.846 169.726C317.444 169.726 317.92 169.521 318.274 169.11C318.629 168.699 318.806 168.139 318.806 167.43C318.806 166.721 318.629 166.165 318.274 165.764C317.92 165.353 317.444 165.148 316.846 165.148C316.249 165.148 315.773 165.353 315.418 165.764C315.064 166.165 314.886 166.721 314.886 167.43C314.886 168.139 315.064 168.699 315.418 169.11C315.773 169.521 316.249 169.726 316.846 169.726ZM325.145 171.126C324.454 171.126 323.857 170.981 323.353 170.692C322.849 170.403 322.457 169.997 322.177 169.474C321.906 168.942 321.771 168.312 321.771 167.584C321.771 166.856 321.906 166.231 322.177 165.708C322.457 165.176 322.849 164.765 323.353 164.476C323.857 164.187 324.454 164.042 325.145 164.042C325.817 164.042 326.405 164.187 326.909 164.476C327.413 164.765 327.805 165.176 328.085 165.708C328.365 166.231 328.505 166.856 328.505 167.584C328.505 168.312 328.365 168.942 328.085 169.474C327.805 169.997 327.413 170.403 326.909 170.692C326.405 170.981 325.817 171.126 325.145 171.126ZM325.145 170.034C325.724 170.034 326.19 169.824 326.545 169.404C326.9 168.984 327.077 168.377 327.077 167.584C327.077 166.791 326.9 166.189 326.545 165.778C326.19 165.358 325.724 165.148 325.145 165.148C324.557 165.148 324.086 165.358 323.731 165.778C323.376 166.189 323.199 166.791 323.199 167.584C323.199 168.377 323.376 168.984 323.731 169.404C324.086 169.824 324.557 170.034 325.145 170.034ZM325.691 163.188C325.598 163.337 325.472 163.407 325.313 163.398C325.154 163.379 325.024 163.309 324.921 163.188C324.828 163.067 324.823 162.922 324.907 162.754L326.041 160.556C326.134 160.369 326.256 160.262 326.405 160.234C326.564 160.206 326.713 160.234 326.853 160.318C327.002 160.393 327.105 160.505 327.161 160.654C327.217 160.794 327.189 160.943 327.077 161.102L325.691 163.188ZM333.103 171.126C332.403 171.126 331.796 170.981 331.283 170.692C330.779 170.393 330.387 169.978 330.107 169.446C329.827 168.905 329.687 168.27 329.687 167.542C329.687 166.459 329.995 165.605 330.611 164.98C331.227 164.355 332.058 164.042 333.103 164.042C333.43 164.042 333.77 164.093 334.125 164.196C334.489 164.289 334.825 164.448 335.133 164.672C335.282 164.765 335.366 164.887 335.385 165.036C335.413 165.176 335.39 165.311 335.315 165.442C335.25 165.563 335.152 165.647 335.021 165.694C334.89 165.731 334.741 165.703 334.573 165.61C334.349 165.451 334.12 165.339 333.887 165.274C333.654 165.199 333.43 165.162 333.215 165.162C332.552 165.162 332.039 165.372 331.675 165.792C331.32 166.203 331.143 166.791 331.143 167.556C331.143 168.321 331.32 168.923 331.675 169.362C332.039 169.791 332.552 170.006 333.215 170.006C333.43 170.006 333.649 169.973 333.873 169.908C334.106 169.843 334.34 169.731 334.573 169.572C334.741 169.479 334.886 169.455 335.007 169.502C335.138 169.549 335.231 169.637 335.287 169.768C335.352 169.889 335.371 170.025 335.343 170.174C335.324 170.314 335.24 170.431 335.091 170.524C334.792 170.739 334.466 170.893 334.111 170.986C333.766 171.079 333.43 171.126 333.103 171.126Z" fill="#181717"/>
<path d="M2.256 17.128C1.57333 17.128 1.232 16.776 1.232 16.072V6.632C1.232 5.93867 1.57333 5.592 2.256 5.592C2.93867 5.592 3.28 5.93867 3.28 6.632V10.712H3.312L7.904 6.104C8.07467 5.93333 8.24533 5.80533 8.416 5.72C8.58667 5.63467 8.77867 5.592 8.992 5.592C9.30133 5.592 9.52 5.672 9.648 5.832C9.78667 5.992 9.84 6.17867 9.808 6.392C9.78667 6.60533 9.68533 6.80267 9.504 6.984L5.296 11.144L9.728 15.64C9.952 15.8533 10.0693 16.0773 10.08 16.312C10.0907 16.5467 10.016 16.744 9.856 16.904C9.70667 17.0533 9.48267 17.128 9.184 17.128C8.928 17.128 8.72 17.0747 8.56 16.968C8.41067 16.8613 8.23467 16.7067 8.032 16.504L3.312 11.784H3.28V16.072C3.28 16.776 2.93867 17.128 2.256 17.128ZM13.0789 17.128C12.4175 17.128 12.0869 16.7867 12.0869 16.104V6.6C12.0869 5.928 12.4175 5.592 13.0789 5.592C13.7509 5.592 14.0869 5.928 14.0869 6.6V10.312C14.3535 9.88533 14.7109 9.56533 15.1589 9.352C15.6069 9.128 16.1029 9.016 16.6469 9.016C18.4922 9.016 19.4149 10.088 19.4149 12.232V16.104C19.4149 16.7867 19.0842 17.128 18.4229 17.128C17.7509 17.128 17.4149 16.7867 17.4149 16.104V12.328C17.4149 11.72 17.2975 11.2773 17.0629 11C16.8389 10.7227 16.4869 10.584 16.0069 10.584C15.4202 10.584 14.9509 10.7707 14.5989 11.144C14.2575 11.5067 14.0869 11.992 14.0869 12.6V16.104C14.0869 16.7867 13.7509 17.128 13.0789 17.128ZM25.0143 17.16C24.2036 17.16 23.4996 16.9947 22.9023 16.664C22.3049 16.3333 21.8409 15.864 21.5103 15.256C21.1796 14.6373 21.0143 13.912 21.0143 13.08C21.0143 12.248 21.1796 11.528 21.5103 10.92C21.8409 10.312 22.3049 9.84267 22.9023 9.512C23.4996 9.18133 24.2036 9.016 25.0143 9.016C25.8249 9.016 26.5289 9.18133 27.1263 9.512C27.7236 9.84267 28.1876 10.312 28.5183 10.92C28.8489 11.528 29.0143 12.248 29.0143 13.08C29.0143 13.912 28.8489 14.6373 28.5183 15.256C28.1876 15.864 27.7236 16.3333 27.1263 16.664C26.5289 16.9947 25.8249 17.16 25.0143 17.16ZM25.0143 15.64C25.6116 15.64 26.0916 15.4267 26.4543 15C26.8169 14.5627 26.9983 13.9227 26.9983 13.08C26.9983 12.2267 26.8169 11.592 26.4543 11.176C26.0916 10.7493 25.6116 10.536 25.0143 10.536C24.4169 10.536 23.9369 10.7493 23.5743 11.176C23.2116 11.592 23.0303 12.2267 23.0303 13.08C23.0303 13.9227 23.2116 14.5627 23.5743 15C23.9369 15.4267 24.4169 15.64 25.0143 15.64ZM27.2863 7.448C27.3823 7.61867 27.4036 7.77333 27.3503 7.912C27.2969 8.05067 27.2063 8.15733 27.0783 8.232C26.9503 8.296 26.8116 8.31733 26.6623 8.296C26.5236 8.27467 26.4063 8.18933 26.3103 8.04L25.0143 6.024L23.7183 8.04C23.6223 8.18933 23.4996 8.27467 23.3503 8.296C23.2116 8.31733 23.0783 8.296 22.9503 8.232C22.8223 8.15733 22.7316 8.05067 22.6783 7.912C22.6249 7.77333 22.6463 7.61867 22.7423 7.448L23.8943 5.336C24.1503 4.856 24.5236 4.616 25.0143 4.616C25.5156 4.616 25.8943 4.856 26.1503 5.336L27.2863 7.448ZM31.657 17.128C30.9957 17.128 30.665 16.7867 30.665 16.104V10.056C30.665 9.384 30.9903 9.048 31.641 9.048C32.2917 9.048 32.617 9.384 32.617 10.056V10.392C32.8837 9.944 33.241 9.60267 33.689 9.368C34.1477 9.13333 34.6597 9.016 35.225 9.016C37.0703 9.016 37.993 10.088 37.993 12.232V16.104C37.993 16.7867 37.6623 17.128 37.001 17.128C36.329 17.128 35.993 16.7867 35.993 16.104V12.328C35.993 11.72 35.8757 11.2773 35.641 11C35.417 10.7227 35.065 10.584 34.585 10.584C33.9983 10.584 33.529 10.7707 33.177 11.144C32.8357 11.5067 32.665 11.992 32.665 12.6V16.104C32.665 16.7867 32.329 17.128 31.657 17.128ZM43.6724 20.04C43.0964 20.04 42.5364 19.9867 41.9924 19.88C41.459 19.7733 40.9737 19.608 40.5364 19.384C40.2804 19.256 40.1257 19.0907 40.0724 18.888C40.0297 18.696 40.051 18.5093 40.1364 18.328C40.2217 18.1467 40.3497 18.0133 40.5204 17.928C40.7017 17.8533 40.8937 17.864 41.0964 17.96C41.5657 18.1947 42.0084 18.344 42.4244 18.408C42.851 18.4827 43.2137 18.52 43.5124 18.52C44.9417 18.52 45.6564 17.832 45.6564 16.456V15.384C45.4324 15.8213 45.0857 16.168 44.6164 16.424C44.1577 16.68 43.6457 16.808 43.0804 16.808C42.3764 16.808 41.763 16.648 41.2404 16.328C40.7177 15.9973 40.3124 15.5387 40.0244 14.952C39.7364 14.3653 39.5924 13.6827 39.5924 12.904C39.5924 12.1253 39.7364 11.448 40.0244 10.872C40.3124 10.2853 40.7177 9.832 41.2404 9.512C41.763 9.18133 42.3764 9.016 43.0804 9.016C43.6457 9.016 44.1577 9.13867 44.6164 9.384C45.075 9.62933 45.411 9.96533 45.6244 10.392V10.056C45.6244 9.72533 45.7097 9.47467 45.8804 9.304C46.0617 9.13333 46.307 9.048 46.6164 9.048C47.2777 9.048 47.6084 9.384 47.6084 10.056V16.216C47.6084 17.4853 47.2724 18.44 46.6004 19.08C45.9284 19.72 44.9524 20.04 43.6724 20.04ZM43.6244 15.288C44.243 15.288 44.7337 15.0747 45.0964 14.648C45.459 14.2213 45.6404 13.64 45.6404 12.904C45.6404 12.168 45.459 11.592 45.0964 11.176C44.7337 10.7493 44.243 10.536 43.6244 10.536C43.0057 10.536 42.515 10.7493 42.1524 11.176C41.7897 11.592 41.6084 12.168 41.6084 12.904C41.6084 13.64 41.7897 14.2213 42.1524 14.648C42.515 15.0747 43.0057 15.288 43.6244 15.288ZM57.0484 17.16C56.3657 17.16 55.763 16.9947 55.2404 16.664C54.7284 16.3333 54.3284 15.864 54.0404 15.256C53.7524 14.6373 53.6084 13.912 53.6084 13.08C53.6084 12.2373 53.7524 11.5173 54.0404 10.92C54.3284 10.312 54.7284 9.84267 55.2404 9.512C55.763 9.18133 56.3657 9.016 57.0484 9.016C57.603 9.016 58.1044 9.13867 58.5524 9.384C59.0004 9.62933 59.3364 9.95467 59.5604 10.36V8.296H57.2084C56.707 8.296 56.4564 8.06133 56.4564 7.592C56.4564 7.12267 56.707 6.888 57.2084 6.888H59.5604V6.44C59.5604 6.19467 59.6457 5.992 59.8164 5.832C59.987 5.672 60.2324 5.592 60.5524 5.592C60.8724 5.592 61.1177 5.672 61.2884 5.832C61.4697 5.992 61.5604 6.19467 61.5604 6.44V6.888H62.2964C62.787 6.888 63.0324 7.12267 63.0324 7.592C63.0324 8.06133 62.787 8.296 62.2964 8.296H61.5604V16.104C61.5604 16.7867 61.2297 17.128 60.5684 17.128C59.907 17.128 59.5764 16.7867 59.5764 16.104V15.768C59.3524 16.1947 59.0164 16.536 58.5684 16.792C58.131 17.0373 57.6244 17.16 57.0484 17.16ZM57.6084 15.64C58.2057 15.64 58.6857 15.4267 59.0484 15C59.411 14.5627 59.5924 13.9227 59.5924 13.08C59.5924 12.2267 59.411 11.592 59.0484 11.176C58.6857 10.7493 58.2057 10.536 57.6084 10.536C57.011 10.536 56.531 10.7493 56.1684 11.176C55.8057 11.592 55.6244 12.2267 55.6244 13.08C55.6244 13.9227 55.8057 14.5627 56.1684 15C56.531 15.4267 57.011 15.64 57.6084 15.64ZM66.4501 17.16C64.5301 17.16 63.5701 16.0827 63.5701 13.928V10.056C63.5701 9.384 63.9008 9.048 64.5621 9.048C65.2341 9.048 65.5701 9.384 65.5701 10.056V13.96C65.5701 14.5147 65.6821 14.9253 65.9061 15.192C66.1301 15.4587 66.4875 15.592 66.9781 15.592C67.5115 15.592 67.9488 15.4107 68.2901 15.048C68.6315 14.6747 68.8021 14.184 68.8021 13.576V10.152C68.8021 9.82133 68.8875 9.58667 69.0581 9.448C69.2288 9.29867 69.4741 9.19733 69.7941 9.144C70.1461 9.08 70.4128 8.94667 70.5941 8.744C70.7755 8.54133 70.8661 8.21067 70.8661 7.752C70.8661 7.31467 71.1595 7.096 71.7461 7.096C72.3221 7.096 72.6101 7.30933 72.6101 7.736C72.6101 8.36533 72.4501 8.89333 72.1301 9.32C71.8101 9.74667 71.3675 10.024 70.8021 10.152V16.104C70.8021 16.7867 70.4768 17.128 69.8261 17.128C69.1755 17.128 68.8501 16.7867 68.8501 16.104V15.832C68.3275 16.7173 67.5275 17.16 66.4501 17.16ZM76.4518 17.16C75.6411 17.16 74.9371 16.9947 74.3398 16.664C73.7424 16.3333 73.2784 15.864 72.9478 15.256C72.6171 14.6373 72.4518 13.912 72.4518 13.08C72.4518 12.248 72.6171 11.528 72.9478 10.92C73.2784 10.312 73.7424 9.84267 74.3398 9.512C74.9371 9.18133 75.6411 9.016 76.4518 9.016C77.2624 9.016 77.9664 9.18133 78.5638 9.512C79.1611 9.84267 79.6251 10.312 79.9558 10.92C80.2864 11.528 80.4518 12.248 80.4518 13.08C80.4518 13.912 80.2864 14.6373 79.9558 15.256C79.6251 15.864 79.1611 16.3333 78.5638 16.664C77.9664 16.9947 77.2624 17.16 76.4518 17.16ZM76.4518 15.64C77.0491 15.64 77.5291 15.4267 77.8918 15C78.2544 14.5627 78.4358 13.9227 78.4358 13.08C78.4358 12.2267 78.2544 11.592 77.8918 11.176C77.5291 10.7493 77.0491 10.536 76.4518 10.536C75.8544 10.536 75.3744 10.7493 75.0118 11.176C74.6491 11.592 74.4678 12.2267 74.4678 13.08C74.4678 13.9227 74.6491 14.5627 75.0118 15C75.3744 15.4267 75.8544 15.64 76.4518 15.64ZM78.5318 10.2L77.3958 9.48V9.176C77.9931 9.16533 78.3984 9.04267 78.6118 8.808C78.8358 8.56267 78.9478 8.21067 78.9478 7.752C78.9478 7.31467 79.2411 7.096 79.8278 7.096C80.4038 7.096 80.6918 7.30933 80.6918 7.736C80.6918 8.42933 80.4944 9 80.0998 9.448C79.7158 9.88533 79.1931 10.136 78.5318 10.2ZM76.4518 20.344C75.7584 20.344 75.4118 20.008 75.4118 19.336C75.4118 18.6747 75.7584 18.344 76.4518 18.344C77.1558 18.344 77.5078 18.6747 77.5078 19.336C77.5078 20.008 77.1558 20.344 76.4518 20.344ZM85.7185 17.16C84.8972 17.16 84.1825 16.9947 83.5745 16.664C82.9665 16.3227 82.4972 15.8427 82.1665 15.224C81.8358 14.6053 81.6705 13.88 81.6705 13.048C81.6705 12.216 81.8358 11.5013 82.1665 10.904C82.4972 10.296 82.9665 9.832 83.5745 9.512C84.1825 9.18133 84.8972 9.016 85.7185 9.016C86.0705 9.016 86.4492 9.064 86.8545 9.16C87.2705 9.256 87.6598 9.416 88.0225 9.64C88.2358 9.768 88.3585 9.93333 88.3905 10.136C88.4332 10.3387 88.4065 10.5253 88.3105 10.696C88.2252 10.8667 88.0918 10.9893 87.9105 11.064C87.7398 11.1387 87.5425 11.112 87.3185 10.984C86.8278 10.7067 86.3532 10.568 85.8945 10.568C85.2012 10.568 84.6625 10.7867 84.2785 11.224C83.9052 11.6507 83.7185 12.264 83.7185 13.064C83.7185 13.8533 83.9052 14.4773 84.2785 14.936C84.6625 15.384 85.2012 15.608 85.8945 15.608C86.3532 15.608 86.8278 15.4747 87.3185 15.208C87.5425 15.08 87.7398 15.0533 87.9105 15.128C88.0812 15.2027 88.2038 15.3307 88.2785 15.512C88.3532 15.6827 88.3692 15.8693 88.3265 16.072C88.2838 16.264 88.1612 16.424 87.9585 16.552C87.6065 16.7653 87.2332 16.92 86.8385 17.016C86.4438 17.112 86.0705 17.16 85.7185 17.16ZM96.8571 17.16C96.3985 17.16 95.9131 17.112 95.4011 17.016C94.8891 16.92 94.4305 16.7547 94.0251 16.52C93.8011 16.392 93.6625 16.2373 93.6091 16.056C93.5558 15.864 93.5611 15.688 93.6251 15.528C93.6998 15.3573 93.8171 15.2347 93.9771 15.16C94.1478 15.0853 94.3451 15.1013 94.5691 15.208C94.9958 15.4107 95.3958 15.5547 95.7691 15.64C96.1425 15.7147 96.5105 15.752 96.8731 15.752C97.3851 15.752 97.7638 15.6667 98.0091 15.496C98.2651 15.3147 98.3931 15.08 98.3931 14.792C98.3931 14.344 98.0625 14.056 97.4011 13.928L95.8011 13.624C94.4465 13.368 93.7691 12.664 93.7691 11.512C93.7691 11 93.9078 10.5573 94.1851 10.184C94.4731 9.81067 94.8678 9.52267 95.3691 9.32C95.8705 9.11733 96.4465 9.016 97.0971 9.016C98.0358 9.016 98.8731 9.224 99.6091 9.64C99.8118 9.74667 99.9291 9.896 99.9611 10.088C100.004 10.2693 99.9825 10.4453 99.8971 10.616C99.8225 10.776 99.6998 10.8933 99.5291 10.968C99.3585 11.032 99.1611 11.0107 98.9371 10.904C98.6065 10.7333 98.2865 10.6107 97.9771 10.536C97.6785 10.4613 97.3905 10.424 97.1131 10.424C96.5905 10.424 96.2011 10.5147 95.9451 10.696C95.6998 10.8773 95.5771 11.1173 95.5771 11.416C95.5771 11.8853 95.8811 12.1733 96.4891 12.28L98.0891 12.584C98.7825 12.712 99.3051 12.9467 99.6571 13.288C100.02 13.6293 100.201 14.088 100.201 14.664C100.201 15.4427 99.8971 16.056 99.2891 16.504C98.6811 16.9413 97.8705 17.16 96.8571 17.16ZM104.638 17.16C102.718 17.16 101.758 16.0827 101.758 13.928V10.056C101.758 9.384 102.088 9.048 102.75 9.048C103.422 9.048 103.758 9.384 103.758 10.056V13.96C103.758 14.5147 103.87 14.9253 104.094 15.192C104.318 15.4587 104.675 15.592 105.166 15.592C105.699 15.592 106.136 15.4107 106.478 15.048C106.819 14.6747 106.99 14.184 106.99 13.576V10.152C106.99 9.82133 107.075 9.58667 107.246 9.448C107.416 9.29867 107.662 9.19733 107.982 9.144C108.334 9.08 108.6 8.94667 108.782 8.744C108.963 8.54133 109.054 8.21067 109.054 7.752C109.054 7.31467 109.347 7.096 109.934 7.096C110.51 7.096 110.798 7.30933 110.798 7.736C110.798 8.36533 110.638 8.89333 110.318 9.32C109.998 9.74667 109.555 10.024 108.99 10.152V16.104C108.99 16.7867 108.664 17.128 108.014 17.128C107.363 17.128 107.038 16.7867 107.038 16.104V15.832C106.515 16.7173 105.715 17.16 104.638 17.16ZM105.39 8.264C104.984 8.264 104.782 8.12 104.782 7.832C104.782 7.59733 104.824 7.40533 104.91 7.256C105.006 7.096 105.112 6.96267 105.23 6.856C105.347 6.73867 105.448 6.632 105.534 6.536C105.63 6.42933 105.678 6.30667 105.678 6.168C105.678 5.90133 105.464 5.768 105.038 5.768C104.952 5.768 104.862 5.77333 104.766 5.784C104.67 5.79467 104.568 5.816 104.462 5.848C104.28 5.90133 104.136 5.91733 104.03 5.896C103.934 5.864 103.859 5.77867 103.806 5.64C103.688 5.33067 103.8 5.10667 104.142 4.968C104.334 4.89333 104.542 4.84 104.766 4.808C105 4.776 105.24 4.76 105.486 4.76C106.019 4.76 106.435 4.86133 106.734 5.064C107.043 5.256 107.198 5.53867 107.198 5.912C107.198 6.17867 107.134 6.39733 107.006 6.568C106.888 6.728 106.75 6.86667 106.59 6.984C106.44 7.10133 106.302 7.22933 106.174 7.368C106.056 7.496 105.998 7.66133 105.998 7.864C105.998 8.13067 105.795 8.264 105.39 8.264ZM118.423 17.16C117.74 17.16 117.138 16.9947 116.615 16.664C116.103 16.3333 115.703 15.864 115.415 15.256C115.127 14.6373 114.983 13.912 114.983 13.08C114.983 12.2373 115.127 11.5173 115.415 10.92C115.703 10.312 116.103 9.84267 116.615 9.512C117.138 9.18133 117.74 9.016 118.423 9.016C118.978 9.016 119.479 9.13867 119.927 9.384C120.375 9.62933 120.711 9.95467 120.935 10.36V6.6C120.935 5.928 121.266 5.592 121.927 5.592C122.599 5.592 122.935 5.928 122.935 6.6V16.104C122.935 16.7867 122.604 17.128 121.943 17.128C121.282 17.128 120.951 16.7867 120.951 16.104V15.768C120.727 16.1947 120.391 16.536 119.943 16.792C119.495 17.0373 118.988 17.16 118.423 17.16ZM118.983 15.64C119.58 15.64 120.06 15.4267 120.423 15C120.786 14.5627 120.967 13.9227 120.967 13.08C120.967 12.2267 120.786 11.592 120.423 11.176C120.06 10.7493 119.58 10.536 118.983 10.536C118.386 10.536 117.906 10.7493 117.543 11.176C117.18 11.592 116.999 12.2267 116.999 13.08C116.999 13.9227 117.18 14.5627 117.543 15C117.906 15.4267 118.386 15.64 118.983 15.64ZM127.841 17.16C125.921 17.16 124.961 16.0827 124.961 13.928V10.056C124.961 9.384 125.291 9.048 125.953 9.048C126.625 9.048 126.961 9.384 126.961 10.056V13.96C126.961 14.5147 127.073 14.9253 127.297 15.192C127.521 15.4587 127.878 15.592 128.369 15.592C128.902 15.592 129.339 15.4107 129.681 15.048C130.022 14.6747 130.193 14.184 130.193 13.576V10.056C130.193 9.384 130.523 9.048 131.185 9.048C131.857 9.048 132.193 9.384 132.193 10.056V16.104C132.193 16.7867 131.867 17.128 131.217 17.128C130.566 17.128 130.241 16.7867 130.241 16.104V15.832C129.718 16.7173 128.918 17.16 127.841 17.16ZM128.593 20.344C127.899 20.344 127.553 20.008 127.553 19.336C127.553 18.6747 127.899 18.344 128.593 18.344C129.297 18.344 129.649 18.6747 129.649 19.336C129.649 20.008 129.297 20.344 128.593 20.344ZM135.266 17.128C134.605 17.128 134.274 16.7867 134.274 16.104V10.056C134.274 9.384 134.6 9.048 135.25 9.048C135.901 9.048 136.226 9.384 136.226 10.056V10.392C136.493 9.944 136.85 9.60267 137.298 9.368C137.757 9.13333 138.269 9.016 138.834 9.016C140.68 9.016 141.602 10.088 141.602 12.232V16.104C141.602 16.7867 141.272 17.128 140.61 17.128C139.938 17.128 139.602 16.7867 139.602 16.104V12.328C139.602 11.72 139.485 11.2773 139.25 11C139.026 10.7227 138.674 10.584 138.194 10.584C137.608 10.584 137.138 10.7707 136.786 11.144C136.445 11.5067 136.274 11.992 136.274 12.6V16.104C136.274 16.7867 135.938 17.128 135.266 17.128ZM147.282 20.04C146.706 20.04 146.146 19.9867 145.602 19.88C145.068 19.7733 144.583 19.608 144.146 19.384C143.89 19.256 143.735 19.0907 143.682 18.888C143.639 18.696 143.66 18.5093 143.746 18.328C143.831 18.1467 143.959 18.0133 144.13 17.928C144.311 17.8533 144.503 17.864 144.706 17.96C145.175 18.1947 145.618 18.344 146.034 18.408C146.46 18.4827 146.823 18.52 147.122 18.52C148.551 18.52 149.266 17.832 149.266 16.456V15.384C149.042 15.8213 148.695 16.168 148.226 16.424C147.767 16.68 147.255 16.808 146.69 16.808C145.986 16.808 145.372 16.648 144.85 16.328C144.327 15.9973 143.922 15.5387 143.634 14.952C143.346 14.3653 143.202 13.6827 143.202 12.904C143.202 12.1253 143.346 11.448 143.634 10.872C143.922 10.2853 144.327 9.832 144.85 9.512C145.372 9.18133 145.986 9.016 146.69 9.016C147.255 9.016 147.767 9.13867 148.226 9.384C148.684 9.62933 149.02 9.96533 149.234 10.392V10.056C149.234 9.72533 149.319 9.47467 149.49 9.304C149.671 9.13333 149.916 9.048 150.226 9.048C150.887 9.048 151.218 9.384 151.218 10.056V16.216C151.218 17.4853 150.882 18.44 150.21 19.08C149.538 19.72 148.562 20.04 147.282 20.04ZM147.234 15.288C147.852 15.288 148.343 15.0747 148.706 14.648C149.068 14.2213 149.25 13.64 149.25 12.904C149.25 12.168 149.068 11.592 148.706 11.176C148.343 10.7493 147.852 10.536 147.234 10.536C146.615 10.536 146.124 10.7493 145.762 11.176C145.399 11.592 145.218 12.168 145.218 12.904C145.218 13.64 145.399 14.2213 145.762 14.648C146.124 15.0747 146.615 15.288 147.234 15.288ZM154.25 11.464C153.887 11.464 153.594 11.352 153.37 11.128C153.157 10.904 153.05 10.6213 153.05 10.28C153.05 9.928 153.157 9.64533 153.37 9.432C153.594 9.208 153.887 9.096 154.25 9.096C154.623 9.096 154.911 9.208 155.114 9.432C155.327 9.64533 155.434 9.928 155.434 10.28C155.434 10.6213 155.327 10.904 155.114 11.128C154.911 11.352 154.623 11.464 154.25 11.464ZM154.25 17.08C153.887 17.08 153.594 16.968 153.37 16.744C153.157 16.52 153.05 16.232 153.05 15.88C153.05 15.5387 153.157 15.2613 153.37 15.048C153.594 14.824 153.887 14.712 154.25 14.712C154.623 14.712 154.911 14.824 155.114 15.048C155.327 15.2613 155.434 15.5387 155.434 15.88C155.434 16.232 155.327 16.52 155.114 16.744C154.911 16.968 154.623 17.08 154.25 17.08Z" fill="#181717"/>
<rect x="117.746" y="36" width="107.507" height="100" rx="10" fill="#EEEEEE"/>
<path d="M131.057 70.7333C131.057 67.5669 133.676 65 136.907 65H207.116C210.348 65 212.967 67.5669 212.967 70.7333V102.267C212.967 105.433 210.348 108 207.116 108H136.907C133.676 108 131.057 105.433 131.057 102.267V70.7333Z" fill="#888888"/>
<path d="M134.128 76.6364C134.128 73.5235 136.712 71 139.899 71H160.098C163.285 71 165.869 73.5235 165.869 76.6364V96.3636C165.869 99.4765 163.285 102 160.098 102H139.899C136.712 102 134.128 99.4765 134.128 96.3636V76.6364Z" fill="#3B3B3B"/>
<path d="M172.012 73.6471C172.012 72.1851 173.304 71 174.897 71H200.867C202.46 71 203.752 72.1851 203.752 73.6471V77.3529C203.752 78.8149 202.46 80 200.867 80H174.897C173.304 80 172.012 78.8149 172.012 77.3529V73.6471Z" fill="#3B3B3B"/>
<path d="M172.012 86.9167C172.012 85.3058 173.305 84 174.9 84H191.649C193.244 84 194.537 85.3058 194.537 86.9167V88.0833C194.537 89.6942 193.244 91 191.649 91H174.9C173.305 91 172.012 89.6942 172.012 88.0833V86.9167Z" fill="#3B3B3B"/>
<path d="M172.012 97.6923C172.012 96.2054 173.328 95 174.951 95H200.813C202.436 95 203.752 96.2054 203.752 97.6923V99.3077C203.752 100.795 202.436 102 200.813 102H174.951C173.328 102 172.012 100.795 172.012 99.3077V97.6923Z" fill="#3B3B3B"/>
<path opacity="0.7" d="M131.057 70.7333C131.057 67.5669 133.676 65 136.907 65H207.116C210.348 65 212.967 67.5669 212.967 70.7333V102.267C212.967 105.433 210.348 108 207.116 108H136.907C133.676 108 131.057 105.433 131.057 102.267V70.7333Z" fill="#3B3B3B"/>
<circle cx="171.725" cy="136" r="10" fill="white"/>
<path d="M172.012 126C166.37 126 161.773 130.49 161.773 136C161.773 141.51 166.37 146 172.012 146C177.653 146 182.251 141.51 182.251 136C182.251 130.49 177.653 126 172.012 126ZM175.452 138.3C175.749 138.59 175.749 139.07 175.452 139.36C175.298 139.51 175.104 139.58 174.909 139.58C174.715 139.58 174.52 139.51 174.367 139.36L172.012 137.06L169.657 139.36C169.503 139.51 169.309 139.58 169.114 139.58C168.92 139.58 168.725 139.51 168.572 139.36C168.275 139.07 168.275 138.59 168.572 138.3L170.926 136L168.572 133.7C168.275 133.41 168.275 132.93 168.572 132.64C168.868 132.35 169.36 132.35 169.657 132.64L172.012 134.94L174.367 132.64C174.664 132.35 175.155 132.35 175.452 132.64C175.749 132.93 175.749 133.41 175.452 133.7L173.097 136L175.452 138.3Z" fill="#F6465D"/>
<rect x="235.493" y="36" width="107.507" height="100" rx="10" fill="#EEEEEE"/>
<g clip-path="url(#clip0_5577_18126)">
<path d="M260.527 54.7092C261.806 52.4941 264.632 51.7317 266.84 53.0063L314.809 80.7012C317.016 81.9759 317.769 84.8048 316.49 87.0199L303.755 109.079C302.476 111.294 299.649 112.056 297.442 110.782L249.473 83.0869C247.265 81.8123 246.512 78.9833 247.791 76.7682L260.527 54.7092Z" fill="#888888"/>
<path d="M260.24 60.048C261.497 57.8704 264.281 57.1243 266.459 58.3816L280.259 66.3491C282.437 67.6063 283.183 70.3908 281.926 72.5684L273.958 86.3686C272.701 88.5462 269.916 89.2923 267.739 88.0351L253.939 80.0675C251.761 78.8103 251.015 76.0258 252.272 73.8482L260.24 60.048Z" fill="#3B3B3B"/>
<path d="M287.33 72.9006C287.921 71.8779 289.282 71.5585 290.371 72.1871L308.114 82.431C309.203 83.0597 309.607 84.3983 309.016 85.421L307.52 88.0134C306.929 89.0361 305.568 89.3556 304.479 88.727L286.736 78.483C285.647 77.8544 285.243 76.5157 285.834 75.493L287.33 72.9006Z" fill="#3B3B3B"/>
<path d="M281.971 82.1829C282.622 81.056 284.032 80.6526 285.122 81.2817L296.566 87.8888C297.656 88.518 298.012 89.9415 297.361 91.0683L296.89 91.8845C296.239 93.0113 294.828 93.4148 293.739 92.7857L282.295 86.1785C281.205 85.5494 280.849 84.1259 281.5 82.999L281.971 82.1829Z" fill="#3B3B3B"/>
<path d="M277.619 89.7218C278.219 88.6817 279.605 88.3575 280.714 88.9977L298.384 99.1995C299.493 99.8398 299.905 101.202 299.305 102.242L298.652 103.372C298.052 104.412 296.666 104.737 295.557 104.096L277.887 93.8946C276.778 93.2543 276.366 91.892 276.966 90.8519L277.619 89.7218Z" fill="#3B3B3B"/>
</g>
<circle cx="290.496" cy="136" r="10" fill="white"/>
<path d="M290.782 126C285.141 126 280.543 130.49 280.543 136C280.543 141.51 285.141 146 290.782 146C296.424 146 301.021 141.51 301.021 136C301.021 130.49 296.424 126 290.782 126ZM294.223 138.3C294.519 138.59 294.519 139.07 294.223 139.36C294.069 139.51 293.874 139.58 293.68 139.58C293.485 139.58 293.291 139.51 293.137 139.36L290.782 137.06L288.427 139.36C288.274 139.51 288.079 139.58 287.885 139.58C287.69 139.58 287.496 139.51 287.342 139.36C287.045 139.07 287.045 138.59 287.342 138.3L289.697 136L287.342 133.7C287.045 133.41 287.045 132.93 287.342 132.64C287.639 132.35 288.13 132.35 288.427 132.64L290.782 134.94L293.137 132.64C293.434 132.35 293.926 132.35 294.223 132.64C294.519 132.93 294.519 133.41 294.223 133.7L291.868 136L294.223 138.3Z" fill="#F6465D"/>
<rect y="36" width="107.507" height="100" rx="10" fill="#EEEEEE"/>
<path d="M13.3105 70.7333C13.3105 67.5669 15.93 65 19.1613 65H89.3702C92.6015 65 95.221 67.5669 95.221 70.7333V102.267C95.221 105.433 92.6015 108 89.3702 108H19.1613C15.93 108 13.3105 105.433 13.3105 102.267V70.7333Z" fill="#888888"/>
<path d="M16.3823 76.6364C16.3823 73.5235 18.9661 71 22.1533 71H42.3517C45.5389 71 48.1226 73.5235 48.1226 76.6364V96.3636C48.1226 99.4765 45.5389 102 42.3517 102H22.1533C18.9661 102 16.3823 99.4765 16.3823 96.3636V76.6364Z" fill="#3B3B3B"/>
<path d="M54.2661 73.6471C54.2661 72.1851 55.558 71 57.1516 71H83.1209C84.7145 71 86.0064 72.1851 86.0064 73.6471V77.3529C86.0064 78.8149 84.7145 80 83.1209 80H57.1516C55.558 80 54.2661 78.8149 54.2661 77.3529V73.6471Z" fill="#3B3B3B"/>
<path d="M54.2661 86.9167C54.2661 85.3058 55.5591 84 57.154 84H73.9036C75.4985 84 76.7915 85.3058 76.7915 86.9167V88.0833C76.7915 89.6942 75.4985 91 73.9036 91H57.154C55.5591 91 54.2661 89.6942 54.2661 88.0833V86.9167Z" fill="#3B3B3B"/>
<path d="M54.2661 97.6923C54.2661 96.2054 55.5819 95 57.205 95H83.0675C84.6906 95 86.0064 96.2054 86.0064 97.6923V99.3077C86.0064 100.795 84.6906 102 83.0675 102H57.205C55.5819 102 54.2661 100.795 54.2661 99.3077V97.6923Z" fill="#3B3B3B"/>
<circle cx="52.9551" cy="136" r="10" fill="white"/>
<path d="M53.2417 126C47.6002 126 43.0029 130.49 43.0029 136C43.0029 141.51 47.6002 146 53.2417 146C58.8833 146 63.4805 141.51 63.4805 136C63.4805 130.49 58.8833 126 53.2417 126ZM56.682 138.3C56.9789 138.59 56.9789 139.07 56.682 139.36C56.5284 139.51 56.3339 139.58 56.1393 139.58C55.9448 139.58 55.7502 139.51 55.5967 139.36L53.2417 137.06L50.8868 139.36C50.7332 139.51 50.5387 139.58 50.3442 139.58C50.1496 139.58 49.9551 139.51 49.8015 139.36C49.5046 139.07 49.5046 138.59 49.8015 138.3L52.1564 136L49.8015 133.7C49.5046 133.41 49.5046 132.93 49.8015 132.64C50.0984 132.35 50.5899 132.35 50.8868 132.64L53.2417 134.94L55.5967 132.64C55.8936 132.35 56.385 132.35 56.682 132.64C56.9789 132.93 56.9789 133.41 56.682 133.7L54.327 136L56.682 138.3Z" fill="#F6465D"/>
<defs>
<clipPath id="clip0_5577_18126">
<rect width="62.4567" height="77" fill="white" transform="translate(258.018 47)"/>
</clipPath>
</defs>
</svg>
