<svg width="40" height="40" viewBox="0 0 40 40" fill="none" xmlns="http://www.w3.org/2000/svg">
<circle cx="20" cy="20" r="20" fill="#E6FFE6"/>
<path d="M29.2727 23.3636C28.589 23.3636 27.9708 23.6253 27.4916 24.0425L23.7549 21.185C24.1318 20.5399 24.3636 19.7995 24.3636 19C24.3636 18.2318 24.1469 17.52 23.797 16.8924L26.3586 15.0135C26.8428 15.4523 27.4785 15.7272 28.1818 15.7272C29.6856 15.7272 30.9091 14.5037 30.9091 13C30.9091 11.4963 29.6856 10.2727 28.1818 10.2727C26.6781 10.2727 25.4546 11.4962 25.4546 12.9999C25.4546 13.4064 25.55 13.7888 25.7101 14.1357L23.1592 16.0068C22.3633 15.1672 21.2454 14.6363 20 14.6363C19.6524 14.6363 19.3185 14.6877 18.9942 14.7649L18.366 13.089C19.3382 12.521 20 11.4777 20 10.2727C20 8.46802 18.532 7 16.7273 7C14.9226 7 13.4546 8.46802 13.4546 10.2727C13.4546 12.0774 14.9226 13.5455 16.7273 13.5455C16.94 13.5455 17.147 13.5216 17.3485 13.4827L17.9763 15.1574C16.8185 15.7701 15.9644 16.8737 15.7171 18.2016L13.4152 18.0665C13.2248 16.7475 12.0982 15.7272 10.7273 15.7272C9.22354 15.7272 8 16.9508 8 18.4545C8 19.9582 9.22354 21.1818 10.7273 21.1818C11.9872 21.1818 13.0401 20.3184 13.3517 19.1553L15.6658 19.2911C15.7408 20.4015 16.2176 21.4002 16.9713 22.1297L14.9457 24.8306C14.4964 24.5983 13.9944 24.4544 13.4546 24.4544C11.6499 24.4544 10.1818 25.9225 10.1818 27.7272C10.1818 29.5319 11.6499 30.9999 13.4546 30.9999C15.2593 30.9999 16.7273 29.5319 16.7273 27.7272C16.7273 26.8554 16.3795 26.0669 15.822 25.4798L17.8509 22.7743C18.4881 23.1387 19.215 23.3635 20 23.3635C21.2143 23.3635 22.3121 22.8631 23.1039 22.06L26.8271 24.9071C26.6523 25.2666 26.5455 25.6649 26.5455 26.0908C26.5455 27.5945 27.769 28.8181 29.2727 28.8181C30.7765 28.8181 32 27.5945 32 26.0908C32 24.5871 30.7765 23.3636 29.2727 23.3636Z" fill="#03BF4E"/>
</svg>
