<svg width="41" height="40" viewBox="0 0 41 40" fill="none" xmlns="http://www.w3.org/2000/svg">
<circle cx="20.5" cy="20" r="20" fill="#E6FFE6"/>
<g clip-path="url(#clip0_5577_16138)">
<path d="M32.5 14.6406V13.375C32.5 11.9253 31.3248 10.75 29.875 10.75H11.125C9.67525 10.75 8.5 11.9253 8.5 13.375V14.6406C8.5 14.77 8.60495 14.875 8.73438 14.875H32.2656C32.395 14.875 32.5 14.77 32.5 14.6406Z" fill="#03BF4E"/>
<path d="M8.5 16.6094V24.625C8.5 26.0747 9.67525 27.25 11.125 27.25H29.875C31.3248 27.25 32.5 26.0747 32.5 24.625V16.6094C32.5 16.48 32.395 16.375 32.2656 16.375H8.73438C8.60495 16.375 8.5 16.48 8.5 16.6094ZM14.5 22.75C14.5 23.1642 14.1642 23.5 13.75 23.5H13C12.5858 23.5 12.25 23.1642 12.25 22.75V22C12.25 21.5858 12.5858 21.25 13 21.25H13.75C14.1642 21.25 14.5 21.5858 14.5 22V22.75Z" fill="#03BF4E"/>
</g>
<defs>
<clipPath id="clip0_5577_16138">
<rect width="24" height="24" fill="white" transform="translate(8.5 7)"/>
</clipPath>
</defs>
</svg>
