<svg width="20" height="20" viewBox="0 0 20 20" fill="none" xmlns="http://www.w3.org/2000/svg">
<path d="M0.22547 11.7889L3.44222 14.7783C3.59409 14.9208 3.79325 15 4.00002 15C4.20678 15 4.40594 14.9208 4.5578 14.7783L7.77453 11.7889C7.87767 11.6931 7.9499 11.5679 7.98175 11.4296C8.0136 11.2914 8.00359 11.1466 7.95302 11.0142C7.90246 10.8818 7.8137 10.7681 7.69839 10.6878C7.58308 10.6076 7.44659 10.5647 7.30684 10.5646H6.02993C5.9917 10.5646 5.95506 10.5491 5.92803 10.5216C5.901 10.4942 5.8858 10.4569 5.88575 10.4181V1.69C5.88555 1.50704 5.81393 1.33164 5.68659 1.20228C5.55925 1.07292 5.3866 1.00018 5.20652 1H2.86455C2.68449 1.00018 2.51186 1.07292 2.38453 1.20226C2.2572 1.3316 2.18557 1.50697 2.18535 1.6899V10.4181C2.1853 10.4569 2.17009 10.4942 2.14305 10.5216C2.11602 10.5491 2.07937 10.5646 2.04113 10.5646H0.693164C0.553406 10.5647 0.416923 10.6076 0.301611 10.6878C0.186299 10.7681 0.0975423 10.8818 0.0469761 11.0142C-0.00358963 11.1466 -0.0136042 11.2914 0.0182481 11.4296C0.0501003 11.5679 0.122332 11.6931 0.22547 11.7889Z" fill="#BF0C26"/>
<path d="M2.48577 17.8323H5.75293C5.89797 17.8323 6.03707 17.8899 6.13963 17.9925C6.24219 18.095 6.2998 18.2341 6.2998 18.3792C6.2998 18.5242 6.24219 18.6633 6.13963 18.7658C6.03707 18.8684 5.89797 18.926 5.75293 18.926H2.48577C2.34073 18.926 2.20163 18.8684 2.09907 18.7658C1.99652 18.6633 1.9389 18.5242 1.9389 18.3792C1.9389 18.2341 1.99652 18.095 2.09907 17.9925C2.20163 17.8899 2.34073 17.8323 2.48577 17.8323Z" fill="#BF0C26"/>
<path d="M2.48577 16.105H5.75293C5.89797 16.105 6.03707 16.1626 6.13963 16.2652C6.24219 16.3677 6.2998 16.5068 6.2998 16.6519C6.2998 16.7969 6.24219 16.936 6.13963 17.0386C6.03707 17.1411 5.89797 17.1987 5.75293 17.1987H2.48577C2.34073 17.1987 2.20163 17.1411 2.09907 17.0386C1.99652 16.936 1.9389 16.7969 1.9389 16.6519C1.9389 16.5068 1.99652 16.3677 2.09907 16.2652C2.20163 16.1626 2.34073 16.105 2.48577 16.105Z" fill="#BF0C26"/>
<path d="M15.4689 11.6038H17.8205C18.2459 11.6038 18.5908 11.9486 18.5908 12.3741V18.2341C18.5908 18.6595 18.2459 19.0044 17.8205 19.0044H15.4689C15.0435 19.0044 14.6986 18.6595 14.6986 18.2341V12.3741C14.6986 11.9486 15.0435 11.6038 15.4689 11.6038Z" fill="#BF0C26"/>
<path d="M12.1965 8.13818H9.8447C9.64042 8.13818 9.4445 8.21933 9.30005 8.36378C9.1556 8.50823 9.07445 8.70415 9.07445 8.90843V18.2339C9.07445 18.4382 9.1556 18.6341 9.30005 18.7785C9.4445 18.923 9.64042 19.0041 9.8447 19.0041H12.1965C12.4008 19.0041 12.5967 18.923 12.7412 18.7785C12.8856 18.6341 12.9668 18.4382 12.9668 18.2339V8.90831C12.9668 8.80716 12.9469 8.70701 12.9082 8.61357C12.8695 8.52012 12.8127 8.43522 12.7412 8.3637C12.6697 8.29219 12.5847 8.23546 12.4913 8.19677C12.3978 8.15807 12.2977 8.13817 12.1965 8.13818Z" fill="#BF0C26"/>
</svg>
