<svg width="18" height="18" viewBox="0 0 18 18" fill="none" xmlns="http://www.w3.org/2000/svg">
<path d="M13.7181 17.8913C13.2764 17.8913 12.7097 17.7496 12.0014 17.3329L9.50973 15.8579C9.2514 15.7079 8.7514 15.7079 8.5014 15.8579L6.0014 17.3329C4.5264 18.2079 3.65973 17.8579 3.26807 17.5746C2.88473 17.2913 2.28473 16.5663 2.6764 14.8996L3.26807 12.3413C3.33473 12.0746 3.2014 11.6163 3.0014 11.4163L0.934734 9.34961C-0.0985998 8.31628 -0.0152664 7.43294 0.1264 6.99961C0.268067 6.56628 0.718067 5.79961 2.1514 5.55794L4.80973 5.11628C5.05973 5.07461 5.41807 4.80794 5.5264 4.58294L7.0014 1.64128C7.66807 0.299609 8.54307 0.0996094 9.0014 0.0996094C9.45973 0.0996094 10.3347 0.299609 11.0014 1.64128L12.4681 4.57461C12.5847 4.79961 12.9431 5.06628 13.1931 5.10794L15.8514 5.54961C17.2931 5.79128 17.7431 6.55794 17.8764 6.99128C18.0097 7.42461 18.0931 8.30794 17.0681 9.34128L15.0014 11.4163C14.8014 11.6163 14.6764 12.0663 14.7347 12.3413L15.3264 14.8996C15.7097 16.5663 15.1181 17.2913 14.7347 17.5746C14.5264 17.7246 14.1931 17.8913 13.7181 17.8913ZM9.0014 14.4913C9.40973 14.4913 9.81807 14.5913 10.1431 14.7829L12.6347 16.2579C13.3597 16.6913 13.8181 16.6913 13.9931 16.5663C14.1681 16.4413 14.2931 15.9996 14.1097 15.1829L13.5181 12.6246C13.3597 11.9329 13.6181 11.0413 14.1181 10.5329L16.1847 8.46628C16.5931 8.05794 16.7764 7.65794 16.6931 7.38294C16.6014 7.10794 16.2181 6.88294 15.6514 6.79128L12.9931 6.34961C12.3514 6.24128 11.6514 5.72461 11.3597 5.14128L9.89307 2.20794C9.6264 1.67461 9.29307 1.35794 9.0014 1.35794C8.70973 1.35794 8.3764 1.67461 8.11807 2.20794L6.64307 5.14128C6.3514 5.72461 5.6514 6.24128 5.00973 6.34961L2.35973 6.79128C1.79307 6.88294 1.40973 7.10794 1.31807 7.38294C1.2264 7.65794 1.41807 8.06628 1.8264 8.46628L3.89307 10.5329C4.39307 11.0329 4.6514 11.9329 4.49307 12.6246L3.9014 15.1829C3.70973 16.0079 3.84307 16.4413 4.01807 16.5663C4.19307 16.6913 4.64307 16.6829 5.3764 16.2579L7.86807 14.7829C8.18473 14.5913 8.59307 14.4913 9.0014 14.4913Z" fill="#3B3B3B"/>
</svg>
