<svg width="40" height="40" viewBox="0 0 40 40" fill="none" xmlns="http://www.w3.org/2000/svg">
<circle cx="20" cy="20" r="20" fill="#FFF3DC"/>
<path d="M23.9092 20.123L32.0002 25.238V14.792L23.9092 20.123Z" fill="#FB7A04"/>
<path d="M8 14.792V25.238L16.091 20.123L8 14.792Z" fill="#FB7A04"/>
<path d="M30.4999 11.75H9.49992C8.75142 11.75 8.15742 12.308 8.04492 13.0265L19.9999 20.903L31.9549 13.0265C31.8424 12.308 31.2484 11.75 30.4999 11.75Z" fill="#FB7A04"/>
<path d="M22.5349 21.0291L20.4124 22.4271C20.2864 22.5096 20.1439 22.5501 19.9999 22.5501C19.8559 22.5501 19.7134 22.5096 19.5874 22.4271L17.4649 21.0276L8.04785 26.9841C8.16335 27.6966 8.75435 28.2501 9.49985 28.2501H30.4999C31.2454 28.2501 31.8364 27.6966 31.9519 26.9841L22.5349 21.0291Z" fill="#FB7A04"/>
</svg>
