<svg width="18" height="14" viewBox="0 0 18 14" fill="none" xmlns="http://www.w3.org/2000/svg">
<g clip-path="url(#clip0_181_1090)">
<path d="M10.4134 8.41319C10.2303 8.60968 10.0095 8.76729 9.76418 8.8766C9.51885 8.98591 9.25402 9.04469 8.98547 9.04943C8.71693 9.05417 8.45019 9.00477 8.20115 8.90418C7.95212 8.80359 7.7259 8.65387 7.53598 8.46396C7.34606 8.27404 7.19634 8.04782 7.09575 7.79878C6.99516 7.54975 6.94577 7.283 6.9505 7.01446C6.95524 6.74592 7.01402 6.48108 7.12333 6.23575C7.23264 5.99042 7.39025 5.76962 7.58675 5.58652M12.9601 10.9599C11.8205 11.8285 10.4328 12.3098 9.00008 12.3332C4.33341 12.3332 1.66675 6.99985 1.66675 6.99985C2.49601 5.45445 3.64617 4.10426 5.04008 3.03985L12.9601 10.9599ZM7.60008 1.82652C8.05897 1.71911 8.52879 1.66541 9.00008 1.66652C13.6667 1.66652 16.3334 6.99985 16.3334 6.99985C15.9287 7.75692 15.4461 8.46968 14.8934 9.12652L7.60008 1.82652Z" stroke="#3B3B3B" stroke-linecap="round" stroke-linejoin="round"/>
<path d="M1.66675 -0.333496L16.3334 14.3332" stroke="#3B3B3B" stroke-linecap="round" stroke-linejoin="round"/>
</g>
<defs>
<clipPath id="clip0_181_1090">
<rect width="18" height="14" fill="white"/>
</clipPath>
</defs>
</svg>
