<svg width="40" height="40" viewBox="0 0 40 40" fill="none" xmlns="http://www.w3.org/2000/svg">
<circle cx="20" cy="20" r="20" fill="#E6FFE6"/>
<rect x="9.2002" y="8.2002" width="21.6" height="21.6" rx="5" fill="#03BF4E"/>
<path fill-rule="evenodd" clip-rule="evenodd" d="M9.83549 15.8232C9.48481 15.8232 9.2002 15.5386 9.2002 15.1879V12.6468C9.2002 10.1945 11.195 8.19971 13.6473 8.19971H16.1884C16.5391 8.19971 16.8237 8.48432 16.8237 8.835C16.8237 9.18568 16.5391 9.4703 16.1884 9.4703H13.6473C11.8964 9.4703 10.4708 10.8946 10.4708 12.6468V15.1879C10.4708 15.5386 10.1862 15.8232 9.83549 15.8232ZM30.1649 15.8232C29.8142 15.8232 29.5296 15.5386 29.5296 15.1879V12.6468C29.5296 10.8946 28.104 9.4703 26.3531 9.4703H23.812C23.4613 9.4703 23.1767 9.18568 23.1767 8.835C23.1767 8.48432 23.4613 8.19971 23.812 8.19971H26.3531C28.8054 8.19971 30.8002 10.1945 30.8002 12.6468V15.1879C30.8002 15.5386 30.5156 15.8232 30.1649 15.8232ZM16.1884 18.3644C15.8377 18.3644 15.5531 18.0798 15.5531 17.7291V15.1879C15.5531 14.8373 15.8377 14.5526 16.1884 14.5526C16.5391 14.5526 16.8237 14.8373 16.8237 15.1879V17.7291C16.8237 18.0798 16.5391 18.3644 16.1884 18.3644ZM23.812 18.3644C23.4613 18.3644 23.1767 18.0798 23.1767 17.7291V15.1879C23.1767 14.8373 23.4613 14.5526 23.812 14.5526C24.1626 14.5526 24.4473 14.8373 24.4473 15.1879V17.7291C24.4473 18.0798 24.1626 18.3644 23.812 18.3644ZM18.7296 20.9056C18.3789 20.9056 18.0943 20.621 18.0943 20.2703C18.0943 19.9196 18.3789 19.635 18.7296 19.635C19.0803 19.635 19.3649 19.3491 19.3649 18.9997V15.1879C19.3649 14.8373 19.6495 14.5526 20.0002 14.5526C20.3509 14.5526 20.6355 14.8373 20.6355 15.1879V18.9997C20.6355 20.0505 19.7804 20.9056 18.7296 20.9056ZM20.0002 24.7174C18.5619 24.7174 17.3421 24.2269 16.3739 23.2613C16.1262 23.0122 16.1262 22.6107 16.3739 22.3617C16.623 22.1139 17.0245 22.1139 17.2735 22.3617C18.0028 23.0923 18.8948 23.4468 20.0002 23.4468C21.1056 23.4468 21.9976 23.0923 22.7269 22.3617C22.9759 22.1139 23.3774 22.1139 23.6265 22.3617C23.8742 22.6107 23.8742 23.0122 23.6265 23.2613C22.6583 24.2269 21.4385 24.7174 20.0002 24.7174ZM16.1884 29.7997H13.6473C11.195 29.7997 9.2002 27.8049 9.2002 25.3526V22.8115C9.2002 22.4608 9.48481 22.1762 9.83549 22.1762C10.1862 22.1762 10.4708 22.4608 10.4708 22.8115V25.3526C10.4708 27.1048 11.8964 28.5291 13.6473 28.5291H16.1884C16.5391 28.5291 16.8237 28.8137 16.8237 29.1644C16.8237 29.5151 16.5391 29.7997 16.1884 29.7997ZM26.3531 29.7997H23.812C23.4613 29.7997 23.1767 29.5151 23.1767 29.1644C23.1767 28.8137 23.4613 28.5291 23.812 28.5291H26.3531C28.104 28.5291 29.5296 27.1048 29.5296 25.3526V22.8115C29.5296 22.4608 29.8142 22.1762 30.1649 22.1762C30.5156 22.1762 30.8002 22.4608 30.8002 22.8115V25.3526C30.8002 27.8049 28.8054 29.7997 26.3531 29.7997Z" fill="#E6FFE6"/>
</svg>
