<svg width="20" height="20" viewBox="0 0 20 20" fill="none" xmlns="http://www.w3.org/2000/svg">
<rect x="1" y="1" width="18" height="18" rx="5" fill="#FCC927" fill-opacity="0.15"/>
<path fill-rule="evenodd" clip-rule="evenodd" d="M1.52941 7.35294C1.23718 7.35294 1 7.11576 1 6.82353V4.70588C1 2.66235 2.66235 1 4.70588 1H6.82353C7.11577 1 7.35294 1.23718 7.35294 1.52941C7.35294 1.82165 7.11577 2.05882 6.82353 2.05882H4.70588C3.24682 2.05882 2.05882 3.24576 2.05882 4.70588V6.82353C2.05882 7.11576 1.82165 7.35294 1.52941 7.35294ZM18.4706 7.35294C18.1784 7.35294 17.9412 7.11576 17.9412 6.82353V4.70588C17.9412 3.24576 16.7532 2.05882 15.2941 2.05882H13.1765C12.8842 2.05882 12.6471 1.82165 12.6471 1.52941C12.6471 1.23718 12.8842 1 13.1765 1H15.2941C17.3376 1 19 2.66235 19 4.70588V6.82353C19 7.11576 18.7628 7.35294 18.4706 7.35294ZM6.82353 9.47059C6.53129 9.47059 6.29412 9.23341 6.29412 8.94118V6.82353C6.29412 6.53129 6.53129 6.29412 6.82353 6.29412C7.11577 6.29412 7.35294 6.53129 7.35294 6.82353V8.94118C7.35294 9.23341 7.11577 9.47059 6.82353 9.47059ZM13.1765 9.47059C12.8842 9.47059 12.6471 9.23341 12.6471 8.94118V6.82353C12.6471 6.53129 12.8842 6.29412 13.1765 6.29412C13.4687 6.29412 13.7059 6.53129 13.7059 6.82353V8.94118C13.7059 9.23341 13.4687 9.47059 13.1765 9.47059ZM8.94118 11.5882C8.64894 11.5882 8.41177 11.3511 8.41177 11.0588C8.41177 10.7666 8.64894 10.5294 8.94118 10.5294C9.23341 10.5294 9.47059 10.2912 9.47059 10V6.82353C9.47059 6.53129 9.70777 6.29412 10 6.29412C10.2922 6.29412 10.5294 6.53129 10.5294 6.82353V10C10.5294 10.8756 9.81682 11.5882 8.94118 11.5882ZM10 14.7647C8.80141 14.7647 7.78494 14.356 6.97812 13.5513C6.77165 13.3438 6.77165 13.0092 6.97812 12.8016C7.18565 12.5952 7.52024 12.5952 7.72777 12.8016C8.33553 13.4105 9.07882 13.7059 10 13.7059C10.9212 13.7059 11.6645 13.4105 12.2722 12.8016C12.4798 12.5952 12.8144 12.5952 13.0219 12.8016C13.2284 13.0092 13.2284 13.3438 13.0219 13.5513C12.2151 14.356 11.1986 14.7647 10 14.7647ZM6.82353 19H4.70588C2.66235 19 1 17.3376 1 15.2941V13.1765C1 12.8842 1.23718 12.6471 1.52941 12.6471C1.82165 12.6471 2.05882 12.8842 2.05882 13.1765V15.2941C2.05882 16.7542 3.24682 17.9412 4.70588 17.9412H6.82353C7.11577 17.9412 7.35294 18.1784 7.35294 18.4706C7.35294 18.7628 7.11577 19 6.82353 19ZM15.2941 19H13.1765C12.8842 19 12.6471 18.7628 12.6471 18.4706C12.6471 18.1784 12.8842 17.9412 13.1765 17.9412H15.2941C16.7532 17.9412 17.9412 16.7542 17.9412 15.2941V13.1765C17.9412 12.8842 18.1784 12.6471 18.4706 12.6471C18.7628 12.6471 19 12.8842 19 13.1765V15.2941C19 17.3376 17.3376 19 15.2941 19Z" fill="#FCC927"/>
</svg>
