<svg width="24" height="24" viewBox="0 0 24 24" fill="none" xmlns="http://www.w3.org/2000/svg">
    <path fill-rule="evenodd" clip-rule="evenodd"
        d="M0.907656 8.97779C0.522495 8.97779 0.2099 8.67912 0.2099 8.31112V5.64446C0.2099 3.07112 2.40085 0.977787 5.09419 0.977787H7.88521C8.27038 0.977787 8.58297 1.27645 8.58297 1.64445C8.58297 2.01245 8.27038 2.31112 7.88521 2.31112H5.09419C3.17118 2.31112 1.60541 3.80579 1.60541 5.64446V8.31112C1.60541 8.67912 1.29282 8.97779 0.907656 8.97779ZM23.2358 8.97779C22.8507 8.97779 22.5381 8.67912 22.5381 8.31112V5.64446C22.5381 3.80579 20.9723 2.31112 19.0493 2.31112H16.2583C15.8731 2.31112 15.5605 2.01245 15.5605 1.64445C15.5605 1.27645 15.8731 0.977787 16.2583 0.977787H19.0493C21.7426 0.977787 23.9336 3.07112 23.9336 5.64446V8.31112C23.9336 8.67912 23.621 8.97779 23.2358 8.97779ZM7.88521 11.6445C7.50005 11.6445 7.18746 11.3458 7.18746 10.9778V8.31112C7.18746 7.94312 7.50005 7.64446 7.88521 7.64446C8.27038 7.64446 8.58297 7.94312 8.58297 8.31112V10.9778C8.58297 11.3458 8.27038 11.6445 7.88521 11.6445ZM16.2583 11.6445C15.8731 11.6445 15.5605 11.3458 15.5605 10.9778V8.31112C15.5605 7.94312 15.8731 7.64446 16.2583 7.64446C16.6434 7.64446 16.956 7.94312 16.956 8.31112V10.9778C16.956 11.3458 16.6434 11.6445 16.2583 11.6445ZM10.6762 14.3111C10.2911 14.3111 9.97848 14.0125 9.97848 13.6445C9.97848 13.2765 10.2911 12.9778 10.6762 12.9778C11.0614 12.9778 11.374 12.6778 11.374 12.3111V8.31112C11.374 7.94312 11.6866 7.64446 12.0717 7.64446C12.4569 7.64446 12.7695 7.94312 12.7695 8.31112V12.3111C12.7695 13.4138 11.8303 14.3111 10.6762 14.3111ZM12.0717 18.3111C10.492 18.3111 9.15234 17.7965 8.08896 16.7831C7.81683 16.5218 7.81683 16.1005 8.08896 15.8391C8.36248 15.5791 8.80346 15.5791 9.07698 15.8391C9.87801 16.6058 10.8577 16.9778 12.0717 16.9778C13.2858 16.9778 14.2655 16.6058 15.0665 15.8391C15.34 15.5791 15.781 15.5791 16.0545 15.8391C16.3267 16.1005 16.3267 16.5218 16.0545 16.7831C14.9912 17.7965 13.6515 18.3111 12.0717 18.3111ZM7.88521 23.6445H5.09419C2.40085 23.6445 0.2099 21.5511 0.2099 18.9778V16.3111C0.2099 15.9431 0.522495 15.6445 0.907656 15.6445C1.29282 15.6445 1.60541 15.9431 1.60541 16.3111V18.9778C1.60541 20.8165 3.17118 22.3111 5.09419 22.3111H7.88521C8.27038 22.3111 8.58297 22.6098 8.58297 22.9778C8.58297 23.3458 8.27038 23.6445 7.88521 23.6445ZM19.0493 23.6445H16.2583C15.8731 23.6445 15.5605 23.3458 15.5605 22.9778C15.5605 22.6098 15.8731 22.3111 16.2583 22.3111H19.0493C20.9723 22.3111 22.5381 20.8165 22.5381 18.9778V16.3111C22.5381 15.9431 22.8507 15.6445 23.2358 15.6445C23.621 15.6445 23.9336 15.9431 23.9336 16.3111V18.9778C23.9336 21.5511 21.7426 23.6445 19.0493 23.6445Z"
        fill="#1E65F3" />
</svg>
