<svg width="50" height="55" viewBox="0 0 50 55" fill="none" xmlns="http://www.w3.org/2000/svg">
<ellipse cx="25" cy="27.5" rx="25" ry="27.5" fill="#5A4099"/>
<path d="M25 12.2812C16.7289 12.2812 10 19.0102 10 27.2813C10 29.1223 10.33 30.9209 10.9806 32.6267C11.0651 32.8482 11.2761 32.9844 11.4998 32.9844C11.5656 32.9844 11.6326 32.9726 11.6977 32.9477C11.9843 32.8384 12.1281 32.5174 12.0187 32.2307C11.4165 30.6517 11.1111 28.9866 11.1111 27.2813C11.1111 19.6228 17.3416 13.3924 25 13.3924C32.6584 13.3924 38.8889 19.6228 38.8889 27.2813C38.8889 27.588 39.1376 27.8368 39.4444 27.8368C39.7512 27.8368 40 27.588 40 27.2813C40 19.0102 33.2711 12.2812 25 12.2812Z" fill="white"/>
<path d="M25.0061 15.0537C21.6716 15.0537 18.2172 16.6671 15.7716 19.3694C13.6055 21.7628 12.514 24.6648 12.7807 27.3313L12.8424 27.9552C13.2764 32.2771 13.2759 32.2771 12.461 33.8894C12.4043 34.0018 12.3437 34.1213 12.2794 34.2497C12.1423 34.5242 12.2534 34.8579 12.5278 34.9951C12.6075 35.035 12.6922 35.0538 12.7757 35.0538C12.9795 35.0538 13.1757 34.9412 13.2731 34.7466C13.3364 34.6198 13.3961 34.5016 13.4523 34.3906C14.4135 32.4889 14.4048 32.4018 13.947 27.8442L13.8845 27.2206C13.6491 24.866 14.6356 22.276 16.5915 20.115C18.8298 17.6414 21.9803 16.1648 25.0061 16.1648C31.1329 16.1648 36.125 21.1492 36.125 27.2759V30.0537C36.125 30.3604 36.3738 30.6092 36.6806 30.6092C36.9875 30.6092 37.2362 30.3604 37.2362 30.0537V27.276C37.2362 20.5366 31.7454 15.0537 25.0061 15.0537Z" fill="white"/>
<path d="M28.4791 18.4919C27.3725 18.0534 26.2025 17.8311 25.0018 17.8311C22.4697 17.8311 20.0985 18.8008 18.325 20.5618C16.5403 22.3339 15.5574 24.7182 15.5574 27.2755C15.5574 28.6942 15.6881 29.9315 15.8035 31.023C16.1014 33.842 16.2655 35.3949 14.1381 36.8133C13.8828 36.9835 13.8137 37.3284 13.984 37.5837C14.091 37.7443 14.2672 37.831 14.4468 37.831C14.5526 37.831 14.6597 37.8009 14.7544 37.7378C17.4411 35.9467 17.206 33.7223 16.9084 30.9064C16.796 29.842 16.6685 28.6356 16.6685 27.2755C16.6685 22.6026 20.329 18.9422 25.0018 18.9422C26.0618 18.9422 27.094 19.1382 28.0697 19.5248C28.3547 19.6377 28.6777 19.4982 28.7909 19.213C28.9039 18.9278 28.7643 18.6048 28.4791 18.4919Z" fill="white"/>
<path d="M34.4486 27.2551C34.4417 24.223 32.9653 21.3598 30.4961 19.5921C30.2467 19.4136 29.8996 19.4709 29.721 19.7205C29.5425 19.97 29.5999 20.3171 29.8494 20.4957C32.0335 22.0593 33.3375 24.5941 33.3375 27.2766C33.3375 27.2908 33.338 27.305 33.3392 27.3192C33.3446 27.3905 33.8746 34.5041 32.7985 38.8086C32.7242 39.1062 32.9051 39.4078 33.2029 39.4823C33.248 39.4935 33.2933 39.499 33.3379 39.499C33.5868 39.499 33.8134 39.3305 33.8765 39.078C34.9775 34.6741 34.4874 27.7732 34.4486 27.2551Z" fill="white"/>
<path d="M31.2679 24.9925C30.3115 22.3726 27.794 20.6123 25.0037 20.6123C21.3278 20.6123 18.337 23.6029 18.337 27.279C18.337 27.302 18.3385 27.3251 18.3413 27.3479C18.3468 27.3915 18.8815 31.7621 18.3426 35.5338C18.2992 35.8375 18.5102 36.1189 18.8141 36.1623C18.8407 36.1661 18.8671 36.168 18.8933 36.168C19.1652 36.168 19.403 35.968 19.4426 35.6909C19.9821 31.914 19.5039 27.7083 19.4483 27.2459C19.4661 24.1978 21.9514 21.7234 25.0037 21.7234C27.3292 21.7234 29.4271 23.1903 30.2241 25.3736C30.3293 25.6618 30.6487 25.8097 30.9366 25.7049C31.2248 25.5997 31.3731 25.2807 31.2679 24.9925Z" fill="white"/>
<path d="M25.0078 23.3906C22.8635 23.3906 21.1152 25.1351 21.1152 27.2795C21.1152 27.3012 21.1143 27.3229 21.1169 27.3443C21.1278 27.4367 22.1694 36.6213 19.549 40.2899C19.3706 40.5396 19.428 40.8865 19.6777 41.0649C19.7756 41.1349 19.8882 41.1684 20 41.1684C20.1732 41.1684 20.3439 41.0875 20.4523 40.9358C23.2643 36.999 22.3058 27.9806 22.2225 27.249C22.2389 25.7312 23.4865 24.5017 25.008 24.5017C26.5397 24.5017 27.7935 25.7477 27.7935 27.2794V31.1683C27.7935 31.4751 28.0422 31.7239 28.3491 31.7239C28.6559 31.7239 28.9047 31.4752 28.9047 31.1683V27.2794C28.9046 25.1351 27.1522 23.3906 25.0078 23.3906Z" fill="white"/>
<path d="M36.7174 31.4016C36.415 31.3748 36.1421 31.6008 36.1155 31.9065L35.7766 35.7806C35.7497 36.0864 35.9759 36.3557 36.2815 36.3824C36.2979 36.3839 36.3144 36.3846 36.3306 36.3846C36.6155 36.3846 36.8581 36.1666 36.8834 35.8775L37.2223 32.0034C37.2492 31.6976 37.0231 31.4283 36.7174 31.4016Z" fill="white"/>
<path d="M18.6419 37.3707C18.3867 37.2005 18.0417 37.2695 17.8715 37.5248L16.7604 39.1915C16.5901 39.4467 16.6592 39.7916 16.9144 39.9618C17.0091 40.025 17.1161 40.0551 17.222 40.0551C17.4016 40.0551 17.5778 39.9683 17.6848 39.8077L18.7959 38.1411C18.9662 37.8859 18.8971 37.5409 18.6419 37.3707Z" fill="white"/>
<path d="M31.6573 27.1639C31.5931 26.8639 31.2976 26.6728 30.9977 26.7371C30.6977 26.8013 30.5066 27.0966 30.5709 27.3966C30.5871 27.4726 32.1659 35.0454 29.506 40.3651C29.3689 40.6396 29.4801 40.9733 29.7545 41.1106C29.8342 41.1504 29.919 41.1693 30.0026 41.1693C30.2063 41.1693 30.4025 41.0567 30.4999 40.8621C33.3323 35.1974 31.727 27.4893 31.6573 27.1639Z" fill="white"/>
<path d="M25.5371 26.5879C25.4625 26.2901 25.1602 26.1095 24.8633 26.1836C24.5656 26.2581 24.3847 26.5597 24.459 26.8573C24.4697 26.9003 25.5124 31.2003 23.9154 35.9914C23.8184 36.2825 23.9757 36.5971 24.2667 36.6941C24.3249 36.7135 24.3842 36.7228 24.4425 36.7228C24.675 36.7228 24.8919 36.5756 24.9695 36.3428C26.6679 31.2479 25.584 26.7757 25.5371 26.5879Z" fill="white"/>
<path d="M24.0957 37.8749C23.8112 37.7609 23.4877 37.8993 23.3736 38.1844L22.2625 40.9621C22.1486 41.247 22.2871 41.5703 22.572 41.6842C22.6397 41.7114 22.7094 41.7241 22.7782 41.7241C22.9986 41.7241 23.2072 41.592 23.2942 41.3747L24.4053 38.597C24.5192 38.3122 24.3807 37.9888 24.0957 37.8749Z" fill="white"/>
<path d="M28.3303 33.3643C28.33 33.3643 28.3299 33.3643 28.3298 33.3643C28.0234 33.3643 27.7748 33.6236 27.7742 33.93C27.7742 33.9624 27.7501 37.2118 26.1525 40.9396C26.0316 41.2216 26.1622 41.551 26.4444 41.6719C26.5157 41.7024 26.5899 41.7182 26.6629 41.7182C26.8784 41.7182 27.0835 41.5928 27.1738 41.382C28.8659 37.4337 28.8854 34.0711 28.8854 33.9303C28.8853 33.6236 28.6369 33.3643 28.3303 33.3643Z" fill="white"/>
</svg>
