<svg width="20" height="20" viewBox="0 0 20 20" fill="none" xmlns="http://www.w3.org/2000/svg">
<path d="M19.7745 8.21106L16.5578 5.22173C16.4059 5.07917 16.2067 5 16 5C15.7932 5 15.5941 5.07917 15.4422 5.22173L12.2255 8.21106C12.1223 8.30688 12.0501 8.43213 12.0182 8.57038C11.9864 8.70863 11.9964 8.85344 12.047 8.98581C12.0975 9.11818 12.1863 9.23194 12.3016 9.31217C12.4169 9.39239 12.5534 9.43534 12.6932 9.43539L13.9701 9.43539C14.0083 9.43544 14.0449 9.4509 14.072 9.47836C14.099 9.50583 14.1142 9.54306 14.1142 9.5819L14.1142 18.31C14.1144 18.493 14.1861 18.6684 14.3134 18.7977C14.4408 18.9271 14.6134 18.9998 14.7935 19L17.1355 19C17.3155 18.9998 17.4881 18.9271 17.6155 18.7977C17.7428 18.6684 17.8144 18.493 17.8147 18.3101L17.8147 9.5819C17.8147 9.54306 17.8299 9.50582 17.8569 9.47835C17.884 9.45089 17.9206 9.43544 17.9589 9.43539L19.3068 9.43539C19.4466 9.43535 19.5831 9.39239 19.6984 9.31217C19.8137 9.23194 19.9025 9.11819 19.953 8.98581C20.0036 8.85344 20.0136 8.70864 19.9818 8.57038C19.9499 8.43213 19.8777 8.30688 19.7745 8.21106Z" fill="#03BF4E"/>
<path d="M17.5142 2.16773L14.2471 2.16772C14.102 2.16772 13.9629 2.11011 13.8604 2.00755C13.7578 1.90499 13.7002 1.76589 13.7002 1.62085C13.7002 1.47581 13.7578 1.33671 13.8604 1.23415C13.9629 1.13159 14.102 1.07397 14.2471 1.07397L17.5142 1.07398C17.6593 1.07398 17.7984 1.13159 17.9009 1.23415C18.0035 1.33671 18.0611 1.47581 18.0611 1.62085C18.0611 1.76589 18.0035 1.90499 17.9009 2.00755C17.7984 2.11011 17.6593 2.16773 17.5142 2.16773Z" fill="#03BF4E"/>
<path d="M17.5142 3.89502L14.2471 3.89502C14.102 3.89502 13.9629 3.8374 13.8604 3.73484C13.7578 3.63228 13.7002 3.49318 13.7002 3.34814C13.7002 3.2031 13.7578 3.064 13.8604 2.96145C13.9629 2.85889 14.102 2.80127 14.2471 2.80127L17.5142 2.80127C17.6593 2.80127 17.7984 2.85889 17.9009 2.96145C18.0035 3.064 18.0611 3.20311 18.0611 3.34815C18.0611 3.49319 18.0035 3.63228 17.9009 3.73484C17.7984 3.8374 17.6593 3.89502 17.5142 3.89502Z" fill="#03BF4E"/>
<path d="M4.53106 19L2.17949 19C1.75406 19 1.40918 18.6551 1.40918 18.2297L1.40918 12.3697C1.40918 11.9443 1.75406 11.5994 2.17949 11.5994L4.53106 11.5994C4.95649 11.5994 5.30137 11.9443 5.30137 12.3697L5.30137 18.2297C5.30137 18.6551 4.95649 19 4.53106 19Z" fill="#03BF4E"/>
<path d="M7.80345 19L10.1553 19C10.3596 19 10.5555 18.9188 10.6999 18.7744C10.8444 18.63 10.9255 18.434 10.9255 18.2298L10.9255 8.90431C10.9255 8.70003 10.8444 8.50411 10.6999 8.35967C10.5555 8.21522 10.3596 8.13406 10.1553 8.13406L7.80346 8.13406C7.59917 8.13406 7.40326 8.21521 7.25881 8.35966C7.11436 8.50411 7.0332 8.70003 7.0332 8.90431L7.0332 18.2299C7.0332 18.331 7.05313 18.4312 7.09184 18.5246C7.13055 18.6181 7.18729 18.703 7.25881 18.7745C7.33034 18.846 7.41525 18.9027 7.5087 18.9414C7.60215 18.9801 7.70231 19 7.80345 19Z" fill="#03BF4E"/>
</svg>
