<svg width="25" height="24" viewBox="0 0 25 24" fill="none" xmlns="http://www.w3.org/2000/svg">
<g clip-path="url(#clip0_5577_18954)">
<path d="M12.5 6C9.191 6 6.5 8.691 6.5 12C6.5 15.309 9.191 18 12.5 18C15.809 18 18.5 15.309 18.5 12C18.5 8.691 15.809 6 12.5 6ZM15.3 14.6C14.968 15.043 14.341 15.131 13.901 14.8L11.901 13.05C11.649 12.862 11.501 12.565 11.501 12.25V9C11.501 8.448 11.948 8 12.501 8C13.054 8 13.501 8.448 13.501 9V11.75L15.101 13.2C15.542 13.531 15.632 14.158 15.3 14.6V14.6Z" fill="#03BF4E"/>
<path d="M2 12C2 6.21104 6.71 1.50004 12.5 1.50004C14.579 1.50004 16.555 2.10704 18.232 3.20704L16.72 4.72004C16.248 5.19004 16.581 6.00004 17.25 6.00004H21.75C22.164 6.00004 22.5 5.66404 22.5 5.25004V0.750038C22.5 0.085038 21.694 -0.253962 21.22 0.220038L19.306 2.13404C17.335 0.765038 14.984 3.81037e-05 12.5 3.81037e-05C5.883 3.81037e-05 0.5 5.38304 0.5 12C0.5 13.173 0.673 14.339 1.013 15.466C1.132 15.861 1.547 16.087 1.948 15.968C2.344 15.848 2.569 15.43 2.449 15.033C2.151 14.046 2 13.026 2 12V12Z" fill="#03BF4E"/>
<path d="M23.987 8.53391C23.867 8.13691 23.452 7.91091 23.052 8.03191C22.656 8.15191 22.431 8.56991 22.551 8.96691C22.849 9.95392 23 10.9739 23 11.9999C23 17.7889 18.29 22.4999 12.5 22.4999C10.425 22.4999 8.45204 21.8959 6.77804 20.7999L8.28304 19.2779C8.75104 18.8039 8.41504 17.9999 7.75004 17.9999H3.25004C3.05004 17.9999 2.85704 18.0799 2.71704 18.2229C2.57704 18.3659 2.49804 18.5579 2.50004 18.7579L2.55004 23.2579C2.55604 23.9239 3.36904 24.2479 3.83304 23.7769L5.71104 21.8779C7.67804 23.2399 10.023 23.9999 12.5 23.9999C19.117 23.9999 24.5 18.6169 24.5 11.9999C24.5 10.8269 24.327 9.66092 23.987 8.53391V8.53391Z" fill="#03BF4E"/>
</g>
<defs>
<clipPath id="clip0_5577_18954">
<rect width="24" height="24" fill="white" transform="translate(0.5)"/>
</clipPath>
</defs>
</svg>
