<svg width="20" height="20" viewBox="0 0 20 20" fill="none" xmlns="http://www.w3.org/2000/svg">
<path d="M18.9266 7.09684L18.9274 7.09745C19.1062 7.23742 19.2507 7.41638 19.3499 7.62074C19.4492 7.8251 19.5005 8.04944 19.5 8.27667V8.27778V17.9981C19.4996 18.3964 19.3412 18.7782 19.0599 19.0597C18.7786 19.3413 18.3972 19.4996 17.9994 19.5H14.0005C13.6028 19.4996 13.2214 19.3413 12.9401 19.0597C12.6588 18.7782 12.5004 18.3964 12.5 17.9981V14.663V14.6627C12.4998 14.3534 12.377 14.0568 12.1583 13.838L11.8046 14.1914L12.1583 13.838C11.9396 13.6192 11.643 13.4961 11.3336 13.4959H11.3333H8.66667H8.66637C8.35697 13.4961 8.06038 13.6192 7.84171 13.838C7.62305 14.0568 7.50019 14.3534 7.5 14.6627V14.663L7.5 17.9981C7.5 17.9982 7.5 17.9983 7.5 17.9985C7.49946 18.3966 7.34116 18.7783 7.0599 19.0597L7.41357 19.4132L7.0599 19.0597C6.77856 19.3413 6.39718 19.4996 5.99945 19.5H2.00055C1.60283 19.4996 1.22145 19.3413 0.940108 19.0597L0.586434 19.4132L0.940107 19.0597C0.658817 18.7783 0.500508 18.3966 0.500004 17.9983L0.500005 8.27778L0.500003 8.27676C0.499539 8.04951 0.550848 7.82516 0.650016 7.62076L0.203187 7.40398L0.650016 7.62076C0.743816 7.42743 0.878092 7.25677 1.04354 7.12028L1.07336 7.09684L9.06931 0.810584C9.33778 0.60899 9.66435 0.5 10 0.5C10.3356 0.5 10.6622 0.60899 10.9307 0.810584L18.9266 7.09684Z" stroke="#B1B1B1"/>
</svg>
