<svg width="20" height="20" viewBox="0 0 20 20" fill="none" xmlns="http://www.w3.org/2000/svg">
<path d="M19.2357 6.70377L11.2357 0.41433C10.8797 0.145456 10.446 0 10 0C9.55405 0 9.12025 0.145456 8.76433 0.41433L0.764337 6.70377H0.76367C0.52521 6.8908 0.332493 7.12977 0.200166 7.40251C0.0678391 7.67525 -0.000615629 7.97459 4.17153e-06 8.27778V17.9986C0.000586491 18.5292 0.211487 19.038 0.586434 19.4132C0.96138 19.7884 1.46975 19.9994 2 20H6C6.53026 19.9994 7.03863 19.7884 7.41357 19.4132C7.78852 19.038 7.99942 18.5292 8 17.9986V14.663C8.00011 14.4861 8.07038 14.3165 8.19538 14.1914C8.32038 14.0663 8.48989 13.996 8.66667 13.9959H11.3333C11.5101 13.996 11.6796 14.0663 11.8046 14.1914C11.9296 14.3165 11.9999 14.4861 12 14.663V17.9986C12.0006 18.5292 12.2115 19.038 12.5864 19.4132C12.9614 19.7884 13.4697 19.9994 14 20H18C18.5303 19.9994 19.0386 19.7884 19.4136 19.4132C19.7885 19.038 19.9994 18.5292 20 17.9986V8.27778C20.0007 7.97451 19.9322 7.6751 19.7997 7.40233C19.6673 7.12956 19.4743 6.89064 19.2357 6.70377V6.70377Z" fill="#BF0C26"/>
</svg>
