<svg width="41" height="40" viewBox="0 0 41 40" fill="none" xmlns="http://www.w3.org/2000/svg">
<circle cx="20.5" cy="20" r="20" fill="#E9F2FF"/>
<g clip-path="url(#clip0_5577_16146)">
<path d="M20.2019 26.3968C20.2022 25.3094 20.4766 24.2422 20.9961 23.3074C21.5156 22.3727 22.261 21.605 23.154 21.085C24.047 20.5651 25.0546 20.3121 26.0706 20.3528C27.0867 20.3935 28.0737 20.7263 28.9279 21.3161C28.9339 20.868 28.9371 20.3897 28.9371 19.8737C28.9371 17.2204 28.8528 15.5643 28.686 13.849H28.7097C28.6175 12.8932 28.2762 11.9843 27.7246 11.2257C27.1731 10.4672 26.4334 9.88957 25.5899 9.55859C25.5453 9.54055 25.5007 9.52336 25.4557 9.50703C25.1223 9.3872 24.7777 9.30694 24.4279 9.2677L24.3946 9.26383C23.0602 9.1173 22.8461 9 20.0324 9C17.2187 9 16.7634 9.1173 15.4303 9.26598L15.397 9.26984C15.0298 9.31108 14.6683 9.39759 14.3198 9.52766V9.50832C13.4506 9.82435 12.6845 10.4002 12.1121 11.1678C11.5397 11.9353 11.185 12.8622 11.0902 13.8387C10.9231 15.5575 10.8379 17.2152 10.8379 19.8737C10.8379 22.5321 10.9231 24.1899 11.0902 25.9086C11.2043 27.0815 11.6922 28.1767 12.4719 29.0105C13.2516 29.8442 14.2757 30.3659 15.3724 30.4878L15.4058 30.4917C16.7401 30.6404 16.9539 30.7577 19.7676 30.7577C20.6997 30.7577 21.3747 30.7448 21.9047 30.722C21.365 30.1593 20.9363 29.4867 20.6438 28.7438C20.3513 28.0009 20.2011 27.2028 20.2019 26.3968ZM15.501 14.7213H24.2724C24.5262 14.7213 24.7697 14.8291 24.9491 15.0211C25.1286 15.213 25.2295 15.4734 25.2295 15.7448C25.2295 16.0163 25.1286 16.2766 24.9491 16.4685C24.7697 16.6605 24.5262 16.7683 24.2724 16.7683H15.503C15.2492 16.7683 15.0058 16.6605 14.8263 16.4685C14.6468 16.2766 14.546 16.0163 14.546 15.7448C14.546 15.4734 14.6468 15.213 14.8263 15.0211C15.0058 14.8291 15.2492 14.7213 15.503 14.7213H15.501ZM15.501 21.1481C15.2505 21.1426 15.012 21.0324 14.8367 20.841C14.6614 20.6496 14.5632 20.3923 14.5632 20.1244C14.5632 19.8565 14.6614 19.5992 14.8367 19.4078C15.012 19.2164 15.2505 19.1062 15.501 19.1007H20.5037C20.631 19.0979 20.7576 19.1223 20.876 19.1725C20.9945 19.2227 21.1023 19.2976 21.1933 19.393C21.2843 19.4883 21.3566 19.6021 21.406 19.7277C21.4553 19.8533 21.4807 19.9882 21.4807 20.1244C21.4807 20.2606 21.4553 20.3955 21.406 20.5211C21.3566 20.6467 21.2843 20.7605 21.1933 20.8558C21.1023 20.9511 20.9945 21.0261 20.876 21.0763C20.7576 21.1265 20.631 21.1509 20.5037 21.1481H15.501Z" fill="#0081FF"/>
<path d="M25.858 21.7935C25.0067 21.7935 24.1745 22.0634 23.4667 22.5692C22.7588 23.0751 22.2071 23.794 21.8814 24.6351C21.5556 25.4762 21.4703 26.4018 21.6364 27.2947C21.8025 28.1877 22.2125 29.0079 22.8144 29.6517C23.4164 30.2954 24.1833 30.7339 25.0183 30.9115C25.8533 31.0891 26.7187 30.9979 27.5052 30.6495C28.2917 30.3011 28.964 29.7111 29.437 28.9541C29.9099 28.1971 30.1624 27.3071 30.1624 26.3967C30.1624 25.1758 29.7089 24.005 28.9017 23.1417C28.0944 22.2784 26.9996 21.7935 25.858 21.7935ZM27.564 27.0704H25.7725C25.6366 27.0704 25.5063 27.0127 25.4102 26.91C25.3142 26.8072 25.2602 26.6679 25.2602 26.5226V23.5792C25.2602 23.4339 25.3142 23.2946 25.4102 23.1918C25.5063 23.0891 25.6366 23.0314 25.7725 23.0314C25.9083 23.0314 26.0386 23.0891 26.1347 23.1918C26.2308 23.2946 26.2847 23.4339 26.2847 23.5792V25.9747H27.564C27.6999 25.9747 27.8302 26.0325 27.9263 26.1352C28.0223 26.2379 28.0763 26.3773 28.0763 26.5226C28.0763 26.6679 28.0223 26.8072 27.9263 26.91C27.8302 27.0127 27.6999 27.0704 27.564 27.0704Z" fill="#0081FF"/>
</g>
<defs>
<clipPath id="clip0_5577_16146">
<rect width="24" height="22" fill="white" transform="translate(8.5 9)"/>
</clipPath>
</defs>
</svg>
