<svg width="164" height="120" viewBox="0 0 164 120" fill="none" xmlns="http://www.w3.org/2000/svg">
<rect width="164" height="120" rx="5" fill="#EEEEEE"/>
<g clip-path="url(#clip0_5577_17863)">
<path d="M134.595 17.5H31.5278C23.0763 17.5 16.207 23.4595 16.207 30.7917V91.2083C16.207 98.5405 23.0763 104.5 31.5278 104.5H134.595C143.046 104.5 149.915 98.5405 149.915 91.2083V30.7917C149.915 23.4595 143.046 17.5 134.595 17.5ZM57.9909 36.8333C65.6679 36.8333 71.9188 42.2563 71.9188 48.9167C71.9188 55.577 65.6679 61 57.9909 61C50.3138 61 44.0629 55.577 44.0629 48.9167C44.0629 42.2563 50.3138 36.8333 57.9909 36.8333ZM83.0611 81.5417C83.0611 83.5427 81.1892 85.1667 78.8828 85.1667H37.0989C34.7925 85.1667 32.9206 83.5427 32.9206 81.5417V79.125C32.9206 71.7928 39.7898 65.8333 48.2413 65.8333H67.7404C76.1919 65.8333 83.0611 71.7928 83.0611 79.125V81.5417ZM129.023 85.1667H98.3819C96.0754 85.1667 94.2035 83.5427 94.2035 81.5417C94.2035 79.5407 96.0754 77.9167 98.3819 77.9167H129.023C131.33 77.9167 133.202 79.5407 133.202 81.5417C133.202 83.5427 131.33 85.1667 129.023 85.1667ZM129.023 65.8333H98.3819C96.0754 65.8333 94.2035 64.2093 94.2035 62.2083C94.2035 60.2073 96.0754 58.5833 98.3819 58.5833H129.023C131.33 58.5833 133.202 60.2073 133.202 62.2083C133.202 64.2093 131.33 65.8333 129.023 65.8333ZM129.023 46.5H98.3819C96.0754 46.5 94.2035 44.876 94.2035 42.875C94.2035 40.874 96.0754 39.25 98.3819 39.25H129.023C131.33 39.25 133.202 40.874 133.202 42.875C133.202 44.876 131.33 46.5 129.023 46.5Z" fill="#B1B1B1"/>
</g>
<defs>
<clipPath id="clip0_5577_17863">
<rect width="135.3" height="88" fill="white" transform="translate(12.2998 17)"/>
</clipPath>
</defs>
</svg>
