<svg width="164" height="168" viewBox="0 0 164 168" fill="none" xmlns="http://www.w3.org/2000/svg">
<rect width="164" height="120" rx="5" fill="#EEEEEE"/>
<g clip-path="url(#clip0_5577_17862)">
<path d="M134.595 17.5H31.5278C23.0763 17.5 16.207 23.4595 16.207 30.7917V91.2083C16.207 98.5405 23.0763 104.5 31.5278 104.5H134.595C143.046 104.5 149.915 98.5405 149.915 91.2083V30.7917C149.915 23.4595 143.046 17.5 134.595 17.5ZM57.9909 36.8333C65.6679 36.8333 71.9188 42.2563 71.9188 48.9167C71.9188 55.577 65.6679 61 57.9909 61C50.3138 61 44.0629 55.577 44.0629 48.9167C44.0629 42.2563 50.3138 36.8333 57.9909 36.8333ZM83.0611 81.5417C83.0611 83.5427 81.1892 85.1667 78.8828 85.1667H37.0989C34.7925 85.1667 32.9206 83.5427 32.9206 81.5417V79.125C32.9206 71.7928 39.7898 65.8333 48.2413 65.8333H67.7404C76.1919 65.8333 83.0611 71.7928 83.0611 79.125V81.5417ZM129.023 85.1667H98.3819C96.0754 85.1667 94.2035 83.5427 94.2035 81.5417C94.2035 79.5407 96.0754 77.9167 98.3819 77.9167H129.023C131.33 77.9167 133.202 79.5407 133.202 81.5417C133.202 83.5427 131.33 85.1667 129.023 85.1667ZM129.023 65.8333H98.3819C96.0754 65.8333 94.2035 64.2093 94.2035 62.2083C94.2035 60.2073 96.0754 58.5833 98.3819 58.5833H129.023C131.33 58.5833 133.202 60.2073 133.202 62.2083C133.202 64.2093 131.33 65.8333 129.023 65.8333ZM129.023 46.5H98.3819C96.0754 46.5 94.2035 44.876 94.2035 42.875C94.2035 40.874 96.0754 39.25 98.3819 39.25H129.023C131.33 39.25 133.202 40.874 133.202 42.875C133.202 44.876 131.33 46.5 129.023 46.5Z" fill="#B1B1B1"/>
</g>
<rect x="22" y="136" width="120" height="32" rx="8" fill="#FFF3DC"/>
<path d="M64.7954 157.144C63.6861 157.144 62.7368 156.909 61.9474 156.44C61.1581 155.971 60.5501 155.304 60.1234 154.44C59.7074 153.576 59.4994 152.547 59.4994 151.352C59.4994 150.168 59.7074 149.144 60.1234 148.28C60.5501 147.416 61.1581 146.749 61.9474 146.28C62.7368 145.811 63.6861 145.576 64.7954 145.576C65.4568 145.576 66.0861 145.672 66.6834 145.864C67.2808 146.056 67.7981 146.328 68.2354 146.68C68.4168 146.808 68.5181 146.957 68.5394 147.128C68.5714 147.299 68.5448 147.453 68.4594 147.592C68.3741 147.72 68.2514 147.805 68.0914 147.848C67.9421 147.88 67.7714 147.827 67.5794 147.688C66.8221 147.08 65.9048 146.776 64.8274 146.776C63.5581 146.776 62.5874 147.176 61.9154 147.976C61.2434 148.776 60.9074 149.901 60.9074 151.352C60.9074 152.813 61.2434 153.944 61.9154 154.744C62.5874 155.544 63.5581 155.944 64.8274 155.944C65.9048 155.944 66.8328 155.635 67.6114 155.016C67.8034 154.888 67.9741 154.84 68.1234 154.872C68.2834 154.904 68.4008 154.984 68.4754 155.112C68.5608 155.24 68.5928 155.384 68.5714 155.544C68.5501 155.704 68.4594 155.848 68.2994 155.976C67.8408 156.36 67.3128 156.653 66.7154 156.856C66.1181 157.048 65.4781 157.144 64.7954 157.144ZM71.1451 157.112C70.7184 157.112 70.5051 156.888 70.5051 156.44V146.264C70.5051 145.827 70.7184 145.608 71.1451 145.608C71.5824 145.608 71.8011 145.827 71.8011 146.264V150.504C72.0571 150.035 72.4144 149.683 72.8731 149.448C73.3424 149.203 73.8651 149.08 74.4411 149.08C76.2864 149.08 77.2091 150.104 77.2091 152.152V156.44C77.2091 156.888 76.9957 157.112 76.5691 157.112C76.1317 157.112 75.9131 156.888 75.9131 156.44V152.232C75.9131 151.507 75.7691 150.979 75.4811 150.648C75.2037 150.307 74.7557 150.136 74.1371 150.136C73.4224 150.136 72.8517 150.36 72.4251 150.808C72.0091 151.245 71.8011 151.832 71.8011 152.568V156.44C71.8011 156.888 71.5824 157.112 71.1451 157.112ZM82.3508 157.144C80.4841 157.144 79.5508 156.115 79.5508 154.056V149.768C79.5508 149.331 79.7641 149.112 80.1908 149.112C80.6281 149.112 80.8468 149.331 80.8468 149.768V154.04C80.8468 154.733 80.9855 155.245 81.2628 155.576C81.5508 155.907 81.9988 156.072 82.6068 156.072C83.2681 156.072 83.8068 155.853 84.2228 155.416C84.6388 154.968 84.8468 154.376 84.8468 153.64V149.768C84.8468 149.331 85.0655 149.112 85.5028 149.112C85.9295 149.112 86.1428 149.331 86.1428 149.768V156.44C86.1428 156.888 85.9348 157.112 85.5188 157.112C85.0921 157.112 84.8788 156.888 84.8788 156.44V155.688C84.6335 156.157 84.2868 156.52 83.8388 156.776C83.4015 157.021 82.9055 157.144 82.3508 157.144ZM82.8788 160.056C82.3561 160.056 82.0948 159.8 82.0948 159.288C82.0948 158.787 82.3561 158.536 82.8788 158.536C83.4121 158.536 83.6788 158.787 83.6788 159.288C83.6788 159.8 83.4121 160.056 82.8788 160.056ZM89.2076 159.992C88.7809 159.992 88.5676 159.773 88.5676 159.336V149.768C88.5676 149.331 88.7756 149.112 89.1916 149.112C89.6289 149.112 89.8476 149.331 89.8476 149.768V150.6C90.0716 150.131 90.4182 149.763 90.8876 149.496C91.3569 149.219 91.8956 149.08 92.5036 149.08C93.1969 149.08 93.7996 149.245 94.3116 149.576C94.8342 149.896 95.2342 150.36 95.5116 150.968C95.7996 151.565 95.9436 152.28 95.9436 153.112C95.9436 153.933 95.7996 154.648 95.5116 155.256C95.2342 155.853 94.8342 156.317 94.3116 156.648C93.7996 156.979 93.1969 157.144 92.5036 157.144C91.9062 157.144 91.3729 157.011 90.9036 156.744C90.4342 156.477 90.0876 156.109 89.8636 155.64V159.336C89.8636 159.773 89.6449 159.992 89.2076 159.992ZM92.2316 156.104C92.9569 156.104 93.5382 155.848 93.9756 155.336C94.4129 154.813 94.6316 154.072 94.6316 153.112C94.6316 152.141 94.4129 151.4 93.9756 150.888C93.5382 150.376 92.9569 150.12 92.2316 150.12C91.5062 150.12 90.9249 150.376 90.4876 150.888C90.0502 151.4 89.8316 152.141 89.8316 153.112C89.8316 154.072 90.0502 154.813 90.4876 155.336C90.9249 155.848 91.5062 156.104 92.2316 156.104ZM104.469 157.144C103.935 157.144 103.455 157.043 103.029 156.84C102.613 156.627 102.282 156.339 102.037 155.976C101.791 155.613 101.669 155.208 101.669 154.76C101.669 154.195 101.813 153.747 102.101 153.416C102.399 153.085 102.885 152.851 103.557 152.712C104.239 152.563 105.167 152.488 106.341 152.488H106.853V151.992C106.853 151.331 106.714 150.856 106.437 150.568C106.17 150.269 105.738 150.12 105.141 150.12C104.767 150.12 104.389 150.168 104.005 150.264C103.631 150.36 103.242 150.515 102.837 150.728C102.655 150.824 102.501 150.845 102.373 150.792C102.255 150.728 102.17 150.632 102.117 150.504C102.074 150.365 102.074 150.227 102.117 150.088C102.17 149.939 102.277 149.827 102.437 149.752C102.895 149.517 103.354 149.347 103.813 149.24C104.282 149.133 104.725 149.08 105.141 149.08C106.143 149.08 106.885 149.325 107.365 149.816C107.855 150.307 108.101 151.069 108.101 152.104V156.44C108.101 156.888 107.903 157.112 107.509 157.112C107.093 157.112 106.885 156.888 106.885 156.44V155.656C106.682 156.115 106.367 156.477 105.941 156.744C105.525 157.011 105.034 157.144 104.469 157.144ZM104.677 156.168C105.317 156.168 105.839 155.949 106.245 155.512C106.65 155.064 106.853 154.499 106.853 153.816V153.336H106.357C105.493 153.336 104.81 153.379 104.309 153.464C103.818 153.539 103.471 153.677 103.269 153.88C103.077 154.072 102.981 154.339 102.981 154.68C102.981 155.117 103.13 155.475 103.429 155.752C103.738 156.029 104.154 156.168 104.677 156.168ZM105.157 148.296C104.869 148.296 104.725 148.173 104.725 147.928C104.725 147.661 104.773 147.443 104.869 147.272C104.965 147.101 105.077 146.957 105.205 146.84C105.343 146.712 105.461 146.595 105.557 146.488C105.663 146.371 105.717 146.237 105.717 146.088C105.717 145.789 105.471 145.64 104.981 145.64C104.874 145.64 104.757 145.651 104.629 145.672C104.511 145.683 104.394 145.709 104.277 145.752C103.999 145.848 103.823 145.795 103.749 145.592C103.663 145.357 103.754 145.181 104.021 145.064C104.191 144.989 104.378 144.936 104.581 144.904C104.783 144.872 104.997 144.856 105.221 144.856C105.711 144.856 106.09 144.952 106.357 145.144C106.634 145.336 106.773 145.603 106.773 145.944C106.773 146.211 106.714 146.424 106.597 146.584C106.479 146.744 106.341 146.888 106.181 147.016C106.031 147.133 105.893 147.261 105.765 147.4C105.647 147.539 105.589 147.72 105.589 147.944C105.589 148.179 105.445 148.296 105.157 148.296ZM111.145 157.112C110.718 157.112 110.505 156.888 110.505 156.44V149.768C110.505 149.331 110.713 149.112 111.129 149.112C111.556 149.112 111.769 149.331 111.769 149.768V150.552C112.025 150.061 112.388 149.693 112.857 149.448C113.326 149.203 113.854 149.08 114.441 149.08C116.286 149.08 117.209 150.104 117.209 152.152V156.44C117.209 156.888 116.996 157.112 116.569 157.112C116.132 157.112 115.913 156.888 115.913 156.44V152.232C115.913 151.507 115.769 150.979 115.481 150.648C115.204 150.307 114.756 150.136 114.137 150.136C113.422 150.136 112.852 150.36 112.425 150.808C112.009 151.245 111.801 151.832 111.801 152.568V156.44C111.801 156.888 111.582 157.112 111.145 157.112ZM120.239 157.112C119.812 157.112 119.599 156.888 119.599 156.44V146.264C119.599 145.827 119.812 145.608 120.239 145.608C120.676 145.608 120.895 145.827 120.895 146.264V150.504C121.151 150.035 121.508 149.683 121.967 149.448C122.436 149.203 122.959 149.08 123.535 149.08C125.38 149.08 126.303 150.104 126.303 152.152V156.44C126.303 156.888 126.089 157.112 125.663 157.112C125.225 157.112 125.007 156.888 125.007 156.44V152.232C125.007 151.507 124.863 150.979 124.575 150.648C124.297 150.307 123.849 150.136 123.231 150.136C122.516 150.136 121.945 150.36 121.519 150.808C121.103 151.245 120.895 151.832 120.895 152.568V156.44C120.895 156.888 120.676 157.112 120.239 157.112Z" fill="#FB7A04"/>
<path d="M49.674 147.5H47.527L47.277 146.75C47.1565 146.386 46.9242 146.069 46.6131 145.845C46.302 145.62 45.9281 145.5 45.5445 145.5H42.4555C42.072 145.5 41.6982 145.62 41.3873 145.845C41.0763 146.069 40.844 146.386 40.7235 146.75L40.473 147.5H38.326C37.8419 147.501 37.3777 147.693 37.0354 148.035C36.6931 148.378 36.5005 148.842 36.5 149.326V156.676C36.5011 157.16 36.6938 157.623 37.0361 157.965C37.3784 158.307 37.8422 158.499 38.326 158.5H49.676C50.1598 158.499 50.6234 158.306 50.9653 157.964C51.3072 157.622 51.4995 157.158 51.5 156.674V149.324C51.4989 148.84 51.3062 148.377 50.9639 148.035C50.6216 147.693 50.1578 147.501 49.674 147.5ZM50.5 156.674C50.4997 156.893 50.4126 157.103 50.2578 157.258C50.1029 157.413 49.893 157.5 49.674 157.5H38.326C38.107 157.5 37.8971 157.413 37.7422 157.258C37.5874 157.103 37.5003 156.893 37.5 156.674V149.324C37.5008 149.105 37.5881 148.896 37.7429 148.742C37.8977 148.587 38.1074 148.5 38.326 148.5H40.8335C40.9384 148.5 41.0406 148.467 41.1257 148.405C41.2107 148.344 41.2744 148.258 41.3075 148.158L41.672 147.064C41.7267 146.9 41.8319 146.757 41.9725 146.656C42.1132 146.554 42.2822 146.5 42.4555 146.5H45.5445C45.7179 146.5 45.887 146.554 46.0277 146.656C46.1683 146.757 46.2734 146.9 46.328 147.065L46.6925 148.158C46.7256 148.258 46.7893 148.344 46.8743 148.405C46.9594 148.467 47.0616 148.5 47.1665 148.5H49.674C49.893 148.5 50.1029 148.587 50.2578 148.742C50.4126 148.897 50.4997 149.107 50.5 149.326V156.674Z" fill="#FB7A04"/>
<path d="M44 149C43.2583 149 42.5333 149.22 41.9166 149.632C41.2999 150.044 40.8193 150.63 40.5355 151.315C40.2516 152 40.1774 152.754 40.3221 153.482C40.4668 154.209 40.8239 154.877 41.3484 155.402C41.8728 155.926 42.541 156.283 43.2684 156.428C43.9958 156.573 44.7498 156.498 45.4351 156.215C46.1203 155.931 46.706 155.45 47.118 154.833C47.5301 154.217 47.75 153.492 47.75 152.75C47.7489 151.756 47.3535 150.803 46.6505 150.1C45.9475 149.396 44.9942 149.001 44 149ZM44 155.5C43.4561 155.5 42.9244 155.339 42.4722 155.037C42.0199 154.734 41.6675 154.305 41.4593 153.802C41.2512 153.3 41.1967 152.747 41.3028 152.214C41.409 151.68 41.6709 151.19 42.0555 150.805C42.4401 150.421 42.9301 150.159 43.4635 150.053C43.997 149.947 44.5499 150.001 45.0524 150.209C45.5549 150.417 45.9844 150.77 46.2865 151.222C46.5887 151.674 46.75 152.206 46.75 152.75C46.7492 153.479 46.4592 154.178 45.9437 154.694C45.4281 155.209 44.7291 155.499 44 155.5Z" fill="#FB7A04"/>
<path d="M49 150.5C49.2761 150.5 49.5 150.276 49.5 150C49.5 149.724 49.2761 149.5 49 149.5C48.7239 149.5 48.5 149.724 48.5 150C48.5 150.276 48.7239 150.5 49 150.5Z" fill="#FB7A04"/>
<defs>
<clipPath id="clip0_5577_17862">
<rect width="135.3" height="88" fill="white" transform="translate(12.2998 17)"/>
</clipPath>
</defs>
</svg>
