<svg width="163" height="120" viewBox="0 0 163 120" fill="none" xmlns="http://www.w3.org/2000/svg">
<rect width="162.905" height="120" rx="5" fill="#EEEEEE"/>
<rect x="10.1816" y="18" width="142.542" height="87" rx="10" fill="#EFEFEF"/>
<rect x="65.1621" y="32" width="72.289" height="13" rx="5" fill="#B1B1B1"/>
<rect x="65.1621" y="62" width="72.289" height="13" rx="5" fill="#B1B1B1"/>
<rect x="65.1621" y="49" width="50.9077" height="8" rx="4" fill="#B1B1B1"/>
<rect x="65.1621" y="79" width="50.9077" height="8" rx="4" fill="#B1B1B1"/>
<rect x="15.272" y="32" width="40.7262" height="25" rx="10" fill="#B1B1B1"/>
<g clip-path="url(#clip0_5577_17869)">
<path d="M26.1095 39.5083C25.4123 40.9678 25.0581 42.6468 25.0581 44.4993C25.0581 46.3651 25.4123 48.0451 26.1106 49.4912C26.2263 49.7308 26.5251 49.8362 26.7777 49.726C27.0292 49.6148 27.1399 49.3321 27.0242 49.0906C26.3873 47.7701 26.0643 46.2252 26.0643 44.4993C26.0643 42.7848 26.3873 41.2399 27.0252 39.9059C27.0564 39.8418 27.0705 39.7737 27.0705 39.7076C27.0705 39.5255 26.9608 39.3511 26.7756 39.2706C26.5231 39.1613 26.2242 39.2677 26.1095 39.5083Z" fill="white"/>
<path d="M30.2393 37.4488C28.1665 39.3913 27.0708 41.8303 27.0708 44.5012C27.0708 47.1615 28.1665 49.5985 30.2382 51.5478C30.4365 51.7337 30.7554 51.7318 30.9506 51.544C31.1458 51.3552 31.1428 51.0523 30.9466 50.8664C29.0691 49.1002 28.077 46.8998 28.077 44.5012C28.077 42.0928 29.0691 39.8897 30.9456 38.1321C31.0452 38.0382 31.0955 37.9145 31.0955 37.7909C31.0955 37.6702 31.0472 37.5485 30.9506 37.4545C30.7554 37.2657 30.4375 37.2629 30.2393 37.4488Z" fill="white"/>
<path d="M29.083 44.5002C29.083 45.1836 29.1715 45.8621 29.3466 46.5176C29.415 46.7744 29.6887 46.9296 29.9584 46.8645C30.228 46.7993 30.389 46.5367 30.3216 46.2818C30.1677 45.7039 30.0892 45.104 30.0892 44.5002C30.0892 40.5366 33.4739 37.3127 37.6355 37.3127C37.9132 37.3127 38.1386 37.0981 38.1386 36.8336C38.1386 36.5691 37.9132 36.3544 37.6355 36.3544C32.9196 36.3544 29.083 40.0085 29.083 44.5002Z" fill="white"/>
<path d="M30.4175 47.9357C30.179 48.0679 30.0975 48.3602 30.2374 48.5912C30.6127 49.2026 31.0765 49.7709 31.6159 50.2778C33.1996 51.77 35.3337 52.6104 37.6267 52.6449C37.9044 52.6487 38.1329 52.4379 38.1369 52.1725C38.1369 52.1705 38.1369 52.1677 38.1369 52.1648C38.1369 51.9041 37.9175 51.6904 37.6418 51.6866C35.6094 51.6559 33.7208 50.9142 32.3222 49.5965C31.8453 49.148 31.4368 48.6468 31.1057 48.1072C30.9659 47.8791 30.658 47.8025 30.4175 47.9357Z" fill="white"/>
<path d="M33.342 39.8044C31.9142 40.9908 31.0952 42.7024 31.0952 44.5003C31.0952 46.1716 31.7834 47.7385 33.0321 48.9134C34.2737 50.0845 35.9531 50.7285 37.7853 50.7285C38.868 50.7256 40.1659 51.0476 41.4126 51.6245L41.9157 51.8938C42.1582 52.0232 42.4641 51.9417 42.6009 51.7108C42.6452 51.636 42.6663 51.5555 42.6663 51.476C42.6663 51.3083 42.5737 51.1453 42.4097 51.0581L41.8805 50.7754C40.4497 50.1132 39.0331 49.7663 37.7592 49.7701C36.2188 49.7701 34.792 49.2248 33.7395 48.233C32.6831 47.2382 32.1015 45.9138 32.1015 44.5003C32.1015 42.9794 32.7947 41.5304 34.0041 40.527C34.2134 40.3536 34.2345 40.0498 34.0524 39.8504C33.8692 39.6511 33.5513 39.631 33.342 39.8044Z" fill="white"/>
<path d="M43.4358 37.3809L41.5794 37.9214C40.1235 38.2252 38.7339 38.2511 37.9028 38.2674L37.6362 38.2722C36.8906 38.2722 36.1581 38.392 35.4588 38.6277C35.1972 38.7159 35.0604 38.9871 35.153 39.2392C35.2456 39.4883 35.5323 39.6187 35.7949 39.5305C36.3856 39.3312 37.0054 39.2305 37.6493 39.2305L37.923 39.2248C38.7903 39.2075 40.2422 39.1807 41.833 38.8472L43.7286 38.299C43.9459 38.2367 44.0848 38.046 44.0848 37.84C44.0848 37.794 44.0778 37.747 44.0637 37.7C43.9821 37.447 43.7024 37.3042 43.4358 37.3809Z" fill="white"/>
<path d="M45.7586 38.779L44.2604 39.2246C41.6685 40.0152 38.7546 40.1628 37.6347 40.1886C35.1384 40.1886 33.1069 42.1235 33.1069 44.5011C33.1069 46.8788 35.1696 48.8127 37.7223 48.8127C38.2515 48.8108 41.0477 48.9038 44.1125 50.9278C44.3409 51.0792 44.6548 51.0246 44.8128 50.808C44.9707 50.5914 44.9144 50.2914 44.687 50.141C41.4582 48.0077 38.5373 47.8515 37.7061 47.8544C35.725 47.8544 34.1141 46.3498 34.1141 44.5012C34.1141 42.6516 35.6938 41.147 37.6478 41.147C39.1088 41.1125 41.9502 40.9352 44.5653 40.1379L46.0574 39.6951C46.2727 39.6309 46.4106 39.4421 46.4106 39.2371C46.4106 39.1901 46.4036 39.1422 46.3885 39.0943C46.3049 38.8413 46.0232 38.7004 45.7586 38.779Z" fill="white"/>
<path d="M37.6346 42.1049C36.2481 42.1049 35.1191 43.1802 35.1191 44.5007C35.1191 45.8213 36.2481 46.8966 37.6537 46.8966C37.8197 46.8908 41.772 46.7844 45.9305 49.8281C46.1509 49.9891 46.4668 49.9498 46.6359 49.7399C46.8059 49.5291 46.7626 49.2291 46.5433 49.0681C42.1 45.8165 37.7966 45.9334 37.6346 45.9392C36.8025 45.9392 36.1253 45.2942 36.1253 44.5017C36.1253 43.7091 36.8025 43.0642 37.6457 43.0632C38.2092 43.0498 43.2924 43.0469 48.3957 46.7883C48.616 46.9493 48.932 46.911 49.101 46.7011C49.1714 46.6129 49.2057 46.5104 49.2057 46.4088C49.2057 46.265 49.1383 46.1232 49.0095 46.0293C43.6243 42.08 38.2212 42.0915 37.6346 42.1049Z" fill="white"/>
<path d="M37.6142 44.024C37.3375 44.0365 37.1171 44.2435 37.1342 44.5233C37.1463 44.7869 37.3808 44.9919 37.6585 44.9814C37.6655 44.9814 38.402 44.9546 39.5662 45.1328C39.8409 45.174 40.0995 44.9958 40.1437 44.7351C40.1477 44.7092 40.1497 44.6834 40.1497 44.6584C40.1497 44.4275 39.9737 44.2234 39.7271 44.186C38.4503 43.9905 37.6474 44.0221 37.6142 44.024Z" fill="white"/>
<path d="M41.1924 44.9643C41.1129 45.2193 41.2658 45.4847 41.5315 45.5604C43.6555 46.1594 45.6417 47.156 47.4367 48.5207C47.654 48.6855 47.97 48.652 48.144 48.445C48.2185 48.3568 48.2537 48.2515 48.2537 48.146C48.2537 48.0052 48.1893 47.8662 48.0645 47.7713C46.1689 46.329 44.067 45.2758 41.8182 44.6405C41.5516 44.5657 41.2709 44.7104 41.1924 44.9643Z" fill="white"/>
<path d="M47.2178 40.3193L45.291 40.8972C44.5686 41.1272 43.8049 41.3419 43.8019 41.3429C43.5976 41.4004 43.4537 41.5729 43.4417 41.775C43.4266 41.982 43.5513 42.1651 43.7475 42.2437C43.7737 42.2542 46.4089 43.3218 48.4313 44.5456C48.6658 44.6874 48.9767 44.6213 49.1256 44.398C49.1789 44.3185 49.204 44.2294 49.204 44.1412C49.204 43.9822 49.1216 43.8278 48.9706 43.7368C47.7461 42.996 46.3385 42.3232 45.3595 41.8843C45.44 41.8594 45.5215 41.8335 45.6019 41.8077L47.5197 41.2336C47.7843 41.154 47.9332 40.8877 47.8487 40.6327C47.7651 40.3807 47.4834 40.2398 47.2178 40.3193Z" fill="white"/>
</g>
<rect x="15.272" y="62" width="40.7262" height="25" rx="10" fill="#B1B1B1"/>
<g clip-path="url(#clip1_5577_17869)">
<path d="M26.1095 69.5083C25.4123 70.9678 25.0581 72.6468 25.0581 74.4993C25.0581 76.3651 25.4123 78.0451 26.1106 79.4912C26.2263 79.7308 26.5251 79.8362 26.7777 79.726C27.0292 79.6148 27.1399 79.3321 27.0242 79.0906C26.3873 77.7701 26.0643 76.2252 26.0643 74.4993C26.0643 72.7848 26.3873 71.2399 27.0252 69.9059C27.0564 69.8418 27.0705 69.7737 27.0705 69.7076C27.0705 69.5255 26.9608 69.3511 26.7756 69.2706C26.5231 69.1613 26.2242 69.2677 26.1095 69.5083Z" fill="white"/>
<path d="M30.2393 67.4488C28.1665 69.3913 27.0708 71.8303 27.0708 74.5012C27.0708 77.1615 28.1665 79.5985 30.2382 81.5478C30.4365 81.7337 30.7554 81.7318 30.9506 81.544C31.1458 81.3552 31.1428 81.0523 30.9466 80.8664C29.0691 79.1002 28.077 76.8998 28.077 74.5012C28.077 72.0928 29.0691 69.8897 30.9456 68.1321C31.0452 68.0382 31.0955 67.9145 31.0955 67.7909C31.0955 67.6702 31.0472 67.5485 30.9506 67.4545C30.7554 67.2657 30.4375 67.2629 30.2393 67.4488Z" fill="white"/>
<path d="M29.083 74.5002C29.083 75.1836 29.1715 75.8621 29.3466 76.5176C29.415 76.7744 29.6887 76.9296 29.9584 76.8645C30.228 76.7993 30.389 76.5367 30.3216 76.2818C30.1677 75.7039 30.0892 75.104 30.0892 74.5002C30.0892 70.5366 33.4739 67.3127 37.6355 67.3127C37.9132 67.3127 38.1386 67.0981 38.1386 66.8336C38.1386 66.5691 37.9132 66.3544 37.6355 66.3544C32.9196 66.3544 29.083 70.0085 29.083 74.5002Z" fill="white"/>
<path d="M30.4175 77.9357C30.179 78.0679 30.0975 78.3602 30.2374 78.5912C30.6127 79.2026 31.0765 79.7709 31.6159 80.2778C33.1996 81.77 35.3337 82.6104 37.6267 82.6449C37.9044 82.6487 38.1329 82.4379 38.1369 82.1725C38.1369 82.1705 38.1369 82.1677 38.1369 82.1648C38.1369 81.9041 37.9175 81.6904 37.6418 81.6866C35.6094 81.6559 33.7208 80.9142 32.3222 79.5965C31.8453 79.148 31.4368 78.6468 31.1057 78.1072C30.9659 77.8791 30.658 77.8025 30.4175 77.9357Z" fill="white"/>
<path d="M33.342 69.8044C31.9142 70.9908 31.0952 72.7024 31.0952 74.5003C31.0952 76.1716 31.7834 77.7385 33.0321 78.9134C34.2737 80.0845 35.9531 80.7285 37.7853 80.7285C38.868 80.7256 40.1659 81.0476 41.4126 81.6245L41.9157 81.8938C42.1582 82.0232 42.4641 81.9417 42.6009 81.7108C42.6452 81.636 42.6663 81.5555 42.6663 81.476C42.6663 81.3083 42.5737 81.1453 42.4097 81.0581L41.8805 80.7754C40.4497 80.1132 39.0331 79.7663 37.7592 79.7701C36.2188 79.7701 34.792 79.2248 33.7395 78.233C32.6831 77.2382 32.1015 75.9138 32.1015 74.5003C32.1015 72.9794 32.7947 71.5304 34.0041 70.527C34.2134 70.3536 34.2345 70.0498 34.0524 69.8504C33.8692 69.6511 33.5513 69.631 33.342 69.8044Z" fill="white"/>
<path d="M43.4358 67.3809L41.5794 67.9214C40.1235 68.2252 38.7339 68.2511 37.9028 68.2674L37.6362 68.2722C36.8906 68.2722 36.1581 68.392 35.4588 68.6277C35.1972 68.7159 35.0604 68.9871 35.153 69.2392C35.2456 69.4883 35.5323 69.6187 35.7949 69.5305C36.3856 69.3312 37.0054 69.2305 37.6493 69.2305L37.923 69.2248C38.7903 69.2075 40.2422 69.1807 41.833 68.8472L43.7286 68.299C43.9459 68.2367 44.0848 68.046 44.0848 67.84C44.0848 67.794 44.0778 67.747 44.0637 67.7C43.9821 67.447 43.7024 67.3042 43.4358 67.3809Z" fill="white"/>
<path d="M45.7586 68.779L44.2604 69.2246C41.6685 70.0152 38.7546 70.1628 37.6347 70.1886C35.1384 70.1886 33.1069 72.1235 33.1069 74.5011C33.1069 76.8788 35.1696 78.8127 37.7223 78.8127C38.2515 78.8108 41.0477 78.9038 44.1125 80.9278C44.3409 81.0792 44.6548 81.0246 44.8128 80.808C44.9707 80.5914 44.9144 80.2914 44.687 80.141C41.4582 78.0077 38.5373 77.8515 37.7061 77.8544C35.725 77.8544 34.1141 76.3498 34.1141 74.5012C34.1141 72.6516 35.6938 71.147 37.6478 71.147C39.1088 71.1125 41.9502 70.9352 44.5653 70.1379L46.0574 69.6951C46.2727 69.6309 46.4106 69.4421 46.4106 69.2371C46.4106 69.1901 46.4036 69.1422 46.3885 69.0943C46.3049 68.8413 46.0232 68.7004 45.7586 68.779Z" fill="white"/>
<path d="M37.6346 72.1049C36.2481 72.1049 35.1191 73.1802 35.1191 74.5007C35.1191 75.8213 36.2481 76.8966 37.6537 76.8966C37.8197 76.8908 41.772 76.7844 45.9305 79.8281C46.1509 79.9891 46.4668 79.9498 46.6359 79.7399C46.8059 79.5291 46.7626 79.2291 46.5433 79.0681C42.1 75.8165 37.7966 75.9334 37.6346 75.9392C36.8025 75.9392 36.1253 75.2942 36.1253 74.5017C36.1253 73.7091 36.8025 73.0642 37.6457 73.0632C38.2092 73.0498 43.2924 73.0469 48.3957 76.7883C48.616 76.9493 48.932 76.911 49.101 76.7011C49.1714 76.6129 49.2057 76.5104 49.2057 76.4088C49.2057 76.265 49.1383 76.1232 49.0095 76.0293C43.6243 72.08 38.2212 72.0915 37.6346 72.1049Z" fill="white"/>
<path d="M37.6142 74.024C37.3375 74.0365 37.1171 74.2435 37.1342 74.5233C37.1463 74.7869 37.3808 74.9919 37.6585 74.9814C37.6655 74.9814 38.402 74.9546 39.5662 75.1328C39.8409 75.174 40.0995 74.9958 40.1437 74.7351C40.1477 74.7092 40.1497 74.6834 40.1497 74.6584C40.1497 74.4275 39.9737 74.2234 39.7271 74.186C38.4503 73.9905 37.6474 74.0221 37.6142 74.024Z" fill="white"/>
<path d="M41.1924 74.9643C41.1129 75.2193 41.2658 75.4847 41.5315 75.5604C43.6555 76.1594 45.6417 77.156 47.4367 78.5207C47.654 78.6855 47.97 78.652 48.144 78.445C48.2185 78.3568 48.2537 78.2515 48.2537 78.146C48.2537 78.0052 48.1893 77.8662 48.0645 77.7713C46.1689 76.329 44.067 75.2758 41.8182 74.6405C41.5516 74.5657 41.2709 74.7104 41.1924 74.9643Z" fill="white"/>
<path d="M47.2178 70.3193L45.291 70.8972C44.5686 71.1272 43.8049 71.3419 43.8019 71.3429C43.5976 71.4004 43.4537 71.5729 43.4417 71.775C43.4266 71.982 43.5513 72.1651 43.7475 72.2437C43.7737 72.2542 46.4089 73.3218 48.4313 74.5456C48.6658 74.6874 48.9767 74.6213 49.1256 74.398C49.1789 74.3185 49.204 74.2294 49.204 74.1412C49.204 73.9822 49.1216 73.8278 48.9706 73.7368C47.7461 72.996 46.3385 72.3232 45.3595 71.8843C45.44 71.8594 45.5215 71.8335 45.6019 71.8077L47.5197 71.2336C47.7843 71.154 47.9332 70.8877 47.8487 70.6327C47.7651 70.3807 47.4834 70.2398 47.2178 70.3193Z" fill="white"/>
</g>
<defs>
<clipPath id="clip0_5577_17869">
<rect width="23" height="24.4357" fill="white" transform="translate(23.417 56) rotate(-90)"/>
</clipPath>
<clipPath id="clip1_5577_17869">
<rect width="23" height="24.4357" fill="white" transform="translate(23.417 86) rotate(-90)"/>
</clipPath>
</defs>
</svg>
