<svg width="163" height="168" viewBox="0 0 163 168" fill="none" xmlns="http://www.w3.org/2000/svg">
<rect width="162.905" height="120" rx="5" fill="#EEEEEE"/>
<rect x="10.1816" y="18" width="142.542" height="87" rx="10" fill="#EFEFEF"/>
<rect x="65.1621" y="32" width="72.289" height="13" rx="5" fill="#B1B1B1"/>
<rect x="65.1621" y="62" width="72.289" height="13" rx="5" fill="#B1B1B1"/>
<rect x="65.1621" y="49" width="50.9077" height="8" rx="4" fill="#B1B1B1"/>
<rect x="65.1621" y="79" width="50.9077" height="8" rx="4" fill="#B1B1B1"/>
<rect x="15.272" y="32" width="40.7262" height="25" rx="10" fill="#B1B1B1"/>
<g clip-path="url(#clip0_5577_17868)">
<path d="M26.1095 39.5083C25.4123 40.9678 25.0581 42.6468 25.0581 44.4993C25.0581 46.3651 25.4123 48.0451 26.1106 49.4912C26.2263 49.7308 26.5251 49.8362 26.7777 49.726C27.0292 49.6148 27.1399 49.3321 27.0242 49.0906C26.3873 47.7701 26.0643 46.2252 26.0643 44.4993C26.0643 42.7848 26.3873 41.2399 27.0252 39.9059C27.0564 39.8418 27.0705 39.7737 27.0705 39.7076C27.0705 39.5255 26.9608 39.3511 26.7756 39.2706C26.5231 39.1613 26.2242 39.2677 26.1095 39.5083Z" fill="white"/>
<path d="M30.2393 37.4488C28.1665 39.3913 27.0708 41.8303 27.0708 44.5012C27.0708 47.1615 28.1665 49.5985 30.2382 51.5478C30.4365 51.7337 30.7554 51.7318 30.9506 51.544C31.1458 51.3552 31.1428 51.0523 30.9466 50.8664C29.0691 49.1002 28.077 46.8998 28.077 44.5012C28.077 42.0928 29.0691 39.8897 30.9456 38.1321C31.0452 38.0382 31.0955 37.9145 31.0955 37.7909C31.0955 37.6702 31.0472 37.5485 30.9506 37.4545C30.7554 37.2657 30.4375 37.2629 30.2393 37.4488Z" fill="white"/>
<path d="M29.083 44.5002C29.083 45.1836 29.1715 45.8621 29.3466 46.5176C29.415 46.7744 29.6887 46.9296 29.9584 46.8645C30.228 46.7993 30.389 46.5367 30.3216 46.2818C30.1677 45.7039 30.0892 45.104 30.0892 44.5002C30.0892 40.5366 33.4739 37.3127 37.6355 37.3127C37.9132 37.3127 38.1386 37.0981 38.1386 36.8336C38.1386 36.5691 37.9132 36.3544 37.6355 36.3544C32.9196 36.3544 29.083 40.0085 29.083 44.5002Z" fill="white"/>
<path d="M30.4175 47.9357C30.179 48.0679 30.0975 48.3602 30.2374 48.5912C30.6127 49.2026 31.0765 49.7709 31.6159 50.2778C33.1996 51.77 35.3337 52.6104 37.6267 52.6449C37.9044 52.6487 38.1329 52.4379 38.1369 52.1725C38.1369 52.1705 38.1369 52.1677 38.1369 52.1648C38.1369 51.9041 37.9175 51.6904 37.6418 51.6866C35.6094 51.6559 33.7208 50.9142 32.3222 49.5965C31.8453 49.148 31.4368 48.6468 31.1057 48.1072C30.9659 47.8791 30.658 47.8025 30.4175 47.9357Z" fill="white"/>
<path d="M33.342 39.8044C31.9142 40.9908 31.0952 42.7024 31.0952 44.5003C31.0952 46.1716 31.7834 47.7385 33.0321 48.9134C34.2737 50.0845 35.9531 50.7285 37.7853 50.7285C38.868 50.7256 40.1659 51.0476 41.4126 51.6245L41.9157 51.8938C42.1582 52.0232 42.4641 51.9417 42.6009 51.7108C42.6452 51.636 42.6663 51.5555 42.6663 51.476C42.6663 51.3083 42.5737 51.1453 42.4097 51.0581L41.8805 50.7754C40.4497 50.1132 39.0331 49.7663 37.7592 49.7701C36.2188 49.7701 34.792 49.2248 33.7395 48.233C32.6831 47.2382 32.1015 45.9138 32.1015 44.5003C32.1015 42.9794 32.7947 41.5304 34.0041 40.527C34.2134 40.3536 34.2345 40.0498 34.0524 39.8504C33.8692 39.6511 33.5513 39.631 33.342 39.8044Z" fill="white"/>
<path d="M43.4358 37.3809L41.5794 37.9214C40.1235 38.2252 38.7339 38.2511 37.9028 38.2674L37.6362 38.2722C36.8906 38.2722 36.1581 38.392 35.4588 38.6277C35.1972 38.7159 35.0604 38.9871 35.153 39.2392C35.2456 39.4883 35.5323 39.6187 35.7949 39.5305C36.3856 39.3312 37.0054 39.2305 37.6493 39.2305L37.923 39.2248C38.7903 39.2075 40.2422 39.1807 41.833 38.8472L43.7286 38.299C43.9459 38.2367 44.0848 38.046 44.0848 37.84C44.0848 37.794 44.0778 37.747 44.0637 37.7C43.9821 37.447 43.7024 37.3042 43.4358 37.3809Z" fill="white"/>
<path d="M45.7586 38.779L44.2604 39.2246C41.6685 40.0152 38.7546 40.1628 37.6347 40.1886C35.1384 40.1886 33.1069 42.1235 33.1069 44.5011C33.1069 46.8788 35.1696 48.8127 37.7223 48.8127C38.2515 48.8108 41.0477 48.9038 44.1125 50.9278C44.3409 51.0792 44.6548 51.0246 44.8128 50.808C44.9707 50.5914 44.9144 50.2914 44.687 50.141C41.4582 48.0077 38.5373 47.8515 37.7061 47.8544C35.725 47.8544 34.1141 46.3498 34.1141 44.5012C34.1141 42.6516 35.6938 41.147 37.6478 41.147C39.1088 41.1125 41.9502 40.9352 44.5653 40.1379L46.0574 39.6951C46.2727 39.6309 46.4106 39.4421 46.4106 39.2371C46.4106 39.1901 46.4036 39.1422 46.3885 39.0943C46.3049 38.8413 46.0232 38.7004 45.7586 38.779Z" fill="white"/>
<path d="M37.6346 42.1049C36.2481 42.1049 35.1191 43.1802 35.1191 44.5007C35.1191 45.8213 36.2481 46.8966 37.6537 46.8966C37.8197 46.8908 41.772 46.7844 45.9305 49.8281C46.1509 49.9891 46.4668 49.9498 46.6359 49.7399C46.8059 49.5291 46.7626 49.2291 46.5433 49.0681C42.1 45.8165 37.7966 45.9334 37.6346 45.9392C36.8025 45.9392 36.1253 45.2942 36.1253 44.5017C36.1253 43.7091 36.8025 43.0642 37.6457 43.0632C38.2092 43.0498 43.2924 43.0469 48.3957 46.7883C48.616 46.9493 48.932 46.911 49.101 46.7011C49.1714 46.6129 49.2057 46.5104 49.2057 46.4088C49.2057 46.265 49.1383 46.1232 49.0095 46.0293C43.6243 42.08 38.2212 42.0915 37.6346 42.1049Z" fill="white"/>
<path d="M37.6142 44.024C37.3375 44.0365 37.1171 44.2435 37.1342 44.5233C37.1463 44.7869 37.3808 44.9919 37.6585 44.9814C37.6655 44.9814 38.402 44.9546 39.5662 45.1328C39.8409 45.174 40.0995 44.9958 40.1437 44.7351C40.1477 44.7092 40.1497 44.6834 40.1497 44.6584C40.1497 44.4275 39.9737 44.2234 39.7271 44.186C38.4503 43.9905 37.6474 44.0221 37.6142 44.024Z" fill="white"/>
<path d="M41.1924 44.9643C41.1129 45.2193 41.2658 45.4847 41.5315 45.5604C43.6555 46.1594 45.6417 47.156 47.4367 48.5207C47.654 48.6855 47.97 48.652 48.144 48.445C48.2185 48.3568 48.2537 48.2515 48.2537 48.146C48.2537 48.0052 48.1893 47.8662 48.0645 47.7713C46.1689 46.329 44.067 45.2758 41.8182 44.6405C41.5516 44.5657 41.2709 44.7104 41.1924 44.9643Z" fill="white"/>
<path d="M47.2178 40.3193L45.291 40.8972C44.5686 41.1272 43.8049 41.3419 43.8019 41.3429C43.5976 41.4004 43.4537 41.5729 43.4417 41.775C43.4266 41.982 43.5513 42.1651 43.7475 42.2437C43.7737 42.2542 46.4089 43.3218 48.4313 44.5456C48.6658 44.6874 48.9767 44.6213 49.1256 44.398C49.1789 44.3185 49.204 44.2294 49.204 44.1412C49.204 43.9822 49.1216 43.8278 48.9706 43.7368C47.7461 42.996 46.3385 42.3232 45.3595 41.8843C45.44 41.8594 45.5215 41.8335 45.6019 41.8077L47.5197 41.2336C47.7843 41.154 47.9332 40.8877 47.8487 40.6327C47.7651 40.3807 47.4834 40.2398 47.2178 40.3193Z" fill="white"/>
</g>
<rect x="15.272" y="62" width="40.7262" height="25" rx="10" fill="#B1B1B1"/>
<g clip-path="url(#clip1_5577_17868)">
<path d="M26.1095 69.5083C25.4123 70.9678 25.0581 72.6468 25.0581 74.4993C25.0581 76.3651 25.4123 78.0451 26.1106 79.4912C26.2263 79.7308 26.5251 79.8362 26.7777 79.726C27.0292 79.6148 27.1399 79.3321 27.0242 79.0906C26.3873 77.7701 26.0643 76.2252 26.0643 74.4993C26.0643 72.7848 26.3873 71.2399 27.0252 69.9059C27.0564 69.8418 27.0705 69.7737 27.0705 69.7076C27.0705 69.5255 26.9608 69.3511 26.7756 69.2706C26.5231 69.1613 26.2242 69.2677 26.1095 69.5083Z" fill="white"/>
<path d="M30.2393 67.4488C28.1665 69.3913 27.0708 71.8303 27.0708 74.5012C27.0708 77.1615 28.1665 79.5985 30.2382 81.5478C30.4365 81.7337 30.7554 81.7318 30.9506 81.544C31.1458 81.3552 31.1428 81.0523 30.9466 80.8664C29.0691 79.1002 28.077 76.8998 28.077 74.5012C28.077 72.0928 29.0691 69.8897 30.9456 68.1321C31.0452 68.0382 31.0955 67.9145 31.0955 67.7909C31.0955 67.6702 31.0472 67.5485 30.9506 67.4545C30.7554 67.2657 30.4375 67.2629 30.2393 67.4488Z" fill="white"/>
<path d="M29.083 74.5002C29.083 75.1836 29.1715 75.8621 29.3466 76.5176C29.415 76.7744 29.6887 76.9296 29.9584 76.8645C30.228 76.7993 30.389 76.5367 30.3216 76.2818C30.1677 75.7039 30.0892 75.104 30.0892 74.5002C30.0892 70.5366 33.4739 67.3127 37.6355 67.3127C37.9132 67.3127 38.1386 67.0981 38.1386 66.8336C38.1386 66.5691 37.9132 66.3544 37.6355 66.3544C32.9196 66.3544 29.083 70.0085 29.083 74.5002Z" fill="white"/>
<path d="M30.4175 77.9357C30.179 78.0679 30.0975 78.3602 30.2374 78.5912C30.6127 79.2026 31.0765 79.7709 31.6159 80.2778C33.1996 81.77 35.3337 82.6104 37.6267 82.6449C37.9044 82.6487 38.1329 82.4379 38.1369 82.1725C38.1369 82.1705 38.1369 82.1677 38.1369 82.1648C38.1369 81.9041 37.9175 81.6904 37.6418 81.6866C35.6094 81.6559 33.7208 80.9142 32.3222 79.5965C31.8453 79.148 31.4368 78.6468 31.1057 78.1072C30.9659 77.8791 30.658 77.8025 30.4175 77.9357Z" fill="white"/>
<path d="M33.342 69.8044C31.9142 70.9908 31.0952 72.7024 31.0952 74.5003C31.0952 76.1716 31.7834 77.7385 33.0321 78.9134C34.2737 80.0845 35.9531 80.7285 37.7853 80.7285C38.868 80.7256 40.1659 81.0476 41.4126 81.6245L41.9157 81.8938C42.1582 82.0232 42.4641 81.9417 42.6009 81.7108C42.6452 81.636 42.6663 81.5555 42.6663 81.476C42.6663 81.3083 42.5737 81.1453 42.4097 81.0581L41.8805 80.7754C40.4497 80.1132 39.0331 79.7663 37.7592 79.7701C36.2188 79.7701 34.792 79.2248 33.7395 78.233C32.6831 77.2382 32.1015 75.9138 32.1015 74.5003C32.1015 72.9794 32.7947 71.5304 34.0041 70.527C34.2134 70.3536 34.2345 70.0498 34.0524 69.8504C33.8692 69.6511 33.5513 69.631 33.342 69.8044Z" fill="white"/>
<path d="M43.4358 67.3809L41.5794 67.9214C40.1235 68.2252 38.7339 68.2511 37.9028 68.2674L37.6362 68.2722C36.8906 68.2722 36.1581 68.392 35.4588 68.6277C35.1972 68.7159 35.0604 68.9871 35.153 69.2392C35.2456 69.4883 35.5323 69.6187 35.7949 69.5305C36.3856 69.3312 37.0054 69.2305 37.6493 69.2305L37.923 69.2248C38.7903 69.2075 40.2422 69.1807 41.833 68.8472L43.7286 68.299C43.9459 68.2367 44.0848 68.046 44.0848 67.84C44.0848 67.794 44.0778 67.747 44.0637 67.7C43.9821 67.447 43.7024 67.3042 43.4358 67.3809Z" fill="white"/>
<path d="M45.7586 68.779L44.2604 69.2246C41.6685 70.0152 38.7546 70.1628 37.6347 70.1886C35.1384 70.1886 33.1069 72.1235 33.1069 74.5011C33.1069 76.8788 35.1696 78.8127 37.7223 78.8127C38.2515 78.8108 41.0477 78.9038 44.1125 80.9278C44.3409 81.0792 44.6548 81.0246 44.8128 80.808C44.9707 80.5914 44.9144 80.2914 44.687 80.141C41.4582 78.0077 38.5373 77.8515 37.7061 77.8544C35.725 77.8544 34.1141 76.3498 34.1141 74.5012C34.1141 72.6516 35.6938 71.147 37.6478 71.147C39.1088 71.1125 41.9502 70.9352 44.5653 70.1379L46.0574 69.6951C46.2727 69.6309 46.4106 69.4421 46.4106 69.2371C46.4106 69.1901 46.4036 69.1422 46.3885 69.0943C46.3049 68.8413 46.0232 68.7004 45.7586 68.779Z" fill="white"/>
<path d="M37.6346 72.1049C36.2481 72.1049 35.1191 73.1802 35.1191 74.5007C35.1191 75.8213 36.2481 76.8966 37.6537 76.8966C37.8197 76.8908 41.772 76.7844 45.9305 79.8281C46.1509 79.9891 46.4668 79.9498 46.6359 79.7399C46.8059 79.5291 46.7626 79.2291 46.5433 79.0681C42.1 75.8165 37.7966 75.9334 37.6346 75.9392C36.8025 75.9392 36.1253 75.2942 36.1253 74.5017C36.1253 73.7091 36.8025 73.0642 37.6457 73.0632C38.2092 73.0498 43.2924 73.0469 48.3957 76.7883C48.616 76.9493 48.932 76.911 49.101 76.7011C49.1714 76.6129 49.2057 76.5104 49.2057 76.4088C49.2057 76.265 49.1383 76.1232 49.0095 76.0293C43.6243 72.08 38.2212 72.0915 37.6346 72.1049Z" fill="white"/>
<path d="M37.6142 74.024C37.3375 74.0365 37.1171 74.2435 37.1342 74.5233C37.1463 74.7869 37.3808 74.9919 37.6585 74.9814C37.6655 74.9814 38.402 74.9546 39.5662 75.1328C39.8409 75.174 40.0995 74.9958 40.1437 74.7351C40.1477 74.7092 40.1497 74.6834 40.1497 74.6584C40.1497 74.4275 39.9737 74.2234 39.7271 74.186C38.4503 73.9905 37.6474 74.0221 37.6142 74.024Z" fill="white"/>
<path d="M41.1924 74.9643C41.1129 75.2193 41.2658 75.4847 41.5315 75.5604C43.6555 76.1594 45.6417 77.156 47.4367 78.5207C47.654 78.6855 47.97 78.652 48.144 78.445C48.2185 78.3568 48.2537 78.2515 48.2537 78.146C48.2537 78.0052 48.1893 77.8662 48.0645 77.7713C46.1689 76.329 44.067 75.2758 41.8182 74.6405C41.5516 74.5657 41.2709 74.7104 41.1924 74.9643Z" fill="white"/>
<path d="M47.2178 70.3193L45.291 70.8972C44.5686 71.1272 43.8049 71.3419 43.8019 71.3429C43.5976 71.4004 43.4537 71.5729 43.4417 71.775C43.4266 71.982 43.5513 72.1651 43.7475 72.2437C43.7737 72.2542 46.4089 73.3218 48.4313 74.5456C48.6658 74.6874 48.9767 74.6213 49.1256 74.398C49.1789 74.3185 49.204 74.2294 49.204 74.1412C49.204 73.9822 49.1216 73.8278 48.9706 73.7368C47.7461 72.996 46.3385 72.3232 45.3595 71.8843C45.44 71.8594 45.5215 71.8335 45.6019 71.8077L47.5197 71.2336C47.7843 71.154 47.9332 70.8877 47.8487 70.6327C47.7651 70.3807 47.4834 70.2398 47.2178 70.3193Z" fill="white"/>
</g>
<rect x="21.4521" y="136" width="120" height="32" rx="8" fill="#FFF3DC"/>
<path d="M64.2476 157.144C63.1383 157.144 62.1889 156.909 61.3996 156.44C60.6103 155.971 60.0023 155.304 59.5756 154.44C59.1596 153.576 58.9516 152.547 58.9516 151.352C58.9516 150.168 59.1596 149.144 59.5756 148.28C60.0023 147.416 60.6103 146.749 61.3996 146.28C62.1889 145.811 63.1383 145.576 64.2476 145.576C64.9089 145.576 65.5383 145.672 66.1356 145.864C66.7329 146.056 67.2503 146.328 67.6876 146.68C67.8689 146.808 67.9703 146.957 67.9916 147.128C68.0236 147.299 67.9969 147.453 67.9116 147.592C67.8263 147.72 67.7036 147.805 67.5436 147.848C67.3943 147.88 67.2236 147.827 67.0316 147.688C66.2743 147.08 65.3569 146.776 64.2796 146.776C63.0103 146.776 62.0396 147.176 61.3676 147.976C60.6956 148.776 60.3596 149.901 60.3596 151.352C60.3596 152.813 60.6956 153.944 61.3676 154.744C62.0396 155.544 63.0103 155.944 64.2796 155.944C65.3569 155.944 66.2849 155.635 67.0636 155.016C67.2556 154.888 67.4263 154.84 67.5756 154.872C67.7356 154.904 67.8529 154.984 67.9276 155.112C68.0129 155.24 68.0449 155.384 68.0236 155.544C68.0023 155.704 67.9116 155.848 67.7516 155.976C67.2929 156.36 66.7649 156.653 66.1676 156.856C65.5703 157.048 64.9303 157.144 64.2476 157.144ZM70.5972 157.112C70.1705 157.112 69.9572 156.888 69.9572 156.44V146.264C69.9572 145.827 70.1705 145.608 70.5972 145.608C71.0345 145.608 71.2532 145.827 71.2532 146.264V150.504C71.5092 150.035 71.8665 149.683 72.3252 149.448C72.7945 149.203 73.3172 149.08 73.8932 149.08C75.7385 149.08 76.6612 150.104 76.6612 152.152V156.44C76.6612 156.888 76.4479 157.112 76.0212 157.112C75.5839 157.112 75.3652 156.888 75.3652 156.44V152.232C75.3652 151.507 75.2212 150.979 74.9332 150.648C74.6559 150.307 74.2079 150.136 73.5892 150.136C72.8745 150.136 72.3039 150.36 71.8772 150.808C71.4612 151.245 71.2532 151.832 71.2532 152.568V156.44C71.2532 156.888 71.0345 157.112 70.5972 157.112ZM81.803 157.144C79.9363 157.144 79.003 156.115 79.003 154.056V149.768C79.003 149.331 79.2163 149.112 79.643 149.112C80.0803 149.112 80.299 149.331 80.299 149.768V154.04C80.299 154.733 80.4376 155.245 80.715 155.576C81.003 155.907 81.451 156.072 82.059 156.072C82.7203 156.072 83.259 155.853 83.675 155.416C84.091 154.968 84.299 154.376 84.299 153.64V149.768C84.299 149.331 84.5176 149.112 84.955 149.112C85.3816 149.112 85.595 149.331 85.595 149.768V156.44C85.595 156.888 85.387 157.112 84.971 157.112C84.5443 157.112 84.331 156.888 84.331 156.44V155.688C84.0856 156.157 83.739 156.52 83.291 156.776C82.8536 157.021 82.3576 157.144 81.803 157.144ZM82.331 160.056C81.8083 160.056 81.547 159.8 81.547 159.288C81.547 158.787 81.8083 158.536 82.331 158.536C82.8643 158.536 83.131 158.787 83.131 159.288C83.131 159.8 82.8643 160.056 82.331 160.056ZM88.6597 159.992C88.233 159.992 88.0197 159.773 88.0197 159.336V149.768C88.0197 149.331 88.2277 149.112 88.6437 149.112C89.081 149.112 89.2997 149.331 89.2997 149.768V150.6C89.5237 150.131 89.8704 149.763 90.3397 149.496C90.809 149.219 91.3477 149.08 91.9557 149.08C92.649 149.08 93.2517 149.245 93.7637 149.576C94.2864 149.896 94.6864 150.36 94.9637 150.968C95.2517 151.565 95.3957 152.28 95.3957 153.112C95.3957 153.933 95.2517 154.648 94.9637 155.256C94.6864 155.853 94.2864 156.317 93.7637 156.648C93.2517 156.979 92.649 157.144 91.9557 157.144C91.3584 157.144 90.825 157.011 90.3557 156.744C89.8864 156.477 89.5397 156.109 89.3157 155.64V159.336C89.3157 159.773 89.097 159.992 88.6597 159.992ZM91.6837 156.104C92.409 156.104 92.9904 155.848 93.4277 155.336C93.865 154.813 94.0837 154.072 94.0837 153.112C94.0837 152.141 93.865 151.4 93.4277 150.888C92.9904 150.376 92.409 150.12 91.6837 150.12C90.9584 150.12 90.377 150.376 89.9397 150.888C89.5024 151.4 89.2837 152.141 89.2837 153.112C89.2837 154.072 89.5024 154.813 89.9397 155.336C90.377 155.848 90.9584 156.104 91.6837 156.104ZM103.921 157.144C103.388 157.144 102.908 157.043 102.481 156.84C102.065 156.627 101.734 156.339 101.489 155.976C101.244 155.613 101.121 155.208 101.121 154.76C101.121 154.195 101.265 153.747 101.553 153.416C101.852 153.085 102.337 152.851 103.009 152.712C103.692 152.563 104.62 152.488 105.793 152.488H106.305V151.992C106.305 151.331 106.166 150.856 105.889 150.568C105.622 150.269 105.19 150.12 104.593 150.12C104.22 150.12 103.841 150.168 103.457 150.264C103.084 150.36 102.694 150.515 102.289 150.728C102.108 150.824 101.953 150.845 101.825 150.792C101.708 150.728 101.622 150.632 101.569 150.504C101.526 150.365 101.526 150.227 101.569 150.088C101.622 149.939 101.729 149.827 101.889 149.752C102.348 149.517 102.806 149.347 103.265 149.24C103.734 149.133 104.177 149.08 104.593 149.08C105.596 149.08 106.337 149.325 106.817 149.816C107.308 150.307 107.553 151.069 107.553 152.104V156.44C107.553 156.888 107.356 157.112 106.961 157.112C106.545 157.112 106.337 156.888 106.337 156.44V155.656C106.134 156.115 105.82 156.477 105.393 156.744C104.977 157.011 104.486 157.144 103.921 157.144ZM104.129 156.168C104.769 156.168 105.292 155.949 105.697 155.512C106.102 155.064 106.305 154.499 106.305 153.816V153.336H105.809C104.945 153.336 104.262 153.379 103.761 153.464C103.27 153.539 102.924 153.677 102.721 153.88C102.529 154.072 102.433 154.339 102.433 154.68C102.433 155.117 102.582 155.475 102.881 155.752C103.19 156.029 103.606 156.168 104.129 156.168ZM104.609 148.296C104.321 148.296 104.177 148.173 104.177 147.928C104.177 147.661 104.225 147.443 104.321 147.272C104.417 147.101 104.529 146.957 104.657 146.84C104.796 146.712 104.913 146.595 105.009 146.488C105.116 146.371 105.169 146.237 105.169 146.088C105.169 145.789 104.924 145.64 104.433 145.64C104.326 145.64 104.209 145.651 104.081 145.672C103.964 145.683 103.846 145.709 103.729 145.752C103.452 145.848 103.276 145.795 103.201 145.592C103.116 145.357 103.206 145.181 103.473 145.064C103.644 144.989 103.83 144.936 104.033 144.904C104.236 144.872 104.449 144.856 104.673 144.856C105.164 144.856 105.542 144.952 105.809 145.144C106.086 145.336 106.225 145.603 106.225 145.944C106.225 146.211 106.166 146.424 106.049 146.584C105.932 146.744 105.793 146.888 105.633 147.016C105.484 147.133 105.345 147.261 105.217 147.4C105.1 147.539 105.041 147.72 105.041 147.944C105.041 148.179 104.897 148.296 104.609 148.296ZM110.597 157.112C110.171 157.112 109.957 156.888 109.957 156.44V149.768C109.957 149.331 110.165 149.112 110.581 149.112C111.008 149.112 111.221 149.331 111.221 149.768V150.552C111.477 150.061 111.84 149.693 112.309 149.448C112.779 149.203 113.307 149.08 113.893 149.08C115.739 149.08 116.661 150.104 116.661 152.152V156.44C116.661 156.888 116.448 157.112 116.021 157.112C115.584 157.112 115.365 156.888 115.365 156.44V152.232C115.365 151.507 115.221 150.979 114.933 150.648C114.656 150.307 114.208 150.136 113.589 150.136C112.875 150.136 112.304 150.36 111.877 150.808C111.461 151.245 111.253 151.832 111.253 152.568V156.44C111.253 156.888 111.035 157.112 110.597 157.112ZM119.691 157.112C119.264 157.112 119.051 156.888 119.051 156.44V146.264C119.051 145.827 119.264 145.608 119.691 145.608C120.128 145.608 120.347 145.827 120.347 146.264V150.504C120.603 150.035 120.96 149.683 121.419 149.448C121.888 149.203 122.411 149.08 122.987 149.08C124.832 149.08 125.755 150.104 125.755 152.152V156.44C125.755 156.888 125.542 157.112 125.115 157.112C124.678 157.112 124.459 156.888 124.459 156.44V152.232C124.459 151.507 124.315 150.979 124.027 150.648C123.75 150.307 123.302 150.136 122.683 150.136C121.968 150.136 121.398 150.36 120.971 150.808C120.555 151.245 120.347 151.832 120.347 152.568V156.44C120.347 156.888 120.128 157.112 119.691 157.112Z" fill="#FB7A04"/>
<g clip-path="url(#clip2_5577_17868)">
<path d="M49.1261 147.5H46.9791L46.7291 146.75C46.6087 146.386 46.3763 146.069 46.0653 145.845C45.7542 145.62 45.3802 145.5 44.9966 145.5H41.9076C41.5242 145.5 41.1504 145.62 40.8394 145.845C40.5284 146.069 40.2962 146.386 40.1756 146.75L39.9251 147.5H37.7781C37.294 147.501 36.8299 147.693 36.4876 148.035C36.1452 148.378 35.9527 148.842 35.9521 149.326V156.676C35.9532 157.16 36.146 157.623 36.4883 157.965C36.8305 158.307 37.2944 158.499 37.7781 158.5H49.1281C49.6119 158.499 50.0756 158.306 50.4174 157.964C50.7593 157.622 50.9516 157.158 50.9521 156.674V149.324C50.9511 148.84 50.7583 148.377 50.416 148.035C50.0738 147.693 49.6099 147.501 49.1261 147.5ZM49.9521 156.674C49.9519 156.893 49.8648 157.103 49.7099 157.258C49.5551 157.413 49.3451 157.5 49.1261 157.5H37.7781C37.5592 157.5 37.3492 157.413 37.1944 157.258C37.0395 157.103 36.9524 156.893 36.9521 156.674V149.324C36.9529 149.105 37.0403 148.896 37.1951 148.742C37.3499 148.587 37.5595 148.5 37.7781 148.5H40.2856C40.3905 148.5 40.4928 148.467 40.5778 148.405C40.6629 148.344 40.7265 148.258 40.7596 148.158L41.1241 147.064C41.1789 146.9 41.284 146.757 41.4247 146.656C41.5653 146.554 41.7343 146.5 41.9076 146.5H44.9966C45.1701 146.5 45.3391 146.554 45.4798 146.656C45.6205 146.757 45.7256 146.9 45.7801 147.065L46.1446 148.158C46.1778 148.258 46.2414 148.344 46.3265 148.405C46.4115 148.467 46.5138 148.5 46.6186 148.5H49.1261C49.3451 148.5 49.5551 148.587 49.7099 148.742C49.8648 148.897 49.9519 149.107 49.9521 149.326V156.674Z" fill="#FB7A04"/>
<path d="M43.4521 149C42.7105 149 41.9854 149.22 41.3688 149.632C40.7521 150.044 40.2714 150.63 39.9876 151.315C39.7038 152 39.6295 152.754 39.7742 153.482C39.9189 154.209 40.2761 154.877 40.8005 155.402C41.3249 155.926 41.9931 156.283 42.7206 156.428C43.448 156.573 44.202 156.498 44.8872 156.215C45.5724 155.931 46.1581 155.45 46.5702 154.833C46.9822 154.217 47.2021 153.492 47.2021 152.75C47.2011 151.756 46.8057 150.803 46.1026 150.1C45.3996 149.396 44.4464 149.001 43.4521 149ZM43.4521 155.5C42.9083 155.5 42.3766 155.339 41.9243 155.037C41.4721 154.734 41.1196 154.305 40.9115 153.802C40.7033 153.3 40.6489 152.747 40.755 152.214C40.8611 151.68 41.123 151.19 41.5076 150.805C41.8922 150.421 42.3822 150.159 42.9157 150.053C43.4491 149.947 44.002 150.001 44.5045 150.209C45.007 150.417 45.4365 150.77 45.7387 151.222C46.0409 151.674 46.2021 152.206 46.2021 152.75C46.2014 153.479 45.9114 154.178 45.3958 154.694C44.8803 155.209 44.1813 155.499 43.4521 155.5Z" fill="#FB7A04"/>
<path d="M48.4521 150.5C48.7283 150.5 48.9521 150.276 48.9521 150C48.9521 149.724 48.7283 149.5 48.4521 149.5C48.176 149.5 47.9521 149.724 47.9521 150C47.9521 150.276 48.176 150.5 48.4521 150.5Z" fill="#FB7A04"/>
</g>
<defs>
<clipPath id="clip0_5577_17868">
<rect width="23" height="24.4357" fill="white" transform="translate(23.417 56) rotate(-90)"/>
</clipPath>
<clipPath id="clip1_5577_17868">
<rect width="23" height="24.4357" fill="white" transform="translate(23.417 86) rotate(-90)"/>
</clipPath>
<clipPath id="clip2_5577_17868">
<rect width="16" height="16" fill="white" transform="translate(35.4521 144)"/>
</clipPath>
</defs>
</svg>
