<svg width="40" height="40" viewBox="0 0 40 40" fill="none" xmlns="http://www.w3.org/2000/svg">
<circle cx="20" cy="20" r="20" fill="#E9F2FF"/>
<path d="M20.5 30C26.0228 30 30.5 25.5228 30.5 20C30.5 14.4772 26.0228 10 20.5 10C14.9772 10 10.5 14.4772 10.5 20C10.5 25.5228 14.9772 30 20.5 30Z" fill="#0081FF" stroke="#E9F2FF" stroke-linecap="round" stroke-linejoin="round"/>
<path d="M16.4996 11H17.4996C15.5496 16.84 15.5496 23.16 17.4996 29H16.4996" fill="#0081FF"/>
<path d="M16.4996 11H17.4996C15.5496 16.84 15.5496 23.16 17.4996 29H16.4996" stroke="#E9F2FF" stroke-linecap="round" stroke-linejoin="round"/>
<path d="M23.5 11C25.45 16.84 25.45 23.16 23.5 29" stroke="#E9F2FF" stroke-linecap="round" stroke-linejoin="round"/>
<path d="M11.5 24V23C17.34 24.95 23.66 24.95 29.5 23V24" stroke="#E9F2FF" stroke-linecap="round" stroke-linejoin="round"/>
<path d="M11.5 17.0001C17.34 15.0501 23.66 15.0501 29.5 17.0001" stroke="#E9F2FF" stroke-linecap="round" stroke-linejoin="round"/>
</svg>
