<svg width="24" height="24" viewBox="0 0 24 24" fill="none" xmlns="http://www.w3.org/2000/svg">
<path d="M20.5398 19.04C20.3898 19.19 20.1998 19.26 20.0098 19.26C19.8198 19.26 19.6298 19.19 19.4798 19.04L14.5298 14.09L15.0598 13.56L15.5898 13.03L20.5398 17.98C20.8298 18.27 20.8298 18.75 20.5398 19.04Z" fill="#5A4099"/>
<path d="M6.46986 9.28009L12.2699 15.0801C12.6599 15.4701 12.6599 16.1001 12.2699 16.4901L11.3699 17.4001C10.5599 18.2001 9.27986 18.2001 8.47986 17.4001L4.13986 13.0601C3.34986 12.2701 3.34986 10.9801 4.13986 10.1801L5.04986 9.27009C5.43986 8.89009 6.07986 8.89009 6.46986 9.28009Z" fill="#5A4099"/>
<path d="M18.5898 10.1899L14.7798 13.9899C14.3798 14.3899 13.7398 14.3899 13.3398 13.9899L7.55977 8.20993C7.15977 7.80993 7.15977 7.16993 7.55977 6.76993L11.3698 2.95993C12.1598 2.16993 13.4498 2.16993 14.2498 2.95993L18.5898 7.29993C19.3798 8.09993 19.3798 9.37993 18.5898 10.1899Z" fill="#5A4099"/>
<path d="M8 21.75H2C1.59 21.75 1.25 21.41 1.25 21C1.25 20.59 1.59 20.25 2 20.25H8C8.41 20.25 8.75 20.59 8.75 21C8.75 21.41 8.41 21.75 8 21.75Z" fill="#5A4099"/>
</svg>
