<svg width="41" height="40" viewBox="0 0 41 40" fill="none" xmlns="http://www.w3.org/2000/svg">
<circle cx="20.5" cy="20" r="20" fill="#FFF8E7"/>
<g clip-path="url(#clip0_5577_20080)">
<path d="M30.2324 9.26754C27.223 6.24415 22.3152 6.24415 19.3059 9.26754C17.2386 11.3207 16.5214 14.3583 17.4214 17.1145C14.2434 20.2785 11.875 22.6469 8.71098 25.825C8.57031 25.9515 8.5 26.1343 8.5 26.3171V30.2969C8.5 30.4937 8.57031 30.6624 8.71098 30.789C8.8375 30.9296 9.00625 31 9.20312 31H13.1829C13.3657 31 13.5485 30.9296 13.675 30.789C14.0406 30.4375 14.3078 30.1562 14.6735 29.8046C14.8282 29.65 14.8984 29.439 14.8704 29.2281C14.8281 28.8343 14.786 28.5391 14.7437 28.1594C15.2781 28.1032 15.6859 28.0609 16.2344 28.0188C16.5719 27.9766 16.825 27.7234 16.8672 27.386C16.9093 26.8516 16.9516 26.4297 17.0078 25.8954C17.3875 25.9516 17.6828 25.9797 18.0765 26.0219C18.4703 26.0782 18.85 25.7547 18.85 25.3328V24.0156H20.1437C20.3266 24.0156 20.5093 23.9688 20.6359 23.8281C21.2828 23.1813 21.7386 22.7395 22.3855 22.0786C25.1418 22.9785 28.1793 22.2614 30.2324 20.1941C33.2559 17.1847 33.2559 12.277 30.2324 9.26754ZM28.2496 14.2316C27.4339 15.0614 26.0839 15.0614 25.2684 14.2316C24.4386 13.416 24.4386 12.0661 25.2684 11.2504C26.0839 10.4207 27.4339 10.4207 28.2496 11.2504C29.0793 12.0661 29.0793 13.416 28.2496 14.2316Z" fill="#F9A804"/>
<path d="M30.2323 20.1942C28.1792 22.2615 25.1417 22.9786 22.3855 22.0787C21.7386 22.7396 21.2828 23.1814 20.6358 23.8282C20.5093 23.9689 20.3266 24.0157 20.1437 24.0157H18.8499V25.3329C18.8499 25.7547 18.4703 26.0782 18.0765 26.0219C17.6828 25.9798 17.3875 25.9516 17.0078 25.8954C16.9516 26.4298 16.9093 26.8517 16.8672 27.386C16.825 27.7235 16.5718 27.9766 16.2344 28.0189C15.6859 28.061 15.2781 28.1032 14.7437 28.1594C14.786 28.5392 14.8281 28.8344 14.8704 29.2282C14.8984 29.4391 14.8281 29.6501 14.6735 29.8047C14.3079 30.1563 14.0407 30.4375 13.675 30.7891C13.5485 30.9297 13.3657 31.0001 13.1829 31.0001H9.20308C9.0062 31.0001 8.83745 30.9297 8.71094 30.7891L25.2684 14.2317C26.0839 15.0614 27.4339 15.0614 28.2496 14.2317C29.0792 13.416 29.0792 12.0661 28.2496 11.2504L30.2324 9.26758C33.2558 12.277 33.2558 17.1848 30.2323 20.1942Z" fill="#F9A804"/>
</g>
<defs>
<clipPath id="clip0_5577_20080">
<rect width="24" height="24" fill="white" transform="translate(8.5 7)"/>
</clipPath>
</defs>
</svg>
