<svg width="140" height="140" viewBox="0 0 140 140" fill="none" xmlns="http://www.w3.org/2000/svg">
<rect width="140" height="140" rx="70" fill="#EEE8FF"/>
<path d="M83.4117 69.8787H65.133C64.1804 69.8787 63.3457 69.2415 63.0945 68.3227C62.8433 67.4038 63.2379 66.4305 64.0579 65.9458C72.0219 61.2399 76.1587 55.7505 76.7043 49.1639C76.8946 46.878 78.9306 45.0522 81.2417 45.0824C83.6 45.1201 85.8094 46.0654 87.4641 47.7444C89.1201 49.425 90.0328 51.6506 90.0336 54.0108C90.0336 54.0111 90.0336 54.0114 90.0336 54.0117V54.7217C90.0336 60.4873 88.3259 64.1635 85.1749 68.9304C84.7832 69.5226 84.1213 69.8787 83.4117 69.8787Z" fill="#FFC380"/>
<path d="M105.813 72.2741C105.813 68.6229 102.842 65.6523 99.1909 65.6523H65.1328C64.7544 65.6523 64.3829 65.7539 64.0573 65.9465C61.6666 67.3601 59.2526 68.5238 57.313 69.4591C56.6364 69.7852 55.9974 70.0933 55.4162 70.3838C54.7003 70.7418 54.248 71.4735 54.248 72.2741V99.3246C54.248 100.125 54.7003 100.857 55.4162 101.215C63.9554 105.484 71.0536 106 79.3309 106C80.6127 106 81.9236 105.988 83.2716 105.975C84.7625 105.961 86.3039 105.946 87.92 105.946H94.601C98.2521 105.946 101.223 102.976 101.223 99.3246C101.223 98.0969 100.887 96.9463 100.302 95.9596C102.205 94.7949 103.477 92.6972 103.477 90.3077C103.477 89.08 103.141 87.9294 102.557 86.9427C104.459 85.778 105.731 83.6803 105.731 81.2908C105.731 79.5735 105.074 78.0068 103.998 76.8291C105.17 75.5943 105.813 73.9837 105.813 72.2741Z" fill="#FFCF99"/>
<path d="M101.417 53.8448H96.9082C95.7412 53.8448 94.7949 52.8985 94.7949 51.7315C94.7949 50.5644 95.7412 49.6182 96.9082 49.6182H101.417C102.584 49.6182 103.53 50.5644 103.53 51.7315C103.53 52.8985 102.584 53.8448 101.417 53.8448Z" fill="#29CCB1"/>
<path d="M69.8581 53.8448H65.3496C64.1826 53.8448 63.2363 52.8985 63.2363 51.7315C63.2363 50.5644 64.1826 49.6182 65.3496 49.6182H69.8581C71.0251 49.6182 71.9714 50.5644 71.9714 51.7315C71.9714 52.8985 71.0254 53.8448 69.8581 53.8448Z" fill="#29CCB1"/>
<path d="M76.6237 42.1316C75.8931 42.1316 75.183 41.7526 74.7916 41.0747L72.5374 37.1702C71.9538 36.1596 72.3002 34.8669 73.3108 34.2835C74.3215 33.6999 75.6141 34.0463 76.1976 35.0569L78.4518 38.9614C79.0354 39.9721 78.689 41.2647 77.6784 41.8481C77.3456 42.0404 76.9821 42.1316 76.6237 42.1316Z" fill="#29CCB1"/>
<path d="M90.1448 42.1318C89.7862 42.1318 89.4228 42.0405 89.0901 41.8483C88.0795 41.2647 87.7331 39.9722 88.3167 38.9615L90.5709 35.0571C91.1544 34.0464 92.447 33.6997 93.4577 34.2836C94.4683 34.8672 94.8147 36.1597 94.2311 37.1704L91.9769 41.0748C91.5858 41.7528 90.8752 42.1318 90.1448 42.1318Z" fill="#29CCB1"/>
<path d="M49.4297 94.8428V105.973H45.2031V94.8428C45.2031 93.6763 46.15 92.7295 47.3164 92.7295C48.4829 92.7295 49.4297 93.6763 49.4297 94.8428Z" fill="#73C3FF"/>
<path d="M101.417 53.8448H96.9082C95.7412 53.8448 94.7949 52.8985 94.7949 51.7315C94.7949 50.5644 95.7412 49.6182 96.9082 49.6182H101.417C102.584 49.6182 103.53 50.5644 103.53 51.7315C103.53 52.8985 102.584 53.8448 101.417 53.8448Z" fill="#29CCB1"/>
<path d="M69.8581 53.8448H65.3496C64.1826 53.8448 63.2363 52.8985 63.2363 51.7315C63.2363 50.5644 64.1826 49.6182 65.3496 49.6182H69.8581C71.0251 49.6182 71.9714 50.5644 71.9714 51.7315C71.9714 52.8985 71.0254 53.8448 69.8581 53.8448Z" fill="#29CCB1"/>
<path d="M76.6237 42.1316C75.8931 42.1316 75.183 41.7526 74.7916 41.0747L72.5374 37.1702C71.9538 36.1596 72.3002 34.8669 73.3108 34.2835C74.3215 33.6999 75.6141 34.0463 76.1976 35.0569L78.4518 38.9614C79.0354 39.9721 78.689 41.2647 77.6784 41.8481C77.3456 42.0404 76.9821 42.1316 76.6237 42.1316Z" fill="#29CCB1"/>
<path d="M90.1448 42.1318C89.7862 42.1318 89.4228 42.0405 89.0901 41.8483C88.0795 41.2647 87.7331 39.9722 88.3167 38.9615L90.5709 35.0571C91.1544 34.0464 92.447 33.6997 93.4577 34.2836C94.4683 34.8672 94.8147 36.1597 94.2311 37.1704L91.9769 41.0748C91.5858 41.7528 90.8752 42.1318 90.1448 42.1318Z" fill="#29CCB1"/>
<path d="M49.4297 94.8428V105.973H45.2031V94.8428C45.2031 93.6763 46.15 92.7295 47.3164 92.7295C48.4829 92.7295 49.4297 93.6763 49.4297 94.8428Z" fill="#73C3FF"/>
<path d="M56.3344 65.6523H38.3008C37.1343 65.6523 36.1875 66.5992 36.1875 67.7657V103.833C36.1875 105.001 37.1343 105.946 38.3008 105.973H51.826C54.4169 105.946 56.664 104.451 57.7504 102.279C58.197 101.39 58.4477 100.385 58.4477 99.3244V67.7657C58.4477 66.599 57.5009 65.6523 56.3344 65.6523Z" fill="#44A4EC"/>
<path d="M49.4297 94.7022V105.973H45.2031V94.7022C45.2031 93.5357 46.15 92.5889 47.3164 92.5889C48.4829 92.5889 49.4297 93.5357 49.4297 94.7022Z" fill="#73C3FF"/>
</svg>
