<svg width="18" height="17" viewBox="0 0 18 17" fill="none" xmlns="http://www.w3.org/2000/svg">
<path d="M10.4421 1.4252L11.9087 4.35853C12.1087 4.76686 12.6421 5.15853 13.0921 5.23353L15.7504 5.6752C17.4504 5.95853 17.8504 7.19186 16.6254 8.40853L14.5587 10.4752C14.2087 10.8252 14.0171 11.5002 14.1254 11.9835L14.7171 14.5419C15.1837 16.5669 14.1087 17.3502 12.3171 16.2919L9.82541 14.8169C9.37541 14.5502 8.63375 14.5502 8.17541 14.8169L5.68375 16.2919C3.90041 17.3502 2.81708 16.5585 3.28375 14.5419L3.87541 11.9835C3.98375 11.5002 3.79208 10.8252 3.44208 10.4752L1.37541 8.40853C0.158746 7.19186 0.550413 5.95853 2.25041 5.6752L4.90875 5.23353C5.35041 5.15853 5.88375 4.76686 6.08375 4.35853L7.55041 1.4252C8.35041 -0.166471 9.65041 -0.166471 10.4421 1.4252Z" fill="#523C89"/>
</svg>
