<svg width="40" height="40" viewBox="0 0 40 40" fill="none" xmlns="http://www.w3.org/2000/svg">
<circle cx="20" cy="20" r="20" fill="#E6FFE6"/>
<path d="M28.5 16H27V14C27 10.1402 23.8599 7 20 7C16.1401 7 13 10.1402 13 14V16H11.5C11.2236 16 11 16.2236 11 16.5V29C11 30.103 11.897 31 13 31H27C28.103 31 29 30.103 29 29V16.5C29 16.2236 28.7764 16 28.5 16ZM21.4971 26.4448C21.5127 26.5859 21.4673 26.7275 21.3726 26.8335C21.2779 26.9395 21.1421 27 21 27H19C18.8579 27 18.7222 26.9395 18.6275 26.8335C18.5327 26.7276 18.4873 26.586 18.503 26.4448L18.8184 23.6084C18.3062 23.2359 18 22.6465 18 22C18 20.897 18.897 20 20 20C21.1031 20 22.0001 20.8969 22.0001 22C22.0001 22.6465 21.6939 23.2359 21.1817 23.6084L21.4971 26.4448ZM24 16H16V14C16 11.7944 17.7944 10 20 10C22.2056 10 24 11.7944 24 14V16Z" fill="#03BF4E"/>
</svg>
