<svg width="40" height="40" viewBox="0 0 40 40" fill="none" xmlns="http://www.w3.org/2000/svg">
<circle cx="20" cy="20" r="20" fill="#F2F2F2"/>
<path d="M31.0064 18.724C30.9593 18.6114 30.892 18.5089 30.8061 18.4231L28.0378 15.6548C27.6769 15.2948 27.0935 15.2948 26.7326 15.6548C26.3717 16.0157 26.3717 16.6 26.7326 16.96L27.9261 18.1535H22.7697C22.2593 18.1535 21.8467 18.567 21.8467 19.0766C21.8467 19.5861 22.2593 19.9996 22.7697 19.9996H27.9261L26.7325 21.1932C26.3716 21.5541 26.3716 22.1384 26.7325 22.4984C26.9125 22.6793 27.1488 22.7689 27.3852 22.7689C27.6215 22.7689 27.8578 22.6794 28.0378 22.4984L30.8061 19.7301C30.892 19.6451 30.9593 19.5427 31.0064 19.4291C31.0996 19.204 31.0996 18.9492 31.0064 18.724Z" fill="#929292"/>
<path d="M24.6161 21.8459C24.1057 21.8459 23.693 22.2595 23.693 22.769V27.3844H20.0007V12.6151C20.0007 12.2081 19.733 11.8481 19.3426 11.7309L16.1367 10.769H23.693V15.3844C23.693 15.894 24.1057 16.3075 24.6161 16.3075C25.1265 16.3075 25.5392 15.894 25.5392 15.3844V9.84596C25.5392 9.33638 25.1265 8.92285 24.6161 8.92285H9.84689C9.81366 8.92285 9.78411 8.9367 9.75183 8.94038C9.70843 8.94501 9.66875 8.95236 9.62721 8.96253C9.53029 8.98745 9.44258 9.02531 9.36046 9.07698C9.34016 9.08991 9.31524 9.09082 9.29586 9.10558C9.28841 9.11116 9.28565 9.12133 9.27825 9.12687C9.17765 9.20622 9.09366 9.30314 9.03274 9.41854C9.0198 9.44347 9.01703 9.47025 9.00691 9.49608C8.97735 9.56622 8.94507 9.63454 8.934 9.71208C8.92937 9.73977 8.93767 9.76561 8.93677 9.79239C8.93586 9.81087 8.92383 9.82748 8.92383 9.84591V28.3075C8.92383 28.7478 9.23489 29.1263 9.66598 29.2121L18.8967 31.0583C18.9567 31.0712 19.0177 31.0767 19.0776 31.0767C19.289 31.0767 19.4967 31.0038 19.6629 30.8672C19.8761 30.6918 20.0007 30.4306 20.0007 30.1536V29.2306H24.6161C25.1265 29.2306 25.5392 28.817 25.5392 28.3075V22.769C25.5392 22.2595 25.1265 21.8459 24.6161 21.8459Z" fill="#929292"/>
</svg>
