<svg width="20" height="20" viewBox="0 0 20 20" fill="none" xmlns="http://www.w3.org/2000/svg">
<g clip-path="url(#clip0_5949_7732)">
<path d="M18.2888 18.828V19.328H18.7888H19.4138C19.4612 19.328 19.4997 19.3664 19.4997 19.4139C19.4997 19.4613 19.4612 19.4998 19.4138 19.4998H0.585929C0.538478 19.4998 0.499993 19.4613 0.499993 19.4139C0.499993 19.3664 0.538479 19.328 0.585929 19.328H1.21092H1.71091V18.828V14.7265C1.71091 14.679 1.7494 14.6405 1.79685 14.6405H4.14057C4.18802 14.6405 4.2265 14.679 4.2265 14.7265V18.828V19.328H4.7265H5.89836H6.39835V18.828V13.3202C6.39835 13.2728 6.43683 13.2343 6.48429 13.2343H8.828C8.87545 13.2343 8.91394 13.2728 8.91394 13.3202V18.828V19.328H9.41393H10.5858H11.0858V18.828V11.1718C11.0858 11.1244 11.1243 11.0859 11.1717 11.0859H13.5154C13.5629 11.0859 13.6014 11.1244 13.6014 11.1718V18.828V19.328H14.1014H15.2732H15.7732V18.828V7.26562C15.7732 7.21817 15.8117 7.17968 15.8592 7.17968H18.2029C18.2503 7.17968 18.2888 7.21817 18.2888 7.26562V18.828Z" fill="#BF0C26" stroke="#BF0C26" stroke-width="0.999986"/>
<path d="M0.585929 12.5899C4.24283 12.5899 8.20848 11.2766 11.7524 8.89183C14.528 7.02409 16.8416 4.63806 18.2788 2.19486L18.8479 4.31854C18.918 4.58033 19.2567 4.8065 19.5655 4.73283C19.8802 4.65775 20.0635 4.32779 19.9798 4.01522L19.0203 0.434412C18.9365 0.121878 18.6154 -0.0636666 18.3027 0.0201212L14.7219 0.9796C14.4093 1.06335 14.2238 1.38463 14.3076 1.69721C14.3914 2.00978 14.7125 2.19532 15.0252 2.1115L17.332 1.49338C15.9912 3.82327 13.7753 6.11808 11.0982 7.91958C7.74556 10.1756 4.01225 11.4181 0.585929 11.4181C0.26234 11.4181 0 11.6804 0 12.004C0 12.3276 0.26234 12.5899 0.585929 12.5899Z" fill="#BF0C26"/>
</g>
<defs>
<clipPath id="clip0_5949_7732">
<rect width="20" height="20" fill="white"/>
</clipPath>
</defs>
</svg>
