<svg width="20" height="20" viewBox="0 0 20 20" fill="none" xmlns="http://www.w3.org/2000/svg">
<g clip-path="url(#clip0_5949_7455)">
<path d="M18.2888 18.8282V19.3282H18.7888H19.4138C19.4612 19.3282 19.4997 19.3667 19.4997 19.4141C19.4997 19.4616 19.4612 19.5001 19.4138 19.5001H0.585929C0.538482 19.5001 0.5 19.4616 0.5 19.4141C0.5 19.3667 0.538483 19.3282 0.585929 19.3282H1.21092H1.71092V18.8282V14.7267C1.71092 14.6792 1.7494 14.6408 1.79685 14.6408H4.14057C4.18801 14.6408 4.2265 14.6792 4.2265 14.7267V18.8282V19.3282H4.7265H5.89836H6.39836V18.8282V13.3205C6.39836 13.273 6.43684 13.2345 6.48429 13.2345H8.828C8.87545 13.2345 8.91393 13.273 8.91393 13.3205V18.8282V19.3282H9.41393H10.5858H11.0858V18.8282V11.1721C11.0858 11.1246 11.1243 11.0861 11.1717 11.0861H13.5154C13.5629 11.0861 13.6014 11.1246 13.6014 11.1721V18.8282V19.3282H14.1014H15.2732H15.7732V18.8282V7.26586C15.7732 7.21841 15.8117 7.17993 15.8592 7.17993H18.2029C18.2503 7.17993 18.2888 7.21841 18.2888 7.26586V18.8282Z" stroke="#B1B1B1"/>
<path d="M0.585929 12.5902C4.24283 12.5902 8.20848 11.2768 11.7524 8.89208C14.528 7.02433 16.8416 4.63831 18.2788 2.1951L18.8479 4.31878C18.918 4.58057 19.2567 4.80674 19.5655 4.73307C19.8802 4.658 20.0635 4.32804 19.9798 4.01547L19.0203 0.434656C18.9365 0.122122 18.6154 -0.0634225 18.3027 0.0203654L14.7219 0.979844C14.4093 1.06359 14.2238 1.38488 14.3076 1.69745C14.3914 2.01002 14.7125 2.19557 15.0252 2.11174L17.332 1.49363C15.9912 3.82351 13.7753 6.11833 11.0982 7.91982C7.74556 10.1759 4.01225 11.4183 0.585929 11.4183C0.26234 11.4183 0 11.6807 0 12.0043C0 12.3278 0.26234 12.5902 0.585929 12.5902Z" fill="#B1B1B1"/>
</g>
<defs>
<clipPath id="clip0_5949_7455">
<rect width="20" height="20" fill="white"/>
</clipPath>
</defs>
</svg>
