<svg width="20" height="20" viewBox="0 0 20 20" fill="none" xmlns="http://www.w3.org/2000/svg">
<g clip-path="url(#clip0_5949_7460)">
<path d="M17.7273 13.6363C17.1575 13.6363 16.6423 13.8544 16.243 14.2021L13.1291 11.8209C13.4432 11.2832 13.6364 10.6663 13.6364 9.99998C13.6364 9.35983 13.4558 8.76669 13.1641 8.24365L15.2988 6.67794C15.7023 7.04361 16.2321 7.2727 16.8182 7.2727C18.0713 7.2727 19.0909 6.25309 19.0909 4.99999C19.0909 3.74689 18.0713 2.72723 16.8182 2.72723C15.5651 2.72723 14.5455 3.74685 14.5455 4.99995C14.5455 5.33864 14.625 5.65735 14.7584 5.94639L12.6327 7.50563C11.9695 6.806 11.0378 6.36363 10 6.36363C9.71033 6.36363 9.43211 6.40641 9.16185 6.47071L8.63834 5.07418C9.44851 4.60083 10 3.73142 10 2.72727C10 1.22335 8.77667 0 7.27275 0C5.76883 0 4.54547 1.22335 4.54547 2.72727C4.54547 4.2312 5.76883 5.45455 7.27275 5.45455C7.45002 5.45455 7.62248 5.43469 7.79042 5.40222L8.31359 6.79786C7.34877 7.30846 6.63699 8.2281 6.43091 9.33469L4.5127 9.22211C4.35401 8.12293 3.41514 7.2727 2.27271 7.2727C1.01962 7.2727 0 8.29232 0 9.54542C0 10.7985 1.01962 11.8181 2.27271 11.8181C3.32267 11.8181 4.20009 11.0986 4.45978 10.1294L6.38817 10.2426C6.45064 11.1679 6.84797 12.0002 7.47606 12.6081L5.78804 14.8589C5.41368 14.6652 4.9953 14.5454 4.54547 14.5454C3.04155 14.5454 1.8182 15.7687 1.8182 17.2726C1.8182 18.7766 3.04155 19.9999 4.54547 19.9999C6.04939 19.9999 7.27275 18.7766 7.27275 17.2726C7.27275 16.5462 6.98293 15.8891 6.51831 15.3998L8.2091 13.1453C8.74006 13.4489 9.34586 13.6363 10 13.6363C11.0119 13.6363 11.9268 13.2193 12.5866 12.55L15.6892 14.9226C15.5435 15.2222 15.4546 15.5541 15.4546 15.909C15.4546 17.1621 16.4742 18.1817 17.7273 18.1817C18.9804 18.1817 20 17.1621 20 15.909C20 14.6559 18.9804 13.6363 17.7273 13.6363ZM16.8182 3.63631C17.5702 3.63631 18.1818 4.24799 18.1818 4.99995C18.1818 5.75191 17.5702 6.36358 16.8182 6.36358C16.0662 6.36358 15.4546 5.75191 15.4546 4.99995C15.4546 4.24799 16.0662 3.63631 16.8182 3.63631ZM2.27271 10.9091C1.52075 10.9091 0.909077 10.2974 0.909077 9.54542C0.909077 8.79346 1.52075 8.18178 2.27271 8.18178C3.02468 8.18178 3.63635 8.79346 3.63635 9.54542C3.63635 10.2974 3.02468 10.9091 2.27271 10.9091ZM4.54547 19.0909C3.54269 19.0909 2.72727 18.2755 2.72727 17.2727C2.72727 16.2699 3.54269 15.4545 4.54547 15.4545C5.54826 15.4545 6.36367 16.2699 6.36367 17.2727C6.36367 18.2755 5.54821 19.0909 4.54547 19.0909ZM7.27275 4.54543C6.26996 4.54543 5.45455 3.72997 5.45455 2.72723C5.45455 1.72449 6.26996 0.909035 7.27275 0.909035C8.27553 0.909035 9.0909 1.72449 9.0909 2.72723C9.0909 3.72997 8.27549 4.54543 7.27275 4.54543ZM10 12.7273C8.4961 12.7273 7.27275 11.5039 7.27275 9.99998C7.27275 8.49606 8.4961 7.2727 10 7.2727C11.5039 7.2727 12.7273 8.49606 12.7273 9.99998C12.7273 11.5039 11.5039 12.7273 10 12.7273ZM17.7273 17.2727C16.9753 17.2727 16.3636 16.661 16.3636 15.909C16.3636 15.1571 16.9753 14.5454 17.7273 14.5454C18.4792 14.5454 19.0909 15.1571 19.0909 15.909C19.0909 16.661 18.4792 17.2727 17.7273 17.2727Z" fill="#B1B1B1" stroke="#B1B1B1" stroke-width="0.17"/>
</g>
<defs>
<clipPath id="clip0_5949_7460">
<rect width="20" height="20" fill="white"/>
</clipPath>
</defs>
</svg>
