<svg width="55" height="55" viewBox="0 0 55 55" fill="none" xmlns="http://www.w3.org/2000/svg">
<g clip-path="url(#clip0_6315_99)">
<path d="M26.2223 0.59082C22.0879 0.59082 18.1814 1.58146 14.7161 3.33975V3.33985L4.06689 40.4585C8.58676 48.1089 16.8172 53.2272 26.2223 53.2272C40.4932 53.2272 52.062 41.4441 52.062 26.909C52.062 12.3738 40.4932 0.59082 26.2223 0.59082Z" fill="#3B3868"/>
<path d="M52.1183 3.33984H14.7157C11.8777 4.77973 9.33708 6.73588 7.21094 9.08713H46.6181C47.7654 9.08713 48.6987 10.0378 48.6987 11.2062V34.898H52.1182C53.3665 34.898 54.3822 33.8635 54.3822 32.5922V5.64565C54.3822 4.37432 53.3666 3.33984 52.1183 3.33984Z" fill="#49CE8B"/>
<path d="M17.7986 3.33984H14.7157C11.8777 4.77973 9.33708 6.73588 7.21094 9.08713H19.4446C19.4018 8.93448 19.3184 8.79548 19.197 8.69192C18.413 8.02247 18.4749 7.19457 18.6321 6.66702C18.7258 6.35281 18.6193 6.01422 18.3722 5.80335C17.4487 5.01552 17.6001 4.07687 17.7539 3.61903C17.7843 3.52826 17.7988 3.43384 17.7986 3.33984Z" fill="#36B277"/>
<path d="M50.7273 6.14087H10.3518C9.22666 7.03397 8.17608 8.01979 7.21094 9.08713H46.6181C47.7653 9.08713 48.6986 10.0378 48.6986 11.2062V32.097H50.7274C51.2271 32.097 51.6321 31.6845 51.6321 31.1756V7.06233C51.632 6.55348 51.227 6.14087 50.7273 6.14087Z" fill="#36B277"/>
<path d="M7.21094 9.08713H19.4446C19.4018 8.93448 19.3184 8.79548 19.197 8.69192C18.413 8.02247 18.4749 7.19457 18.6321 6.66702C18.6849 6.4901 18.6721 6.30608 18.6086 6.14087H10.3518C9.22666 7.03387 8.17608 8.01979 7.21094 9.08713Z" fill="#279B61"/>
<path d="M50.7277 6.14087H43.5804C43.5186 6.52189 43.4849 6.91259 43.4849 7.31145C43.4849 7.9245 43.561 8.5194 43.7039 9.08713H46.6183C47.7656 9.08713 48.6989 10.0378 48.6989 11.2062V14.2046C49.2686 14.3571 49.8664 14.4392 50.4831 14.4392C50.8747 14.4392 51.2583 14.4049 51.6324 14.3419V7.06233C51.6324 6.55348 51.2274 6.14087 50.7277 6.14087Z" fill="#279B61"/>
<path d="M46.6182 8.90039H7.38039C3.04066 13.6079 0.382324 19.9421 0.382324 26.909C0.382324 31.865 1.72821 36.5004 4.06666 40.4586H46.6181C47.8665 40.4586 48.8821 39.4241 48.8821 38.1528V11.2063C48.8821 9.93486 47.8666 8.90039 46.6182 8.90039Z" fill="#49CE8B"/>
<path d="M0.382324 26.909C0.382324 31.865 1.72821 36.5004 4.06666 40.4586H22.353V35.3234C22.353 35.0108 22.2075 34.7225 21.9734 34.5204C21.6382 34.231 21.556 33.8706 21.563 33.5701C21.5714 33.2046 21.4047 32.8631 21.111 32.6525C20.2354 32.0247 20.2024 31.1327 20.234 30.7543C20.2454 30.6167 20.229 30.4785 20.1879 30.3469L20.0817 30.007C19.9979 29.7388 20.0204 29.448 20.1469 29.198C20.6427 28.2175 21.7228 25.5716 19.4783 24.6795C17.4943 23.8909 17.2587 22.1672 17.2856 21.2478C17.2962 20.8867 17.1273 20.5428 16.8334 20.3405C15.6856 19.55 15.5142 18.488 15.5569 17.7749C15.5842 17.3189 15.3227 16.9004 14.9098 16.722C12.4008 15.6382 12.4749 13.3388 12.6645 12.2699C12.7251 11.9278 12.6115 11.578 12.37 11.3323C11.784 10.7364 11.6732 10.1266 11.7082 9.66663C11.73 9.38089 11.637 9.10847 11.4649 8.90039H7.38039C3.04066 13.6079 0.382324 19.942 0.382324 26.909Z" fill="#36B277"/>
<path d="M45.2274 11.7014H5.13158C2.1407 15.9957 0.382324 21.2431 0.382324 26.909C0.382324 30.7382 1.18642 34.3756 2.63029 37.6576H45.2273C45.7269 37.6576 46.132 37.2451 46.132 36.7361V12.6229C46.132 12.1139 45.727 11.7014 45.2274 11.7014Z" fill="#36B277"/>
<path d="M0.382324 26.9089C0.382324 30.738 1.18642 34.3755 2.63029 37.6574H22.353V35.3232C22.353 35.0106 22.2075 34.7223 21.9734 34.5203C21.6382 34.2309 21.556 33.8705 21.563 33.57C21.5714 33.2045 21.4047 32.863 21.111 32.6524C20.2354 32.0245 20.2024 31.1326 20.234 30.7542C20.2454 30.6166 20.229 30.4784 20.1879 30.3468L20.0817 30.0068C19.9979 29.7387 20.0204 29.4479 20.1469 29.1978C20.6427 28.2174 21.7228 25.5715 19.4783 24.6793C17.4943 23.8908 17.2587 22.1671 17.2856 21.2476C17.2962 20.8866 17.1273 20.5426 16.8334 20.3404C15.6856 19.5498 15.5142 18.4879 15.5569 17.7748C15.5842 17.3188 15.3227 16.9003 14.9098 16.7219C12.4008 15.6381 12.4749 13.3387 12.6645 12.2698C12.6989 12.0756 12.6754 11.8798 12.6063 11.7012H5.13158C2.1407 15.9956 0.382324 21.2429 0.382324 26.9089H0.382324Z" fill="#279B61"/>
<path d="M46.1319 12.6228V19.9024C45.7578 19.9655 45.3743 19.9998 44.9826 19.9998C41.1176 19.9998 37.9844 16.8086 37.9844 12.872C37.9844 12.4731 38.0181 12.0824 38.0799 11.7014H45.2272C45.7269 11.7013 46.1319 12.1139 46.1319 12.6228Z" fill="#279B61"/>
<path d="M46.1319 36.7359V29.4562C45.7578 29.3933 45.3743 29.3589 44.9826 29.3589C41.1176 29.3589 37.9844 32.5501 37.9844 36.4866C37.9844 36.8855 38.0181 37.2762 38.0799 37.6572H45.2272C45.7269 37.6573 46.1319 37.2448 46.1319 36.7359Z" fill="#279B61"/>
<path d="M19.4785 33.2691C24.1363 33.2691 27.9121 29.4234 27.9121 24.6794C27.9121 19.9354 24.1363 16.0896 19.4785 16.0896C14.8208 16.0896 11.0449 19.9354 11.0449 24.6794C11.0449 29.4234 14.8208 33.2691 19.4785 33.2691Z" fill="#279B61"/>
<path d="M21.1109 32.6524C20.2353 32.0245 20.2023 31.1326 20.2338 30.7541C20.2452 30.6165 20.2289 30.4784 20.1877 30.3468L20.0815 30.0068C19.9978 29.7387 20.0202 29.4479 20.1467 29.1978C20.6425 28.2174 21.7226 25.5714 19.4781 24.6793C17.4942 23.8907 17.2585 22.167 17.2854 21.2476C17.2961 20.8866 17.1271 20.5426 16.8333 20.3403C15.6855 19.5498 15.5141 18.4878 15.5567 17.7748C15.57 17.5519 15.5141 17.3382 15.4056 17.157C12.8058 18.6203 11.0444 21.4398 11.0444 24.6792C11.0444 29.4233 14.8203 33.269 19.478 33.269C20.1533 33.269 20.8094 33.1858 21.4388 33.0331C21.3618 32.8843 21.2514 32.753 21.1109 32.6524Z" fill="#1C8C51"/>
<path d="M52.6893 45.2572C53.3941 39.5148 49.3949 34.2777 43.7568 33.5599C38.1188 32.8421 32.9769 36.9154 32.2722 42.6578C31.5674 48.4002 35.5666 53.6373 41.2047 54.3551C46.8427 55.0729 51.9846 50.9997 52.6893 45.2572Z" fill="#FFDD40"/>
<path d="M32.1885 43.9277C32.1885 49.7164 36.7959 54.4091 42.4794 54.4091C45.2269 54.4091 47.7211 53.3103 49.5667 51.5233C49.5192 51.4815 49.4604 51.4527 49.3949 51.444C48.7531 51.3591 48.6358 50.931 48.6331 50.6392C48.6316 50.4834 48.529 50.3498 48.3805 50.3123C47.6739 50.1341 47.5483 49.6131 47.542 49.2905C47.5389 49.1338 47.4251 49.0041 47.274 48.9746C44.7567 48.4826 44.916 46.4832 44.9795 46.0587C44.9885 45.9986 44.982 45.9377 44.9592 45.8815C44.835 45.5772 44.3146 44.6258 42.4794 43.9276C40.6854 43.245 40.641 41.3128 40.6883 40.6063C40.6985 40.4534 40.6041 40.3173 40.462 40.2674C39.0335 39.7661 39.0442 38.4241 39.1258 37.8293C39.1478 37.6684 39.053 37.5192 38.9025 37.4655C38.1938 37.2124 38.1746 36.5958 38.2305 36.2391C38.2537 36.0911 38.1741 35.9512 38.0395 35.8911C37.5723 35.6826 37.5196 35.2494 37.5411 34.9679C37.5468 34.8925 37.5274 34.8205 37.4899 34.7605C34.3288 36.5493 32.1885 39.9832 32.1885 43.9277Z" fill="#FFB332"/>
<path d="M47.4786 49.0288C50.2446 46.2116 50.2446 41.6439 47.4786 38.8267C44.7126 36.0094 40.228 36.0094 37.4619 38.8267C34.6959 41.6439 34.6959 46.2116 37.4619 49.0288C40.228 51.8461 44.7126 51.846 47.4786 49.0288Z" fill="#FCECA9"/>
<path d="M47.4477 49.069C47.4015 49.0219 47.3419 48.9877 47.2741 48.9745C44.7568 48.4825 44.9162 46.4831 44.9797 46.0586C44.9886 45.9985 44.9822 45.9376 44.9593 45.8814C44.8352 45.5771 44.3148 44.6257 42.4795 43.9275C40.6855 43.2449 40.6411 41.3127 40.6885 40.6062C40.6987 40.4533 40.6043 40.3172 40.4621 40.2673C39.0337 39.766 39.0443 38.424 39.1259 37.8292C39.1374 37.7458 39.1169 37.6656 39.0738 37.6001C36.8817 38.8267 35.3955 41.2 35.3955 43.9274C35.3955 47.9122 38.5671 51.1425 42.4794 51.1425C44.4154 51.1426 46.1691 50.3509 47.4477 49.069Z" fill="#FFDD40"/>
<path d="M42.4793 36.7125C46.3917 36.7125 49.5632 39.9427 49.5632 43.9276C49.5632 47.9124 46.3917 51.1427 42.4793 51.1427C38.5669 51.1427 35.3954 47.9124 35.3954 43.9276C35.3954 39.9427 38.5669 36.7125 42.4793 36.7125ZM42.4793 34.9163C37.6008 34.9163 33.6318 38.9587 33.6318 43.9275C33.6318 48.8962 37.6007 52.9387 42.4793 52.9387C47.3577 52.9387 51.3266 48.8964 51.3266 43.9275C51.3266 38.9585 47.3577 34.9163 42.4793 34.9163Z" fill="#FFB332"/>
<path d="M42.4797 52.9387C44.8404 52.9387 46.9865 51.9903 48.5745 50.4501C48.5298 50.3833 48.4627 50.3328 48.3808 50.3122C47.6742 50.134 47.5486 49.613 47.5423 49.2904C47.5406 49.204 47.5045 49.1268 47.4479 49.0691C46.1693 50.351 44.4156 51.1426 42.4797 51.1426C38.5673 51.1426 35.3958 47.9124 35.3958 43.9276C35.3958 41.2002 36.8819 38.8268 39.0741 37.6003C39.0343 37.5396 38.9753 37.4914 38.9029 37.4655C38.1942 37.2124 38.175 36.5958 38.2309 36.2391C38.2417 36.1698 38.2293 36.1026 38.2 36.0442C35.4788 37.5828 33.6323 40.5391 33.6323 43.9276C33.6323 48.8964 37.6012 52.9387 42.4797 52.9387Z" fill="#FF9100"/>
<path d="M34.911 54.409C40.5945 54.409 45.2019 49.7163 45.2019 43.9275C45.2019 38.1388 40.5945 33.446 34.911 33.446C29.2275 33.446 24.6201 38.1388 24.6201 43.9275C24.6201 49.7163 29.2275 54.409 34.911 54.409Z" fill="#FFDD40"/>
<path d="M24.6201 43.9277C24.6201 49.7164 29.2275 54.4091 34.911 54.4091C37.6586 54.4091 40.1526 53.3103 41.9983 51.5233C41.9508 51.4815 41.892 51.4527 41.8265 51.444C41.1847 51.3591 41.0674 50.931 41.0647 50.6392C41.0632 50.4834 40.9606 50.3498 40.8121 50.3123C40.1056 50.1341 39.98 49.6131 39.9736 49.2905C39.9706 49.1338 39.8567 49.0041 39.7056 48.9746C37.1883 48.4826 37.3477 46.4832 37.4112 46.0587C37.4201 45.9986 37.4137 45.9377 37.3908 45.8815C37.2668 45.5772 36.7463 44.6258 34.911 43.9276C33.117 43.245 33.0726 41.3128 33.12 40.6063C33.1302 40.4534 33.0359 40.3173 32.8936 40.2674C31.4653 39.7661 31.4758 38.4241 31.5574 37.8293C31.5795 37.6684 31.4847 37.5192 31.3342 37.4655C30.6254 37.2124 30.6062 36.5958 30.6621 36.2391C30.6853 36.0911 30.6058 35.9512 30.4711 35.8911C30.004 35.6826 29.9512 35.2494 29.9727 34.9679C29.9784 34.8925 29.9589 34.8205 29.9214 34.7605C26.7604 36.5493 24.6201 39.9832 24.6201 43.9277Z" fill="#FFB332"/>
<path d="M41.4063 46.7947C42.9673 43.1407 41.3244 38.8896 37.7368 37.2997C34.1492 35.7097 29.9754 37.383 28.4144 41.0371C26.8533 44.6911 28.4962 48.9422 32.0838 50.5321C35.6715 52.1221 39.8452 50.4488 41.4063 46.7947Z" fill="#FCECA9"/>
<path d="M39.8794 49.069C39.8332 49.0219 39.7736 48.9877 39.7058 48.9745C37.1884 48.4825 37.3478 46.4831 37.4113 46.0586C37.4203 45.9985 37.4138 45.9376 37.3909 45.8814C37.2669 45.5771 36.7464 44.6257 34.9112 43.9275C33.1171 43.2449 33.0727 41.3127 33.1201 40.6062C33.1303 40.4533 33.036 40.3172 32.8938 40.2673C31.4654 39.766 31.4759 38.424 31.5576 37.8292C31.5691 37.7458 31.5485 37.6656 31.5055 37.6001C29.3133 38.8267 27.8271 41.2 27.8271 43.9274C27.8271 47.9122 30.9987 51.1425 34.9111 51.1425C36.847 51.1426 38.6008 50.3509 39.8794 49.069Z" fill="#FFDD40"/>
<path d="M34.9109 36.7125C38.8233 36.7125 41.9949 39.9427 41.9949 43.9276C41.9949 47.9124 38.8233 51.1427 34.9109 51.1427C30.9986 51.1427 27.827 47.9124 27.827 43.9276C27.827 39.9427 30.9986 36.7125 34.9109 36.7125ZM34.9109 34.9163C30.0325 34.9163 26.0635 38.9587 26.0635 43.9274C26.0635 48.8962 30.0324 52.9387 34.9109 52.9387C39.7894 52.9387 43.7583 48.8964 43.7583 43.9274C43.7583 38.9585 39.7894 34.9163 34.9109 34.9163Z" fill="#FFB332"/>
<path d="M34.9108 52.9387C37.2715 52.9387 39.4175 51.9903 41.0057 50.4501C40.9609 50.3833 40.8939 50.3328 40.8119 50.3122C40.1054 50.134 39.9798 49.613 39.9734 49.2904C39.9718 49.204 39.9357 49.1268 39.879 49.0691C38.6004 50.351 36.8467 51.1426 34.9108 51.1426C30.9985 51.1426 27.8269 47.9124 27.8269 43.9276C27.8269 41.2002 29.3131 38.8268 31.5052 37.6003C31.4654 37.5396 31.4064 37.4914 31.3341 37.4655C30.6253 37.2124 30.6061 36.5958 30.662 36.2391C30.6729 36.1698 30.6604 36.1026 30.6311 36.0442C27.9099 37.5828 26.0635 40.5391 26.0635 43.9276C26.0635 48.8964 30.0324 52.9387 34.9108 52.9387Z" fill="#FF9100"/>
<path d="M37.5664 45.2756C38.2939 39.5332 34.3131 34.2773 28.6751 33.5364C23.037 32.7954 17.8768 36.8499 17.1493 42.5924C16.4218 48.3348 20.4026 53.5907 26.0406 54.3316C31.6786 55.0726 36.8389 51.0181 37.5664 45.2756Z" fill="#FFDD40"/>
<path d="M17.0518 43.9274C17.0518 49.7162 21.6592 54.4089 27.3427 54.4089C30.0902 54.4089 32.5844 53.3101 34.43 51.523C34.3824 51.4812 34.3236 51.4524 34.2581 51.4437C33.6164 51.3589 33.4991 50.9308 33.4963 50.6389C33.4949 50.4832 33.3922 50.3495 33.2437 50.312C32.5372 50.1338 32.4116 49.6128 32.4053 49.2903C32.4022 49.1335 32.2884 49.0039 32.1373 48.9743C29.6199 48.4823 29.7793 46.483 29.8428 46.0585C29.8518 45.9983 29.8453 45.9375 29.8224 45.8812C29.6984 45.577 29.1779 44.6256 27.3427 43.9273C25.5486 43.2448 25.5042 41.3126 25.5516 40.606C25.5618 40.4532 25.4674 40.3171 25.3253 40.2671C23.8968 39.7659 23.9074 38.4239 23.9891 37.8291C24.0111 37.6682 23.9163 37.519 23.7658 37.4652C23.057 37.2122 23.0378 36.5956 23.0937 36.2388C23.1168 36.0909 23.0374 35.9509 22.9027 35.8909C22.4356 35.6824 22.3829 35.2491 22.4043 34.9677C22.41 34.8923 22.3906 34.8203 22.3531 34.7603C19.192 36.549 17.0518 39.983 17.0518 43.9274Z" fill="#FFB332"/>
<path d="M32.3433 49.0269C35.1094 46.2096 35.1094 41.642 32.3433 38.8247C29.5773 36.0075 25.0927 36.0075 22.3267 38.8247C19.5607 41.642 19.5607 46.2096 22.3267 49.0269C25.0927 51.8441 29.5773 51.8441 32.3433 49.0269Z" fill="#FCECA9"/>
<path d="M32.3105 49.069C32.2643 49.0219 32.2047 48.9877 32.1369 48.9745C29.6196 48.4825 29.779 46.4831 29.8425 46.0586C29.8514 45.9985 29.845 45.9376 29.8221 45.8814C29.6981 45.5771 29.1776 44.6257 27.3423 43.9275C25.5483 43.2449 25.5039 41.3127 25.5512 40.6062C25.5615 40.4533 25.4671 40.3172 25.3249 40.2673C23.8964 39.766 23.9071 38.424 23.9887 37.8292C24.0002 37.7458 23.9797 37.6656 23.9366 37.6001C21.7445 38.8267 20.2583 41.2 20.2583 43.9274C20.2583 47.9122 23.4299 51.1425 27.3422 51.1425C29.2782 51.1426 31.0319 50.3509 32.3105 49.069Z" fill="#FFDD40"/>
<path d="M27.3426 36.7125C31.2549 36.7125 34.4265 39.9427 34.4265 43.9276C34.4265 47.9124 31.2549 51.1427 27.3426 51.1427C23.4302 51.1427 20.2587 47.9124 20.2587 43.9276C20.2587 39.9427 23.4302 36.7125 27.3426 36.7125ZM27.3426 34.9163C22.4641 34.9163 18.4951 38.9587 18.4951 43.9274C18.4951 48.8962 22.464 52.9387 27.3426 52.9387C32.221 52.9387 36.1899 48.8964 36.1899 43.9274C36.1899 38.9585 32.221 34.9163 27.3426 34.9163Z" fill="#FFB332"/>
<path d="M27.3425 52.9387C29.7032 52.9387 31.8493 51.9903 33.4373 50.4501C33.3926 50.3833 33.3255 50.3328 33.2436 50.3122C32.537 50.134 32.4114 49.613 32.4051 49.2904C32.4034 49.204 32.3673 49.1268 32.3107 49.0691C31.0321 50.351 29.2783 51.1426 27.3425 51.1426C23.4301 51.1426 20.2586 47.9124 20.2586 43.9276C20.2586 41.2002 21.7447 38.8268 23.9369 37.6003C23.8971 37.5396 23.8381 37.4914 23.7657 37.4655C23.057 37.2124 23.0378 36.5958 23.0937 36.2391C23.1045 36.1698 23.0921 36.1026 23.0628 36.0442C20.3416 37.5828 18.4951 40.5391 18.4951 43.9276C18.4951 48.8964 22.464 52.9387 27.3425 52.9387Z" fill="#FF9100"/>
<path d="M27.3427 49.3655C26.8557 49.3655 26.4609 48.9634 26.4609 48.4675V47.2892C26.4609 46.7932 26.8557 46.3911 27.3427 46.3911C27.8296 46.3911 28.2244 46.7932 28.2244 47.2892V48.4675C28.2244 48.9634 27.8296 49.3655 27.3427 49.3655Z" fill="#FF9100"/>
<path d="M27.3427 41.3904C26.8557 41.3904 26.4609 40.9883 26.4609 40.4923V39.388C26.4609 38.8921 26.8557 38.49 27.3427 38.49C27.8296 38.49 28.2244 38.8921 28.2244 39.388V40.4923C28.2244 40.9883 27.8296 41.3904 27.3427 41.3904Z" fill="#FF9100"/>
<path d="M27.2353 48.1872C26.4392 48.1872 25.9416 48.093 25.1927 47.594C24.7852 47.3226 24.6709 46.7659 24.9375 46.3509C25.204 45.9356 25.7504 45.8194 26.1579 46.091C26.5812 46.373 26.7194 46.3943 27.2977 46.3909C27.853 46.3871 28.0744 45.9432 28.1176 45.6815C28.1738 45.3411 28.0285 45.1059 27.6862 44.9827C27.6802 44.9806 27.6743 44.9783 27.6684 44.976L26.4016 44.4885C25.2636 44.0739 24.6317 42.9956 24.8286 41.802C25.0384 40.5313 26.1096 39.6028 27.3758 39.5942C28.2168 39.5892 28.7208 39.6728 29.4928 40.1872C29.9003 40.4587 30.0145 41.0153 29.7479 41.4304C29.4813 41.8453 28.9347 41.9618 28.5273 41.6902C28.1042 41.4082 27.9662 41.3863 27.3876 41.3903C26.8323 41.3941 26.6109 41.838 26.5678 42.0998C26.5117 42.4402 26.6568 42.6753 26.9992 42.7986C27.0052 42.8007 27.0111 42.803 27.017 42.8053L28.2838 43.2928C29.4219 43.7074 30.0536 44.7857 29.8566 45.9793C29.647 47.2499 28.5756 48.1785 27.3095 48.1871C27.2845 48.1871 27.2598 48.1872 27.2353 48.1872Z" fill="#FFB332"/>
<path d="M36.051 25.613H32.9377C32.4315 25.613 32.021 25.195 32.021 24.6793C32.021 24.1636 32.4314 23.7456 32.9377 23.7456H36.051C36.5572 23.7456 36.9677 24.1636 36.9677 24.6793C36.9677 25.195 36.5573 25.613 36.051 25.613Z" fill="#49CE8B"/>
<path d="M6.01911 25.613H2.90599C2.39974 25.613 1.98926 25.195 1.98926 24.6793C1.98926 24.1636 2.39964 23.7456 2.90599 23.7456H6.01922C6.52547 23.7456 6.93595 24.1636 6.93595 24.6793C6.93585 25.195 6.52536 25.613 6.01911 25.613Z" fill="#36B277"/>
<path d="M19.4783 31.018C18.972 31.018 18.5615 30.6001 18.5615 30.0843V28.6815C18.5615 28.1658 18.9719 27.7478 19.4783 27.7478C19.9845 27.7478 20.395 28.1658 20.395 28.6815V30.0843C20.3949 30.6001 19.9845 31.018 19.4783 31.018Z" fill="#49CE8B"/>
<path d="M19.4783 21.5233C18.972 21.5233 18.5615 21.1054 18.5615 20.5896V19.2748C18.5615 18.759 18.9719 18.3411 19.4783 18.3411C19.9845 18.3411 20.395 18.759 20.395 19.2748V20.5896C20.3949 21.1054 19.9845 21.5233 19.4783 21.5233Z" fill="#49CE8B"/>
<path d="M19.3455 29.6152C18.4109 29.6153 17.8593 29.5093 16.9915 28.9312C16.5678 28.6489 16.449 28.0702 16.7262 27.6388C17.0033 27.207 17.5714 27.0862 17.9952 27.3685C18.5267 27.7227 18.7122 27.7507 19.4258 27.7477C20.078 27.7433 20.4565 27.2482 20.5322 26.79C20.5768 26.5199 20.558 26.0332 19.9317 25.8078C19.9255 25.8056 19.9193 25.8033 19.9132 25.8008L18.404 25.22C17.1111 24.7494 16.393 23.5256 16.6166 22.1712C16.8216 20.9297 17.8843 19.667 19.5188 19.6559C20.5091 19.6459 21.0693 19.7427 21.9653 20.3397C22.3889 20.622 22.5077 21.2007 22.2305 21.6321C21.9533 22.0636 21.3852 22.1843 20.9615 21.9023C20.4302 21.5483 20.2436 21.519 19.5309 21.5233C18.8787 21.5277 18.5002 22.0228 18.4246 22.4809C18.38 22.751 18.3987 23.2376 19.025 23.4631C19.0312 23.4652 19.0375 23.4676 19.0436 23.4699L20.5527 24.0508C21.8457 24.5213 22.5637 25.7451 22.3401 27.0995C22.1352 28.3411 21.0724 29.6039 19.4379 29.6149C19.4067 29.6152 19.3759 29.6152 19.3455 29.6152Z" fill="#67E8A4"/>
</g>
<defs>
<clipPath id="clip0_6315_99">
<rect width="54" height="55" fill="white" transform="translate(0.382324)"/>
</clipPath>
</defs>
</svg>
