<svg width="20" height="20" viewBox="0 0 20 20" fill="none" xmlns="http://www.w3.org/2000/svg">
<g clip-path="url(#clip0_5949_7475)">
<path d="M17.5156 -0.0390625H2.51557C1.68762 -0.038147 1.01654 0.632936 1.01562 1.46088V18.4609C1.01654 19.289 1.68762 19.9601 2.51557 19.961H17.5156C18.3437 19.9601 19.0148 19.289 19.0157 18.4609V1.46088C19.0148 0.632936 18.3437 -0.038147 17.5156 -0.0390625ZM2.01569 18.461V1.46088C2.01584 1.18485 2.23954 0.961153 2.51557 0.960848H4.01566V18.9609H2.51557C2.23954 18.9608 2.01584 18.7371 2.01569 18.461ZM18.0156 18.461C18.0153 18.7369 17.7916 18.9606 17.5156 18.9611H5.01557V0.960848H17.5156C17.7916 0.961306 18.0153 1.185 18.0156 1.46088V18.461Z" fill="#B1B1B1"/>
<path d="M14.8331 6.96094H8.83304C8.55685 6.96094 8.33301 7.18479 8.33301 7.46097C8.33301 7.73716 8.55685 7.96101 8.83304 7.96101H14.8331C15.1091 7.96101 15.333 7.73716 15.333 7.46097C15.333 7.18479 15.1091 6.96094 14.8331 6.96094Z" fill="#B1B1B1"/>
<path d="M14.8331 3.96094H8.83304C8.55685 3.96094 8.33301 4.18478 8.33301 4.46097C8.33301 4.73715 8.55685 4.961 8.83304 4.961H14.8331C15.1091 4.961 15.333 4.73715 15.333 4.46097C15.333 4.18478 15.1091 3.96094 14.8331 3.96094Z" fill="#B1B1B1"/>
</g>
<defs>
<clipPath id="clip0_5949_7475">
<rect width="20" height="20" fill="white"/>
</clipPath>
</defs>
</svg>
