<svg width="20" height="20" viewBox="0 0 20 20" fill="none" xmlns="http://www.w3.org/2000/svg">
<g clip-path="url(#clip0_5949_7872)">
<path d="M4.01565 0H2.51571C1.68762 0.000915525 1.01654 0.671996 1.01562 1.50009V18.5C1.01654 19.3281 1.68762 19.999 2.51571 20H4.01565V0Z" fill="#BF0C26"/>
<path d="M17.5156 0H5.01562V20H17.5156C18.3435 19.999 19.0146 19.328 19.0155 18.4999V1.50009C19.0146 0.671996 18.3435 0.000915525 17.5156 0V0ZM14.5156 8.00001H9.51558C9.2394 8.00001 9.01556 7.77617 9.01556 7.49998C9.01556 7.2238 9.2394 6.99995 9.51558 6.99995H14.5156C14.7918 6.99995 15.0156 7.2238 15.0156 7.49998C15.0156 7.77617 14.7918 8.00001 14.5156 8.00001ZM14.5156 4.99999H9.51558C9.2394 4.99999 9.01556 4.77614 9.01556 4.49996C9.01556 4.22393 9.2394 4.00008 9.51558 4.00008H14.5156C14.7918 4.00008 15.0156 4.22393 15.0156 4.49996C15.0156 4.77614 14.7918 4.99999 14.5156 4.99999Z" fill="#BF0C26"/>
</g>
<defs>
<clipPath id="clip0_5949_7872">
<rect width="20" height="20" fill="white"/>
</clipPath>
</defs>
</svg>
