<svg width="40" height="40" viewBox="0 0 40 40" fill="none" xmlns="http://www.w3.org/2000/svg">
<circle cx="20" cy="20" r="20" fill="#E9F2FF"/>
<g clip-path="url(#clip0_5577_16429)">
<path d="M13.4172 9H11.7673C10.8564 9.00101 10.1182 9.7392 10.1172 10.6501V29.35C10.1182 30.2609 10.8564 30.9989 11.7673 31H13.4172V9Z" fill="#0081FF"/>
<path d="M28.2675 9H14.5176V31H28.2675C29.1783 30.9989 29.9165 30.2608 29.9175 29.3499V10.6501C29.9165 9.7392 29.1783 9.00101 28.2675 9V9ZM24.9675 17.8H19.4675C19.1637 17.8 18.9175 17.5538 18.9175 17.25C18.9175 16.9462 19.1637 16.6999 19.4675 16.6999H24.9675C25.2713 16.6999 25.5176 16.9462 25.5176 17.25C25.5176 17.5538 25.2713 17.8 24.9675 17.8ZM24.9675 14.5H19.4675C19.1637 14.5 18.9175 14.2538 18.9175 13.95C18.9175 13.6463 19.1637 13.4001 19.4675 13.4001H24.9675C25.2713 13.4001 25.5176 13.6463 25.5176 13.95C25.5176 14.2538 25.2713 14.5 24.9675 14.5Z" fill="#0081FF"/>
</g>
<defs>
<clipPath id="clip0_5577_16429">
<rect width="22" height="22" fill="white" transform="translate(9 9)"/>
</clipPath>
</defs>
</svg>
