<svg width="32" height="32" viewBox="0 0 32 32" fill="none" xmlns="http://www.w3.org/2000/svg">
<path d="M25.7863 19.3201L24.4529 17.1067C24.1729 16.6134 23.9196 15.6801 23.9196 15.1334V11.7601C23.9196 8.62675 22.0796 5.92008 19.4263 4.65341C18.7329 3.42675 17.4529 2.66675 15.9863 2.66675C14.5329 2.66675 13.2263 3.45341 12.5329 4.69341C9.93293 5.98675 8.13293 8.66675 8.13293 11.7601V15.1334C8.13293 15.6801 7.8796 16.6134 7.5996 17.0934L6.25293 19.3201C5.7196 20.2134 5.5996 21.2001 5.93293 22.1067C6.25293 23.0001 7.01293 23.6934 7.9996 24.0267C10.5863 24.9067 13.3063 25.3334 16.0263 25.3334C18.7463 25.3334 21.4663 24.9067 24.0529 24.0401C24.9863 23.7334 25.7063 23.0267 26.0529 22.1067C26.3996 21.1867 26.3063 20.1734 25.7863 19.3201Z" fill="white"/>
<path d="M19.7736 26.6801C19.2136 28.2267 17.7336 29.3334 16.0002 29.3334C14.9469 29.3334 13.9069 28.9067 13.1736 28.1467C12.7469 27.7467 12.4269 27.2134 12.2402 26.6667C12.4136 26.6934 12.5869 26.7067 12.7736 26.7334C13.0802 26.7734 13.4002 26.8134 13.7202 26.8401C14.4802 26.9067 15.2536 26.9467 16.0269 26.9467C16.7869 26.9467 17.5469 26.9067 18.2936 26.8401C18.5736 26.8134 18.8536 26.8001 19.1202 26.7601C19.3336 26.7334 19.5469 26.7067 19.7736 26.6801Z" fill="white"/>
</svg>
