<svg width="72" height="72" viewBox="0 0 72 72" fill="none" xmlns="http://www.w3.org/2000/svg">
<g clip-path="url(#clip0_757_24742)">
<path d="M62.0686 36.1242V28.5518H2.48242V69.5173C2.48651 70.8868 3.59569 71.9959 4.96518 72H47.1721L62.0686 36.1242Z" fill="#CA4538"/>
<path d="M2.48242 29.793H62.0686V33.5171H2.48242V29.793Z" fill="#C03A2B"/>
<path d="M51.9525 9.53393C53.8521 8.73657 55.596 7.61034 57.1043 6.20703L58.3456 11.1725L63.3111 9.93117C62.0698 17.3794 55.8629 19.8622 50.8974 19.8622L32.2767 22.9656L13.656 19.8622C8.69046 19.8622 2.48357 17.3794 1.24219 9.93117L6.2077 11.1725L7.44908 6.20703C8.96051 7.61223 10.7089 8.7386 12.6132 9.53393L32.2767 13.2581L51.9525 9.53393Z" fill="#F29C1F"/>
<path d="M32.2763 12.4129C32.2763 12.4129 29.9176 1.71347 19.4379 0.0276721C18.8493 -0.0606759 18.2488 0.0719847 17.7521 0.400086C16.0949 1.47636 12.624 4.57236 12.4229 11.7326C12.4094 12.2021 12.5318 12.6655 12.7754 13.0671C13.8306 14.7914 17.4803 19.2517 27.2996 19.9804L32.2763 12.4129Z" fill="#F0C419"/>
<path d="M32.2842 12.413C32.2842 12.413 34.6428 1.71354 45.1225 0.0277484C45.7108 -0.0607621 46.311 0.0719233 46.8071 0.400162C48.4656 1.47644 51.9365 4.57244 52.1363 11.7327C52.1502 12.2021 52.0282 12.6655 51.785 13.0672C50.7286 14.794 47.0678 19.2654 37.2149 19.9829L32.2842 12.413Z" fill="#F0C419"/>
<path d="M2.48276 19.8623H62.069C63.4402 19.8623 64.5517 20.9739 64.5517 22.3451V28.552C64.5517 29.2375 63.9959 29.7933 63.3103 29.7933H1.24138C0.555784 29.7933 0 29.2375 0 28.552V22.3451C0 20.9739 1.11157 19.8623 2.48276 19.8623Z" fill="#CA4538"/>
<path d="M26.0693 19.8623H38.4831V29.7933H26.0693V19.8623Z" fill="#F0C419"/>
<path d="M27.3105 29.793H37.2416V71.9999H27.3105V29.793Z" fill="#F29C1F"/>
<path d="M44.6895 52.1377H69.517V69.517C69.517 70.8882 68.4055 71.9997 67.0343 71.9997H47.1722C45.801 71.9997 44.6895 70.8882 44.6895 69.517V52.1377Z" fill="#2980BA"/>
<path d="M57.104 42.2064C57.104 42.2064 56.0091 36.5593 48.6837 34.8239C47.7019 34.5972 46.68 34.983 46.093 35.8021C44.6931 37.6738 43.7895 39.8692 43.4662 42.184C43.3697 42.9679 43.6453 43.7519 44.211 44.3031C46.7112 46.5327 50.0589 47.562 53.3799 47.1222L57.104 42.2064Z" fill="#F0C419"/>
<path d="M57.1035 42.2064C57.1035 42.2064 58.1984 36.5593 65.5238 34.8239C66.5057 34.5972 67.5276 34.983 68.1146 35.8021C69.5144 37.6738 70.4181 39.8692 70.7413 42.184C70.8378 42.9679 70.5622 43.7519 69.9965 44.3031C67.4963 46.5327 64.1486 47.562 60.8277 47.1222L57.1035 42.2064Z" fill="#F0C419"/>
<path d="M53.3799 54.6201H60.8282V71.9995H53.3799V54.6201Z" fill="#F29C1F"/>
<path d="M28.193 14.2512C27.7495 14.2512 27.3397 14.0146 27.1179 13.6305C26.5643 12.6759 24.5557 9.49421 21.9513 8.62276C21.53 8.48217 21.2157 8.12748 21.1268 7.69231C21.0378 7.25713 21.1879 6.80758 21.5203 6.513C21.8527 6.21841 22.317 6.12355 22.7383 6.26414C26.0739 7.38138 28.4139 10.9119 29.2655 12.3792C29.487 12.7629 29.4873 13.2355 29.2661 13.6195C29.045 14.0034 28.636 14.2403 28.193 14.2412V14.2512Z" fill="#F29C1F"/>
<path d="M36.359 14.2506C35.9159 14.2497 35.5069 14.0127 35.2858 13.6288C35.0647 13.2449 35.0649 12.7722 35.2864 12.3885C36.138 10.9237 38.483 7.38698 41.8136 6.27098C42.2349 6.13039 42.6993 6.22525 43.0317 6.51984C43.3641 6.81442 43.5141 7.26397 43.4252 7.69915C43.3363 8.13432 43.022 8.48901 42.6006 8.6296C39.9937 9.49856 37.9877 12.6827 37.434 13.6373C37.2104 14.0185 36.8009 14.2521 36.359 14.2506Z" fill="#F29C1F"/>
<path d="M29.7933 12.4131H34.7588C36.13 12.4131 37.2416 13.5247 37.2416 14.8958V19.8614H27.3105V14.8958C27.3105 13.5247 28.4221 12.4131 29.7933 12.4131Z" fill="#F3D55B"/>
<path d="M55.8626 42.207H58.3454C59.7166 42.207 60.8282 43.3186 60.8282 44.6898V47.1726H53.3799V44.6898C53.3799 43.3186 54.4915 42.207 55.8626 42.207Z" fill="#F3D55B"/>
<path d="M44.6898 47.1719H69.5174C70.8886 47.1719 72.0001 48.2834 72.0001 49.6546V53.3788C72.0001 54.0644 71.4443 54.6201 70.7588 54.6201H43.4484C42.7628 54.6201 42.207 54.0644 42.207 53.3788V49.6546C42.207 48.2834 43.3186 47.1719 44.6898 47.1719Z" fill="#3B97D3"/>
<path d="M52.1377 47.1719H62.0687V54.6201H52.1377V47.1719Z" fill="#F0C419"/>
</g>
<defs>
<clipPath id="clip0_757_24742">
<rect width="72" height="72" fill="white"/>
</clipPath>
</defs>
</svg>
