<svg width="40" height="40" viewBox="0 0 40 40" fill="none" xmlns="http://www.w3.org/2000/svg">
<circle cx="20" cy="20" r="20" fill="#E9F2FF"/>
<path d="M30.4136 22.4275L28.3773 20.8352C28.4031 20.5896 28.4253 20.3026 28.4253 19.9989C28.4253 19.6952 28.404 19.4081 28.3773 19.1626L30.4154 17.5693C30.7939 17.2703 30.8973 16.7395 30.6564 16.2974L28.5388 12.6336C28.3126 12.2201 27.8169 12.0078 27.3139 12.1933L24.9111 13.1579C24.4505 12.8256 23.9677 12.545 23.4683 12.3207L23.1028 9.7721C23.0428 9.28839 22.6219 8.92285 22.1244 8.92285H17.8782C17.3807 8.92285 16.9607 9.28839 16.9016 9.7647L16.5351 12.3226C16.0514 12.5404 15.5761 12.8173 15.0951 13.1598L12.6859 12.1924C12.2345 12.0179 11.6945 12.2136 11.4702 12.6253L9.34989 16.2936C9.09975 16.7164 9.20312 17.2656 9.58991 17.5721L11.6262 19.1644C11.5939 19.4755 11.5782 19.746 11.5782 19.9998C11.5782 20.2537 11.5939 20.5241 11.6262 20.8361L9.58805 22.4293C9.20957 22.7293 9.10711 23.2601 9.34803 23.7013L11.4656 27.365C11.6918 27.7776 12.1828 27.9918 12.6905 27.8053L15.0933 26.8407C15.553 27.1721 16.0357 27.4527 16.5351 27.6779L16.9007 30.2256C16.9606 30.7112 17.3807 31.0767 17.8791 31.0767H22.1253C22.6228 31.0767 23.0437 30.7112 23.1028 30.2349L23.4693 27.6779C23.953 27.4592 24.4274 27.1832 24.9093 26.8398L27.3185 27.8071C27.4348 27.8524 27.5557 27.8755 27.6803 27.8755C28.0385 27.8755 28.368 27.6798 28.5342 27.3751L30.6609 23.6921C30.8973 23.2601 30.7939 22.7293 30.4136 22.4275ZM20.0013 23.6921C17.965 23.6921 16.309 22.0361 16.309 19.9998C16.309 17.9635 17.965 16.3075 20.0013 16.3075C22.0376 16.3075 23.6936 17.9635 23.6936 19.9998C23.6936 22.0361 22.0376 23.6921 20.0013 23.6921Z" fill="#0081FF"/>
</svg>
