<svg width="50" height="50" viewBox="0 0 50 50" fill="none" xmlns="http://www.w3.org/2000/svg">
<g clip-path="url(#clip0_646_20272)">
<path d="M44.2707 43.75H5.72929C2.56882 43.75 0 41.1812 0 38.0207V11.9793C0 8.81882 2.56882 6.25 5.72929 6.25H44.2707C47.4312 6.25 50 8.81882 50 11.9793V38.0207C50 41.1812 47.4312 43.75 44.2707 43.75ZM5.72929 9.375C4.29382 9.375 3.125 10.5438 3.125 11.9793V38.0207C3.125 39.4562 4.29382 40.625 5.72929 40.625H44.2707C45.7062 40.625 46.875 39.4562 46.875 38.0207V11.9793C46.875 10.5438 45.7062 9.375 44.2707 9.375H5.72929Z" fill="#888888"/>
<path d="M32.6351 15.2744C32.6441 14.4585 32.3273 13.6728 31.7548 13.0913C31.1727 12.5156 30.3904 12.1875 29.5717 12.1758C28.7672 12.1723 27.9944 12.489 27.4238 13.0561L31.7548 17.4223C32.3358 16.861 32.655 16.082 32.6351 15.2744Z" fill="#888888"/>
<path d="M30.7675 18.4081L26.4365 14.0771L16.4014 24.1123L20.7323 28.4432L30.7675 18.4081Z" fill="#888888"/>
<path d="M15.8395 25.5205L14.8535 29.9923L19.3253 29.0064L15.8395 25.5205Z" fill="#888888"/>
<path d="M36.2958 35.415H12.7042C12.3153 35.415 12 35.7303 12 36.1193C12 36.5082 12.3153 36.8235 12.7042 36.8235H36.2958C36.6847 36.8235 37 36.5082 37 36.1193C37 35.7303 36.6847 35.415 36.2958 35.415Z" fill="#888888"/>
</g>
<defs>
<clipPath id="clip0_646_20272">
<rect width="50" height="50" fill="white"/>
</clipPath>
</defs>
</svg>
