<svg width="50" height="50" viewBox="0 0 50 50" fill="none" xmlns="http://www.w3.org/2000/svg">
<g clip-path="url(#clip0_646_20264)">
<path d="M44.2707 43.75H5.72929C2.56882 43.75 0 41.1812 0 38.0207V11.9793C0 8.81882 2.56882 6.25 5.72929 6.25H44.2707C47.4312 6.25 50 8.81882 50 11.9793V38.0207C50 41.1812 47.4312 43.75 44.2707 43.75ZM5.72929 9.375C4.29382 9.375 3.125 10.5438 3.125 11.9793V38.0207C3.125 39.4562 4.29382 40.625 5.72929 40.625H44.2707C45.7062 40.625 46.875 39.4562 46.875 38.0207V11.9793C46.875 10.5438 45.7062 9.375 44.2707 9.375H5.72929Z" fill="#888888"/>
<path d="M42.1887 25.75H8.0625C7.2 25.75 6.5 25.05 6.5 24.1875C6.5 23.325 7.2 22.625 8.0625 22.625H42.1887C43.0512 22.625 43.7512 23.325 43.7512 24.1875C43.7512 25.05 43.0512 25.75 42.1887 25.75Z" fill="#888888"/>
<path d="M42.1887 16.755H25.1256H8.0625C7.2 16.755 6.5 15.8299 6.5 14.69C6.5 13.5501 7.2 12.625 8.0625 12.625H42.1887C43.0512 12.625 43.7512 13.5501 43.7512 14.69C43.7512 15.8299 43.0512 16.755 42.1887 16.755Z" fill="#888888"/>
<path d="M42.1887 31.875H8.0625C7.2 31.875 6.5 31.175 6.5 30.3125C6.5 29.45 7.2 28.75 8.0625 28.75H42.1887C43.0512 28.75 43.7512 29.45 43.7512 30.3125C43.7512 31.175 43.0512 31.875 42.1887 31.875Z" fill="#888888"/>
<path d="M42.1887 38H8.0625C7.2 38 6.5 37.3 6.5 36.4375C6.5 35.575 7.2 34.875 8.0625 34.875H42.1887C43.0512 34.875 43.7512 35.575 43.7512 36.4375C43.7512 37.3 43.0512 38 42.1887 38Z" fill="#888888"/>
</g>
<defs>
<clipPath id="clip0_646_20264">
<rect width="50" height="50" fill="white"/>
</clipPath>
</defs>
</svg>
