<svg width="50" height="50" viewBox="0 0 50 50" fill="none" xmlns="http://www.w3.org/2000/svg">
<g clip-path="url(#clip0_646_20255)">
<path d="M44.2707 43.75H5.72929C2.56882 43.75 0 41.1812 0 38.0207V11.9793C0 8.81882 2.56882 6.25 5.72929 6.25H44.2707C47.4312 6.25 50 8.81882 50 11.9793V38.0207C50 41.1812 47.4312 43.75 44.2707 43.75ZM5.72929 9.375C4.29382 9.375 3.125 10.5438 3.125 11.9793V38.0207C3.125 39.4562 4.29382 40.625 5.72929 40.625H44.2707C45.7062 40.625 46.875 39.4562 46.875 38.0207V11.9793C46.875 10.5438 45.7062 9.375 44.2707 9.375H5.72929Z" fill="#888888"/>
<path d="M15.6252 24.9998C12.7543 24.9998 10.417 22.6622 10.417 19.7916C10.417 16.9207 12.7543 14.583 15.6252 14.583C18.4961 14.583 20.8334 16.9207 20.8334 19.7916C20.8334 22.6622 18.4961 24.9998 15.6252 24.9998ZM15.6252 17.708C14.4774 17.708 13.542 18.6434 13.542 19.7916C13.542 20.9394 14.4774 21.8748 15.6252 21.8748C16.773 21.8748 17.7084 20.9394 17.7084 19.7916C17.7084 18.6434 16.773 17.708 15.6252 17.708Z" fill="#888888"/>
<path d="M23.4375 35.4166C22.575 35.4166 21.875 34.7166 21.875 33.8541V32.8123C21.875 31.3768 20.7062 30.208 19.2707 30.208H11.9793C10.5438 30.208 9.375 31.3768 9.375 32.8123V33.8541C9.375 34.7166 8.675 35.4166 7.8125 35.4166C6.95 35.4166 6.25 34.7166 6.25 33.8541V32.8123C6.25 29.6518 8.81882 27.083 11.9793 27.083H19.2707C22.4312 27.083 25 29.6518 25 32.8123V33.8541C25 34.7166 24.3 35.4166 23.4375 35.4166Z" fill="#888888"/>
<path d="M42.1877 18.75H30.7295C29.867 18.75 29.167 18.05 29.167 17.1875C29.167 16.325 29.867 15.625 30.7295 15.625H42.1877C43.0502 15.625 43.7502 16.325 43.7502 17.1875C43.7502 18.05 43.0502 18.75 42.1877 18.75Z" fill="#888888"/>
<path d="M42.1877 27.083H30.7295C29.867 27.083 29.167 26.383 29.167 25.5205C29.167 24.658 29.867 23.958 30.7295 23.958H42.1877C43.0502 23.958 43.7502 24.658 43.7502 25.5205C43.7502 26.383 43.0502 27.083 42.1877 27.083Z" fill="#888888"/>
<path d="M42.1877 35.417H30.7295C29.867 35.417 29.167 34.717 29.167 33.8545C29.167 32.992 29.867 32.292 30.7295 32.292H42.1877C43.0502 32.292 43.7502 32.992 43.7502 33.8545C43.7502 34.717 43.0502 35.417 42.1877 35.417Z" fill="#888888"/>
</g>
<defs>
<clipPath id="clip0_646_20255">
<rect width="50" height="50" fill="white"/>
</clipPath>
</defs>
</svg>
