<svg width="240" height="240" viewBox="0 0 240 240" fill="none" xmlns="http://www.w3.org/2000/svg">
<path d="M216.53 54.1406C219.117 54.1406 221.217 56.2406 221.217 58.8281C221.217 61.4156 219.117 63.5156 216.53 63.5156C213.942 63.5156 211.842 61.4156 211.842 58.8281C211.842 56.2406 213.942 54.1406 216.53 54.1406Z" fill="#94D4FF"/>
<path d="M216.53 176.016C219.117 176.016 221.217 178.116 221.217 180.703C221.217 183.291 219.117 185.391 216.53 185.391C213.942 185.391 211.842 183.291 211.842 180.703C211.842 178.116 213.942 176.016 216.53 176.016Z" fill="#94D4FF"/>
<path d="M193.092 204.141C198.272 204.141 202.467 208.336 202.467 213.516C202.467 218.695 198.272 222.891 193.092 222.891C187.913 222.891 183.717 218.695 183.717 213.516C183.717 208.336 187.913 204.141 193.092 204.141Z" fill="#3256C1"/>
<path d="M183.717 11.9531C186.305 11.9531 188.405 14.0531 188.405 16.6406C188.405 19.2281 186.305 21.3281 183.717 21.3281C181.13 21.3281 179.03 19.2281 179.03 16.6406C179.03 14.0531 181.13 11.9531 183.717 11.9531Z" fill="#94D4FF"/>
<path d="M118.092 26.0156C66.3142 26.0156 24.3423 67.9875 24.3423 119.766C24.3423 171.544 66.3142 213.516 118.092 213.516C169.87 213.516 211.842 171.544 211.842 119.766C211.842 67.9875 169.87 26.0156 118.092 26.0156Z" fill="#FFD400"/>
<path d="M118.092 190.078C79.261 190.078 47.7798 158.597 47.7798 119.766C47.7798 80.9344 79.261 49.4531 118.092 49.4531C156.924 49.4531 188.405 80.9344 188.405 119.766C188.405 158.597 156.924 190.078 118.092 190.078Z" fill="white"/>
<path d="M152.943 97.6031C156.605 101.264 156.605 107.198 152.943 110.859L119.798 144.009L106.542 157.266L93.2809 144.009L83.3387 134.062C81.511 132.234 80.5923 129.834 80.5923 127.434C80.5923 125.034 81.511 122.634 83.3387 120.806C87.0001 117.145 92.9345 117.145 96.5949 120.806L106.542 130.748L139.688 97.6031C141.52 95.775 143.916 94.8562 146.316 94.8562C148.716 94.8562 151.111 95.775 152.943 97.6031Z" fill="#07CC66"/>
<path d="M47.7798 213.516C50.3673 213.516 52.4673 215.616 52.4673 218.203C52.4673 220.791 50.3673 222.891 47.7798 222.891C45.1918 222.891 43.0923 220.791 43.0923 218.203C43.0923 215.616 45.1918 213.516 47.7798 213.516Z" fill="#94D4FF"/>
<path d="M36.061 21.3281C42.5345 21.3281 47.7798 26.5734 47.7798 33.0469C47.7798 39.5203 42.5345 44.7656 36.061 44.7656C29.5871 44.7656 24.3423 39.5203 24.3423 33.0469C24.3423 26.5734 29.5871 21.3281 36.061 21.3281Z" fill="#3256C1"/>
<path d="M19.6548 58.8281C22.2423 58.8281 24.3423 60.9281 24.3423 63.5156C24.3423 66.1031 22.2423 68.2031 19.6548 68.2031C17.0668 68.2031 14.9673 66.1031 14.9673 63.5156C14.9673 60.9281 17.0668 58.8281 19.6548 58.8281Z" fill="#94D4FF"/>
<path d="M19.6548 176.016C22.2423 176.016 24.3423 178.116 24.3423 180.703C24.3423 183.291 22.2423 185.391 19.6548 185.391C17.0668 185.391 14.9673 183.291 14.9673 180.703C14.9673 178.116 17.0668 176.016 19.6548 176.016Z" fill="#94D4FF"/>
</svg>
