<svg width="240" height="240" viewBox="0 0 240 240" fill="none" xmlns="http://www.w3.org/2000/svg">
<path d="M121.071 214.286C172.552 214.286 214.286 172.552 214.286 121.071C214.286 69.5906 172.552 27.8572 121.071 27.8572C69.5906 27.8572 27.8572 69.5906 27.8572 121.071C27.8572 172.552 69.5906 214.286 121.071 214.286Z" fill="#03BF4E"/>
<path d="M96.2141 163.18L144.144 211.11C183.841 200.524 213.247 164.356 213.247 121.13C213.247 120.248 213.247 119.366 213.247 118.484L175.608 83.7859L96.2141 163.18Z" fill="#209E36"/>
<path d="M123.179 141.949C127.295 146.065 127.295 153.123 123.179 157.239L114.651 165.767C110.534 169.884 103.477 169.884 99.3605 165.767L62.016 128.128C57.8993 124.012 57.8993 116.954 62.016 112.838L70.5435 104.31C74.6602 100.193 81.7174 100.193 85.8342 104.31L123.179 141.949Z" fill="white"/>
<path d="M155.818 76.9638C159.935 72.847 166.992 72.847 171.109 76.9638L179.636 85.4912C183.753 89.608 183.753 96.6652 179.636 100.782L114.945 165.179C110.828 169.296 103.771 169.296 99.6541 165.179L91.1266 156.652C87.0099 152.535 87.0099 145.478 91.1266 141.361L155.818 76.9638Z" fill="white"/>
<g clip-path="url(#clip0_5577_19213)">
<path d="M121.071 214.286C172.552 214.286 214.286 172.552 214.286 121.071C214.286 69.5906 172.552 27.8572 121.071 27.8572C69.5906 27.8572 27.8572 69.5906 27.8572 121.071C27.8572 172.552 69.5906 214.286 121.071 214.286Z" fill="#03BF4E"/>
<path d="M96.2144 163.179L144.145 211.11C183.842 200.524 213.247 164.356 213.247 121.13C213.247 120.248 213.247 119.366 213.247 118.484L175.608 83.7856L96.2144 163.179Z" fill="#209E36"/>
<circle cx="121.071" cy="121.071" r="93.2143" fill="#FF487F"/>
<path d="M121.216 145.6C117.696 145.6 115.829 143.573 115.616 139.52L111.776 72.64C111.563 69.44 112.256 66.88 113.856 64.96C115.563 63.04 118.016 62.08 121.216 62.08C124.309 62.08 126.656 63.04 128.256 64.96C129.856 66.88 130.496 69.44 130.176 72.64L126.336 139.52C126.123 143.573 124.416 145.6 121.216 145.6ZM121.216 176.64C118.016 176.64 115.456 175.68 113.536 173.76C111.723 171.84 110.816 169.387 110.816 166.4C110.816 163.413 111.723 161.013 113.536 159.2C115.456 157.28 118.016 156.32 121.216 156.32C124.309 156.32 126.763 157.28 128.576 159.2C130.389 161.013 131.296 163.413 131.296 166.4C131.296 169.387 130.389 171.84 128.576 173.76C126.763 175.68 124.309 176.64 121.216 176.64Z" fill="white"/>
</g>
<defs>
<clipPath id="clip0_5577_19213">
<rect width="186.429" height="186.429" fill="white" transform="translate(27.8572 27.8572)"/>
</clipPath>
</defs>
</svg>
