<svg width="40" height="40" viewBox="0 0 40 40" fill="none" xmlns="http://www.w3.org/2000/svg">
<circle cx="20" cy="20" r="20" fill="#FFF8E7"/>
<g clip-path="url(#clip0_5577_16414)">
<path d="M31.2966 29.5935H30.5466V15.7187C30.5466 15.3304 30.2318 15.0156 29.8434 15.0156H27.031C26.6427 15.0156 26.3279 15.3304 26.3279 15.7187V29.5935H24.9216V20.4062C24.9216 20.0179 24.6068 19.7031 24.2185 19.7031H21.4061C21.0178 19.7031 20.7029 20.0179 20.7029 20.4062V29.5935H19.2967V22.9843C19.2967 22.596 18.9819 22.2812 18.5936 22.2812H15.7811C15.3928 22.2812 15.078 22.596 15.078 22.9843V29.5935H13.6718V24.6717C13.6718 24.2834 13.357 23.9686 12.9687 23.9686H10.1562C9.76791 23.9686 9.4531 24.2834 9.4531 24.6717V29.5935H8.70312C8.31481 29.5935 8 29.9084 8 30.2967C8 30.685 8.31481 30.9998 8.70312 30.9998H31.2966C31.6849 30.9998 31.9997 30.685 31.9997 30.2967C31.9997 29.9084 31.6849 29.5935 31.2966 29.5935Z" fill="#F9A804"/>
<path d="M8.70312 22.1079C13.0914 22.1079 17.8502 20.5319 22.1029 17.6702C25.4336 15.4289 28.21 12.5657 29.9346 9.63383L30.6174 12.1822C30.7016 12.4964 31.1081 12.7678 31.4786 12.6794C31.8563 12.5893 32.0762 12.1934 31.9757 11.8183L30.8243 7.52129C30.7238 7.14625 30.3384 6.9236 29.9632 7.02415L25.6662 8.17552C25.2912 8.27602 25.0686 8.66156 25.1691 9.03665C25.2696 9.41174 25.655 9.63439 26.0302 9.5338L28.7984 8.79206C27.1894 11.5879 24.5303 14.3417 21.3178 16.5035C17.2947 19.2108 12.8147 20.7017 8.70312 20.7017C8.31481 20.7017 8 21.0165 8 21.4048C8 21.7931 8.31481 22.1079 8.70312 22.1079Z" fill="#F9A804"/>
</g>
<defs>
<clipPath id="clip0_5577_16414">
<rect width="24" height="24" fill="white" transform="translate(8 7)"/>
</clipPath>
</defs>
</svg>
