<svg width="25" height="24" viewBox="0 0 25 24" fill="none" xmlns="http://www.w3.org/2000/svg">
<g clip-path="url(#clip0_5577_18939)">
<path d="M12.5 5C9.191 5 6.5 7.691 6.5 11C6.5 14.309 9.191 17 12.5 17C15.809 17 18.5 14.309 18.5 11C18.5 7.691 15.809 5 12.5 5ZM12.375 10.25H12.625C13.659 10.25 14.5 11.091 14.5 12.125C14.5 12.939 13.976 13.626 13.25 13.885V14.25C13.25 14.664 12.914 15 12.5 15C12.086 15 11.75 14.664 11.75 14.25V14H11.25C10.836 14 10.5 13.664 10.5 13.25C10.5 12.836 10.836 12.5 11.25 12.5H12.625C12.832 12.5 13 12.332 13 12.125C13 11.918 12.832 11.75 12.625 11.75H12.375C11.341 11.75 10.5 10.909 10.5 9.875C10.5 9.061 11.024 8.374 11.75 8.115V7.75C11.75 7.336 12.086 7 12.5 7C12.914 7 13.25 7.336 13.25 7.75V8H13.75C14.164 8 14.5 8.336 14.5 8.75C14.5 9.164 14.164 9.5 13.75 9.5H12.375C12.168 9.5 12 9.668 12 9.875C12 10.082 12.168 10.25 12.375 10.25Z" fill="#0081FF"/>
<path d="M22.7725 10.272C22.3585 10.272 22.0225 10.608 22.0225 11.022C22.0225 15.507 18.9005 19.268 14.7185 20.272V19.337C14.7185 18.671 13.9115 18.334 13.4385 18.807L11.4815 20.763C11.1885 21.056 11.1885 21.531 11.4815 21.824L13.4385 23.78C13.9075 24.249 14.7185 23.921 14.7185 23.25V21.819C19.7365 20.79 23.5225 16.34 23.5225 11.022C23.5225 10.608 23.1865 10.272 22.7725 10.272V10.272Z" fill="#0081FF"/>
<path d="M9.32432 19.9889C5.52832 18.6589 2.97832 15.0559 2.97832 11.0219C2.97832 9.87994 3.18432 8.77094 3.57132 7.72894L4.47032 8.24694C5.04532 8.57994 5.74232 8.05094 5.57032 7.40294L4.81032 4.56894C4.70232 4.17094 4.30032 3.93494 3.89032 4.03894L1.05532 4.79794C0.410321 4.97094 0.299321 5.83994 0.875322 6.17194L2.25432 6.96794C1.74632 8.24394 1.47932 9.61194 1.47932 11.0219C1.47932 15.6909 4.43232 19.8639 8.82932 21.4049C9.22632 21.5419 9.64932 21.3319 9.78532 20.9449C9.92132 20.5539 9.71533 20.1259 9.32432 19.9889V19.9889Z" fill="#0081FF"/>
<path d="M23.5563 4.917L21.9433 5.349C19.9803 2.106 16.4023 0 12.5003 0C9.9883 0 7.63431 0.825999 5.69131 2.386C5.36831 2.646 5.31731 3.118 5.57631 3.441C5.83731 3.765 6.30831 3.815 6.63131 3.556C8.30531 2.211 10.3343 1.5 12.5003 1.5C15.7223 1.5 18.6853 3.164 20.4213 5.756L19.5473 5.99C18.9033 6.163 18.7893 7.03 19.3663 7.364L21.9073 8.83199C22.0803 8.93199 22.2833 8.95799 22.4763 8.90699C22.6673 8.85499 22.8313 8.72999 22.9313 8.55699L24.4003 6.016C24.7313 5.441 24.2063 4.745 23.5563 4.917V4.917Z" fill="#0081FF"/>
</g>
<defs>
<clipPath id="clip0_5577_18939">
<rect width="24" height="24" fill="white" transform="translate(0.5)"/>
</clipPath>
</defs>
</svg>
