<svg width="24" height="24" viewBox="0 0 24 24" fill="none" xmlns="http://www.w3.org/2000/svg">
<path d="M11.9999 10.2857C13.8934 10.2857 15.4284 8.75068 15.4284 6.85713C15.4284 4.96358 13.8934 3.42856 11.9999 3.42856C10.1063 3.42856 8.57129 4.96358 8.57129 6.85713C8.57129 8.75068 10.1063 10.2857 11.9999 10.2857Z" fill="#595959"/>
<path d="M14.7859 12H9.21449C6.96964 12 5.14307 13.8266 5.14307 16.0714V18.2143C5.14307 18.5691 5.43107 18.8571 5.78592 18.8571H18.2145C18.5693 18.8571 18.8573 18.5691 18.8573 18.2143V16.0714C18.8573 13.8266 17.0308 12 14.7859 12Z" fill="#595959"/>
<path d="M6.00007 1.71429H4.28578C2.86807 1.71429 1.71436 2.86801 1.71436 4.28572V6.00001C1.71436 6.47401 2.09836 6.85715 2.5715 6.85715C3.04464 6.85715 3.42864 6.47401 3.42864 6.00001V4.28572C3.42864 3.81258 3.8135 3.42858 4.28578 3.42858H6.00007C6.47321 3.42858 6.85721 3.04544 6.85721 2.57144C6.85721 2.09744 6.47321 1.71429 6.00007 1.71429Z" fill="#595959"/>
<path d="M6.00007 20.5714H4.28578C3.8135 20.5714 3.42864 20.1874 3.42864 19.7143V18C3.42864 17.526 3.04464 17.1429 2.5715 17.1429C2.09836 17.1429 1.71436 17.526 1.71436 18V19.7143C1.71436 21.132 2.86807 22.2857 4.28578 22.2857H6.00007C6.47321 22.2857 6.85721 21.9026 6.85721 21.4286C6.85721 20.9546 6.47321 20.5714 6.00007 20.5714Z" fill="#595959"/>
<path d="M19.7145 1.71429H18.0002C17.5271 1.71429 17.1431 2.09744 17.1431 2.57144C17.1431 3.04544 17.5271 3.42858 18.0002 3.42858H19.7145C20.1868 3.42858 20.5716 3.81258 20.5716 4.28572V6.00001C20.5716 6.47401 20.9556 6.85715 21.4288 6.85715C21.9019 6.85715 22.2859 6.47401 22.2859 6.00001V4.28572C22.2859 2.86801 21.1322 1.71429 19.7145 1.71429Z" fill="#595959"/>
<path d="M21.4288 17.1429C20.9556 17.1429 20.5716 17.526 20.5716 18V19.7143C20.5716 20.1874 20.1868 20.5714 19.7145 20.5714H18.0002C17.5271 20.5714 17.1431 20.9546 17.1431 21.4286C17.1431 21.9026 17.5271 22.2857 18.0002 22.2857H19.7145C21.1322 22.2857 22.2859 21.132 22.2859 19.7143V18C22.2859 17.526 21.9019 17.1429 21.4288 17.1429Z" fill="#595959"/>
</svg>
