<svg width="40" height="40" viewBox="0 0 40 40" fill="none" xmlns="http://www.w3.org/2000/svg">
<circle cx="20" cy="20" r="20" fill="#FFF8E7"/>
<path d="M19.7854 18.0923C22.6258 18.0923 24.9283 15.9252 24.9283 13.252C24.9283 10.5787 22.6258 8.41162 19.7854 8.41162C16.9451 8.41162 14.6426 10.5787 14.6426 13.252C14.6426 15.9252 16.9451 18.0923 19.7854 18.0923Z" fill="#F9A804"/>
<path d="M23.9643 20.5127H15.6071C12.2399 20.5127 9.5 23.0914 9.5 26.2606V29.2858C9.5 29.7868 9.932 30.1933 10.4643 30.1933H29.1071C29.6394 30.1933 30.0714 29.7868 30.0714 29.2858V26.2606C30.0714 23.0914 27.3316 20.5127 23.9643 20.5127Z" fill="#F9A804"/>
</svg>
