<svg width="150" height="150" viewBox="0 0 150 150" fill="none" xmlns="http://www.w3.org/2000/svg">
<circle cx="75" cy="75" r="75" fill="#B1B1B1"/>
<circle cx="75" cy="75" r="68" fill="#EFEFEF"/>
<path d="M74.9998 75C85.8154 75 94.5832 66.2323 94.5832 55.4167C94.5832 44.6011 85.8154 35.8333 74.9998 35.8333C64.1843 35.8333 55.4165 44.6011 55.4165 55.4167C55.4165 66.2323 64.1843 75 74.9998 75Z" fill="#B1B1B1"/>
<path d="M75 84.7917C55.3775 84.7917 39.3975 97.9517 39.3975 114.167C39.3975 115.263 40.2591 116.125 41.3558 116.125H108.644C109.741 116.125 110.602 115.263 110.602 114.167C110.602 97.9517 94.6225 84.7917 75 84.7917Z" fill="#B1B1B1"/>
</svg>
