<svg width="20" height="20" viewBox="0 0 20 20" fill="none" xmlns="http://www.w3.org/2000/svg">
<path d="M14.6154 7.11508H20V4.61508C20 3.02449 18.706 1.73047 17.1154 1.73047H2.88461C1.29402 1.73047 0 3.02449 0 4.61508V15.3843C0 16.9749 1.29402 18.2689 2.88461 18.2689H17.1154C18.706 18.2689 20 16.9749 20 15.3843V12.8843H14.6154C13.0248 12.8843 11.7308 11.5903 11.7308 9.99969C11.7308 8.40911 13.0248 7.11508 14.6154 7.11508Z" fill="#BF0C26"/>
<path d="M14.6155 8.26953C13.6612 8.26953 12.8848 9.04594 12.8848 10.0003C12.8848 10.9547 13.6612 11.7311 14.6155 11.7311H20.0002V8.26957H14.6155V8.26953ZM15.3848 10.5772H14.6155C14.2969 10.5772 14.0386 10.3189 14.0386 10.0003C14.0386 9.68172 14.297 9.4234 14.6155 9.4234H15.3848C15.7034 9.4234 15.9617 9.68172 15.9617 10.0003C15.9617 10.3189 15.7034 10.5772 15.3848 10.5772Z" fill="#BF0C26"/>
</svg>
