<svg width="20" height="20" viewBox="0 0 20 20" fill="none" xmlns="http://www.w3.org/2000/svg">
<path d="M17.1154 1.73071H2.88461C1.29402 1.73071 0 3.02474 0 4.61532V15.3845C0 16.9751 1.29402 18.2692 2.88461 18.2692H17.1154C18.706 18.2692 20 16.9751 20 15.3845V4.61532C20 3.02474 18.706 1.73071 17.1154 1.73071ZM18.8462 11.7307H14.6154C13.6611 11.7307 12.8846 10.9543 12.8846 9.99993C12.8846 9.04556 13.661 8.26915 14.6154 8.26915H18.8462V11.7307ZM18.8462 7.11532H14.6154C13.0248 7.11532 11.7308 8.40935 11.7308 9.99993C11.7308 11.5905 13.0248 12.8845 14.6154 12.8845H18.8462V15.3845C18.8462 16.3389 18.0698 17.1153 17.1154 17.1153H2.88461C1.93027 17.1153 1.15383 16.3389 1.15383 15.3845V4.61532C1.15383 3.66099 1.93023 2.88454 2.88461 2.88454H17.1154C18.0697 2.88454 18.8462 3.66095 18.8462 4.61532V7.11532Z" fill="#B1B1B1"/>
<path d="M15.3842 9.4231H14.615C14.2964 9.4231 14.0381 9.68142 14.0381 10C14.0381 10.3186 14.2964 10.5769 14.615 10.5769H15.3842C15.7029 10.5769 15.9611 10.3186 15.9611 10C15.9611 9.68138 15.7029 9.4231 15.3842 9.4231Z" fill="#B1B1B1"/>
</svg>
